<svg width="48" height="48" viewBox="0 0 48 48" fill="none" xmlns="http://www.w3.org/2000/svg">
<path fill-rule="evenodd" clip-rule="evenodd" d="M34.6982 29.5814C34.6982 28.8112 35.3234 28.186 36.0936 28.186C36.8638 28.186 37.4889 28.8112 37.4889 29.5814V42.6046C37.4889 43.3749 36.8638 44 36.0936 44C35.3234 44 34.6982 43.3749 34.6982 42.6046V29.5814Z" fill="#FFBB0B"/>
<path fill-rule="evenodd" clip-rule="evenodd" d="M29.5809 37.4883C28.8107 37.4883 28.1855 36.8632 28.1855 36.093C28.1855 35.3227 28.8107 34.6976 29.5809 34.6976H42.6042C43.3744 34.6976 43.9995 35.3227 43.9995 36.093C43.9995 36.8632 43.3744 37.4883 42.6042 37.4883H29.5809Z" fill="#FFBB0B"/>
<path fill-rule="evenodd" clip-rule="evenodd" d="M21.2101 4C26.8585 4 31.4427 8.58419 31.4427 14.2326C31.4427 19.8809 26.8585 24.4651 21.2101 24.4651C15.5617 24.4651 10.9775 19.8809 10.9775 14.2326C10.9775 8.58419 15.5617 4 21.2101 4ZM21.2101 6.7907C17.1022 6.7907 13.7682 10.1247 13.7682 14.2326C13.7682 18.3405 17.1022 21.6744 21.2101 21.6744C25.318 21.6744 28.652 18.3405 28.652 14.2326C28.652 10.1247 25.318 6.7907 21.2101 6.7907Z" fill="#3FA9F5"/>
<path fill-rule="evenodd" clip-rule="evenodd" d="M5.39535 44C4.94698 44 4.54698 43.7879 4.29023 43.4567C4.1507 43.2893 4.04465 43.0697 4.01116 42.7814C4.00372 42.7256 4 42.666 4 42.6046C4 42.5972 4 42.5897 4 42.5823V40.7442C4 32.7814 10.4558 26.3256 18.4186 26.3256H28.6512C29.4214 26.3256 30.0465 26.9507 30.0465 27.7209C30.0465 28.4911 29.4214 29.1163 28.6512 29.1163H18.4186C11.9963 29.1163 6.7907 34.3218 6.7907 40.7442V42.5823C6.7907 43.8995 5.39535 44 5.39535 44Z" fill="#3FA9F5"/>
</svg>
