<svg width="301" height="133" viewBox="0 0 301 133" fill="none" xmlns="http://www.w3.org/2000/svg">
<g opacity="0.15">
<g clip-path="url(#clip0_2462_6914)">
<path d="M177.602 7.19248C177.403 7.19248 177.204 7.2323 177.045 7.27213C177.045 4.96245 175.173 3.09082 172.864 3.09082C170.793 3.09082 169.041 4.60405 168.722 6.63497C168.284 6.3164 167.766 6.11729 167.169 6.11729C165.696 6.11729 164.501 7.31195 164.501 8.78536C164.501 10.2588 165.696 11.4534 167.169 11.4534C168.244 11.4534 169.16 10.8163 169.598 9.90038C170.355 10.8561 171.549 11.4534 172.864 11.4534C173.979 11.4534 174.974 11.0154 175.731 10.2986C176.089 10.9756 176.806 11.4534 177.602 11.4534C178.757 11.4534 179.713 10.4977 179.713 9.34287C179.713 8.14821 178.757 7.19248 177.602 7.19248Z" stroke="#3FA9F5" stroke-width="0.965579" stroke-miterlimit="10" stroke-linejoin="round"/>
<path d="M164.541 7.98901C164.78 9.22349 165.855 10.0996 167.169 10.0996C168.244 10.0996 169.16 9.46243 169.598 8.54652C170.355 9.50225 171.55 10.0996 172.864 10.0996C173.979 10.0996 174.974 9.66153 175.731 8.94474C176.089 9.62171 176.806 10.0996 177.603 10.0996C178.558 10.0996 179.355 9.50225 179.634 8.62616" stroke="#3FA9F5" stroke-width="0.48279" stroke-miterlimit="10" stroke-linejoin="round"/>
<path d="M172.784 1.13965C173.262 1.13965 173.7 1.17947 174.138 1.29894" stroke="#3FA9F5" stroke-width="0.48279" stroke-miterlimit="10" stroke-linejoin="round"/>
<path d="M168.324 3.01134C169.001 2.29454 169.837 1.77685 170.793 1.41846" stroke="#3FA9F5" stroke-width="0.48279" stroke-miterlimit="10" stroke-linejoin="round"/>
<path d="M180.271 11.6924C179.634 12.4092 178.718 12.8472 177.683 12.8472" stroke="#3FA9F5" stroke-width="0.48279" stroke-miterlimit="10" stroke-linejoin="round"/>
<path d="M264.524 48.5659C264.444 47.1721 263.29 46.1367 261.896 46.1765C261.458 45.0615 260.462 44.2253 259.307 43.9465C259.148 42.6324 257.953 41.6368 256.639 41.7563C255.405 41.836 254.449 42.7519 254.29 43.9067C253.414 44.0262 252.657 44.504 252.1 45.1014C251.781 45.0217 251.423 44.9421 251.024 44.9819C249.312 45.1014 247.998 46.5748 248.117 48.2871C248.237 49.9995 249.71 51.3136 251.423 51.1941C252.02 51.1543 252.538 50.9552 252.976 50.6366C253.573 50.995 254.33 51.1941 255.086 51.1543C255.684 51.1145 256.201 50.9552 256.679 50.6764C257.276 51.0348 257.993 51.1941 258.75 51.1543C259.347 51.1145 259.905 50.9154 260.383 50.6366C260.86 51.0348 261.498 51.2738 262.175 51.2339C263.568 51.1543 264.644 49.9596 264.524 48.5659Z" stroke="#3FA9F5" stroke-width="0.965579" stroke-miterlimit="10" stroke-linejoin="round"/>
<path d="M248.197 47.3716C248.555 48.8052 249.909 49.8405 251.422 49.7211C252.02 49.6813 252.537 49.4821 252.975 49.1636C253.573 49.522 254.329 49.7211 255.086 49.6813C255.683 49.6414 256.201 49.4821 256.679 49.2034C257.276 49.5618 257.993 49.7211 258.75 49.6813C259.347 49.6414 259.904 49.4423 260.382 49.1636C260.86 49.5618 261.497 49.8007 262.174 49.7609C263.21 49.6813 264.086 49.0043 264.404 48.0486" stroke="#3FA9F5" stroke-width="0.48279" stroke-miterlimit="10" stroke-linejoin="round"/>
<path d="M263.807 52.3096C263.329 52.5087 262.811 52.6281 262.214 52.6281" stroke="#3FA9F5" stroke-width="0.48279" stroke-miterlimit="10" stroke-linecap="round" stroke-linejoin="round"/>
<path d="M266.077 48.8052C266.077 49.8804 265.639 50.8361 264.962 51.5131" stroke="#3FA9F5" stroke-width="0.48279" stroke-miterlimit="10" stroke-linecap="round" stroke-linejoin="round"/>
<path d="M248.794 43.9867C249.471 43.6283 250.228 43.4292 251.024 43.4292" stroke="#3FA9F5" stroke-width="0.48279" stroke-miterlimit="10" stroke-linecap="round" stroke-linejoin="round"/>
<path d="M246.325 48.1278C246.325 46.7341 246.923 45.4996 247.878 44.6633" stroke="#3FA9F5" stroke-width="0.48279" stroke-miterlimit="10" stroke-linecap="round" stroke-linejoin="round"/>
<path d="M210.696 42.2365C209.103 47.4531 202.612 50.6389 201.298 50.2407C199.984 49.8425 196.52 43.1524 197.993 38.3339C199.068 34.8296 201.657 32.0819 206.395 33.5155C210.895 34.9092 211.771 38.7321 210.696 42.2365Z" stroke="#3FA9F5" stroke-width="0.965579" stroke-miterlimit="10" stroke-linejoin="round"/>
<path d="M208.665 41.5996C207.191 46.4579 202.094 50.4799 201.338 50.241C200.462 49.9622 198.709 43.5907 200.103 38.9714C201.178 35.467 203.369 32.5999 206.435 33.5556C209.7 34.5511 209.74 38.0953 208.665 41.5996Z" stroke="#3FA9F5" stroke-width="0.965579" stroke-miterlimit="10" stroke-linejoin="round"/>
<path d="M206.515 40.9621C205.121 45.5416 201.338 50.2406 201.338 50.2406C201.338 50.2406 200.86 44.1479 202.254 39.648C203.329 36.1437 205.28 33.1968 206.475 33.5552C207.63 33.9136 207.59 37.4578 206.515 40.9621Z" stroke="#3FA9F5" stroke-width="0.965579" stroke-miterlimit="10" stroke-linejoin="round"/>
<path d="M201.298 50.2407L199.347 52.2716" stroke="#3FA9F5" stroke-width="0.965579" stroke-miterlimit="10" stroke-linejoin="round"/>
<path d="M201.298 50.2407L201.935 53.0681" stroke="#3FA9F5" stroke-width="0.965579" stroke-miterlimit="10" stroke-linejoin="round"/>
<path d="M199.347 52.2655L198.799 54.0549L201.388 54.8486L201.936 53.0591L199.347 52.2655Z" stroke="#3FA9F5" stroke-width="0.965579" stroke-miterlimit="10" stroke-linejoin="round"/>
<path d="M209.74 41.9578C208.267 46.8161 202.294 50.5593 201.338 50.2806C200.223 49.9222 197.634 43.2719 199.028 38.6924C200.103 35.1881 202.612 32.4005 206.475 33.5952C210.497 34.7899 210.815 38.4535 209.74 41.9578Z" stroke="#3FA9F5" stroke-width="0.48279" stroke-miterlimit="10" stroke-linejoin="round"/>
<path d="M207.391 41.2409C205.997 45.8204 201.298 50.2805 201.298 50.2805C201.298 50.2805 199.944 43.909 201.298 39.4091C202.373 35.9047 204.723 33.0774 206.395 33.5951C208.108 34.0729 208.466 37.7366 207.391 41.2409Z" stroke="#3FA9F5" stroke-width="0.48279" stroke-miterlimit="10" stroke-linejoin="round"/>
<path d="M205.041 40.4841C203.648 45.0636 201.338 50.2405 201.338 50.2405C201.338 50.2405 202.333 44.5857 203.727 40.0859C204.802 36.5815 206.077 33.4356 206.475 33.5551C206.794 33.6745 206.117 37.0196 205.041 40.4841Z" stroke="#3FA9F5" stroke-width="0.48279" stroke-miterlimit="10" stroke-linejoin="round"/>
<path d="M2.33545 128.29H301" stroke="#3FA9F5" stroke-width="0.965579" stroke-miterlimit="10" stroke-linejoin="round"/>
<path d="M301 132.232H2.33545" stroke="#3FA9F5" stroke-width="0.965579" stroke-miterlimit="10" stroke-linejoin="round"/>
<path d="M250.032 10.058C249.872 12.8456 247.523 14.996 244.735 14.8367C241.948 14.6774 239.797 12.3279 239.957 9.54036C240.116 6.75282 242.465 4.60244 245.253 4.76173C248.04 4.88119 250.191 7.27051 250.032 10.058Z" stroke="#3FA9F5" stroke-width="0.965579" stroke-miterlimit="10" stroke-linejoin="round"/>
<path d="M245.333 3.08935L245.452 0.938965" stroke="#3FA9F5" stroke-width="0.48279" stroke-miterlimit="10" stroke-linejoin="round"/>
<path d="M244.496 18.6599L244.616 16.5095" stroke="#3FA9F5" stroke-width="0.48279" stroke-miterlimit="10" stroke-linejoin="round"/>
<path d="M241.948 3.80623L240.952 1.89478" stroke="#3FA9F5" stroke-width="0.48279" stroke-miterlimit="10" stroke-linejoin="round"/>
<path d="M248.997 17.7039L248.041 15.7925" stroke="#3FA9F5" stroke-width="0.48279" stroke-miterlimit="10" stroke-linejoin="round"/>
<path d="M239.359 6.1556L237.567 4.96094" stroke="#3FA9F5" stroke-width="0.48279" stroke-miterlimit="10" stroke-linejoin="round"/>
<path d="M252.421 14.6375L250.589 13.4429" stroke="#3FA9F5" stroke-width="0.48279" stroke-miterlimit="10" stroke-linejoin="round"/>
<path d="M238.284 9.46077L236.134 9.34131" stroke="#3FA9F5" stroke-width="0.48279" stroke-miterlimit="10" stroke-linejoin="round"/>
<path d="M253.815 10.2574L251.665 10.1379" stroke="#3FA9F5" stroke-width="0.48279" stroke-miterlimit="10" stroke-linejoin="round"/>
<path d="M239.001 12.8457L237.09 13.8014" stroke="#3FA9F5" stroke-width="0.48279" stroke-miterlimit="10" stroke-linejoin="round"/>
<path d="M252.859 5.79736L250.947 6.75309" stroke="#3FA9F5" stroke-width="0.48279" stroke-miterlimit="10" stroke-linejoin="round"/>
<path d="M241.31 15.4343L240.155 17.2263" stroke="#3FA9F5" stroke-width="0.48279" stroke-miterlimit="10" stroke-linejoin="round"/>
<path d="M249.793 2.37256L248.638 4.16455" stroke="#3FA9F5" stroke-width="0.48279" stroke-miterlimit="10" stroke-linejoin="round"/>
</g>
<path d="M94.2238 128.29C80.5213 104.975 57.8009 100.625 47.6119 100.625C37.4229 100.625 14.7025 104.975 1 128.29H6.27019C15.9127 109.324 37.6571 102.105 47.6119 102.105C57.5667 102.105 79.3111 109.324 88.9536 128.29H94.2238Z" stroke="#3FA9F5" stroke-width="0.963343" stroke-miterlimit="10" stroke-linejoin="round"/>
<path d="M7.51953 126.003C34.417 122.371 61.5097 122.551 87.7045 126.003" stroke="#3FA9F5" stroke-width="0.963343" stroke-miterlimit="10" stroke-linejoin="round"/>
<path d="M8.18262 124.882C34.6507 120.533 61.2749 120.712 87.0403 124.882" stroke="#3FA9F5" stroke-width="0.963343" stroke-miterlimit="10" stroke-linejoin="round"/>
<path d="M47.0654 102.105V121.699" stroke="#3FA9F5" stroke-width="0.963343" stroke-miterlimit="10" stroke-linejoin="round"/>
<path d="M43.0051 102.509L41.7949 121.699" stroke="#3FA9F5" stroke-width="0.963343" stroke-miterlimit="10" stroke-linejoin="round"/>
<path d="M38.7891 103.406L35.7441 121.699" stroke="#3FA9F5" stroke-width="0.963343" stroke-miterlimit="10" stroke-linejoin="round"/>
<path d="M34.8461 104.571L29.0684 122.461" stroke="#3FA9F5" stroke-width="0.963343" stroke-miterlimit="10" stroke-linejoin="round"/>
<path d="M30.435 106.32L22.4321 122.999" stroke="#3FA9F5" stroke-width="0.963343" stroke-miterlimit="10" stroke-linejoin="round"/>
<path d="M51.3203 102.509L52.5305 121.699" stroke="#3FA9F5" stroke-width="0.963343" stroke-miterlimit="10" stroke-linejoin="round"/>
<path d="M55.4976 103.406L58.5816 121.699" stroke="#3FA9F5" stroke-width="0.963343" stroke-miterlimit="10" stroke-linejoin="round"/>
<path d="M59.4404 104.302L65.2572 122.461" stroke="#3FA9F5" stroke-width="0.963343" stroke-miterlimit="10" stroke-linejoin="round"/>
<path d="M63.6172 105.827L71.8933 122.999" stroke="#3FA9F5" stroke-width="0.963343" stroke-miterlimit="10" stroke-linejoin="round"/>
<path d="M31.5285 105.872L23.8379 122.865" stroke="#3FA9F5" stroke-width="0.481671" stroke-miterlimit="10" stroke-linejoin="round"/>
<path d="M35.7443 104.302L30.4351 122.282" stroke="#3FA9F5" stroke-width="0.481671" stroke-miterlimit="10" stroke-linejoin="round"/>
<path d="M39.5305 103.226L36.7588 121.699" stroke="#3FA9F5" stroke-width="0.481671" stroke-miterlimit="10" stroke-linejoin="round"/>
<path d="M43.7469 102.509L42.7319 121.699" stroke="#3FA9F5" stroke-width="0.481671" stroke-miterlimit="10" stroke-linejoin="round"/>
<path d="M47.9238 101.881V121.699" stroke="#3FA9F5" stroke-width="0.481671" stroke-miterlimit="10" stroke-linejoin="round"/>
<path d="M52.2183 102.509L53.4675 121.699" stroke="#3FA9F5" stroke-width="0.481671" stroke-miterlimit="10" stroke-linejoin="round"/>
<path d="M56.3955 103.406L59.6357 122.013" stroke="#3FA9F5" stroke-width="0.481671" stroke-miterlimit="10" stroke-linejoin="round"/>
<path d="M60.3389 104.571L66.2727 122.416" stroke="#3FA9F5" stroke-width="0.481671" stroke-miterlimit="10" stroke-linejoin="round"/>
<path d="M64.6328 106.275L72.909 123.044" stroke="#3FA9F5" stroke-width="0.481671" stroke-miterlimit="10" stroke-linejoin="round"/>
<path d="M3.57666 128.29C12.1261 113.898 27.8976 101.612 47.612 101.612" stroke="#3FA9F5" stroke-width="0.481671" stroke-miterlimit="10" stroke-linejoin="round"/>
<path d="M91.9592 128.29C83.4098 113.898 67.6382 101.612 47.9238 101.612" stroke="#3FA9F5" stroke-width="0.481671" stroke-miterlimit="10" stroke-linejoin="round"/>
<path d="M89.7295 114.134V128.29" stroke="#3FA9F5" stroke-width="0.965579" stroke-miterlimit="10" stroke-linejoin="round"/>
<path d="M89.73 114.134C89.73 114.134 89.1907 117.055 86.1348 117.325C86.1348 117.325 86.4044 114.853 89.73 114.134Z" stroke="#3FA9F5" stroke-width="0.965579" stroke-miterlimit="10" stroke-linejoin="round"/>
<path d="M89.7295 114.134C89.7295 114.134 90.2688 117.055 93.2798 117.325C93.2798 117.325 93.0551 114.853 89.7295 114.134Z" stroke="#3FA9F5" stroke-width="0.965579" stroke-miterlimit="10" stroke-linejoin="round"/>
<path d="M89.7294 114.133H85.2354C85.2354 114.133 85.9544 112.516 87.4824 112.516C88.9654 112.516 89.7294 114.133 89.7294 114.133Z" stroke="#3FA9F5" stroke-width="0.965579" stroke-miterlimit="10" stroke-linejoin="round"/>
<path d="M94.2236 114.133H89.7295C89.7295 114.133 90.4485 112.516 91.9765 112.516C93.4596 112.516 94.2236 114.133 94.2236 114.133Z" stroke="#3FA9F5" stroke-width="0.965579" stroke-miterlimit="10" stroke-linejoin="round"/>
<path d="M109.465 124.663H85.2354V128.29H109.465V124.663Z" stroke="#3FA9F5" stroke-width="0.965579" stroke-miterlimit="10" stroke-linejoin="round"/>
<path d="M107.922 123.12H86.7793V124.663H107.922V123.12Z" stroke="#3FA9F5" stroke-width="0.965579" stroke-miterlimit="10" stroke-linejoin="round"/>
<path d="M93.8779 100.858H89.3252V123.12H94.8039" stroke="#3FA9F5" stroke-width="0.965579" stroke-miterlimit="10" stroke-linejoin="round"/>
<path d="M95.9229 109.693V81.7209H90.8301V100.858" stroke="#3FA9F5" stroke-width="0.965579" stroke-miterlimit="10" stroke-linejoin="round"/>
<path d="M97.1188 69.5288V62.7769H91.833V81.9137" stroke="#3FA9F5" stroke-width="0.965579" stroke-miterlimit="10" stroke-linejoin="round"/>
<path d="M100.128 123.12H105.607V112.278H100.128V117.024" stroke="#3FA9F5" stroke-width="0.965579" stroke-miterlimit="10" stroke-linejoin="round"/>
<path d="M100.784 93.5271H104.642V112.278" stroke="#3FA9F5" stroke-width="0.965579" stroke-miterlimit="10" stroke-linejoin="round"/>
<path d="M98.624 95.7266V74.8921H103.524V93.6431" stroke="#3FA9F5" stroke-width="0.965579" stroke-miterlimit="10" stroke-linejoin="round"/>
<path d="M97.119 55.8321V48.6558H93.2222V62.7383" stroke="#3FA9F5" stroke-width="0.965579" stroke-miterlimit="10" stroke-linejoin="round"/>
<path d="M101.595 74.8919V52.5913H97.1191" stroke="#3FA9F5" stroke-width="0.965579" stroke-miterlimit="10" stroke-linejoin="round"/>
<path d="M95.0742 48.6558V32.5669H100.013V52.5912" stroke="#3FA9F5" stroke-width="0.965579" stroke-miterlimit="10" stroke-linejoin="round"/>
<path d="M98.624 7.29541V35.2676" stroke="#3FA9F5" stroke-width="0.965579" stroke-miterlimit="10" stroke-linejoin="round"/>
<path d="M96.4629 32.5671V20.105H98.6235" stroke="#3FA9F5" stroke-width="0.965579" stroke-miterlimit="10" stroke-linejoin="round"/>
<path d="M104.642 102.362H89.3252V103.867H104.642V102.362Z" stroke="#3FA9F5" stroke-width="0.48279" stroke-miterlimit="10" stroke-linejoin="round"/>
<path d="M103.524 83.2642H90.8301V84.7689H103.524V83.2642Z" stroke="#3FA9F5" stroke-width="0.48279" stroke-miterlimit="10" stroke-linejoin="round"/>
<path d="M97.1188 64.2432H91.833V65.7479H97.1188V64.2432Z" stroke="#3FA9F5" stroke-width="0.48279" stroke-miterlimit="10" stroke-linejoin="round"/>
<path d="M100.051 35.2676H95.0742V36.7723H100.051V35.2676Z" stroke="#3FA9F5" stroke-width="0.965579" stroke-miterlimit="10" stroke-linejoin="round"/>
<path d="M101.672 96.7295V102.44" stroke="#3FA9F5" stroke-width="0.965579" stroke-miterlimit="10" stroke-linejoin="round"/>
<path d="M91.5635 106.375V123.12" stroke="#3FA9F5" stroke-width="0.965579" stroke-miterlimit="10" stroke-linejoin="round"/>
<path d="M93.8398 106.375V123.12" stroke="#3FA9F5" stroke-width="0.965579" stroke-miterlimit="10" stroke-linejoin="round"/>
<path d="M105.607 114.555H102.868" stroke="#3FA9F5" stroke-width="0.965579" stroke-miterlimit="10" stroke-linejoin="round"/>
<path d="M105.607 116.677H102.868" stroke="#3FA9F5" stroke-width="0.48279" stroke-miterlimit="10" stroke-linejoin="round"/>
<path d="M105.607 118.143H102.868" stroke="#3FA9F5" stroke-width="0.965579" stroke-miterlimit="10" stroke-linejoin="round"/>
<path d="M105.607 120.265H102.868" stroke="#3FA9F5" stroke-width="0.48279" stroke-miterlimit="10" stroke-linejoin="round"/>
<path d="M90.8301 86.6597H93.8395" stroke="#3FA9F5" stroke-width="0.965579" stroke-miterlimit="10" stroke-linejoin="round"/>
<path d="M90.8301 88.8203H93.8395" stroke="#3FA9F5" stroke-width="0.965579" stroke-miterlimit="10" stroke-linejoin="round"/>
<path d="M90.8301 90.9805H93.8395" stroke="#3FA9F5" stroke-width="0.965579" stroke-miterlimit="10" stroke-linejoin="round"/>
<path d="M100.784 76.821V81.258" stroke="#3FA9F5" stroke-width="0.48279" stroke-miterlimit="10" stroke-linejoin="round"/>
<path d="M91.833 67.6382H94.6881" stroke="#3FA9F5" stroke-width="0.48279" stroke-miterlimit="10" stroke-linejoin="round"/>
<path d="M91.833 69.5293H94.6881" stroke="#3FA9F5" stroke-width="0.965579" stroke-miterlimit="10" stroke-linejoin="round"/>
<path d="M91.833 71.3809H94.6881" stroke="#3FA9F5" stroke-width="0.48279" stroke-miterlimit="10" stroke-linejoin="round"/>
<path d="M91.833 73.0015H94.6881" stroke="#3FA9F5" stroke-width="0.965579" stroke-miterlimit="10" stroke-linejoin="round"/>
<path d="M91.833 74.8533H94.6881" stroke="#3FA9F5" stroke-width="0.48279" stroke-miterlimit="10" stroke-linejoin="round"/>
<path d="M91.833 76.4739H94.6881" stroke="#3FA9F5" stroke-width="0.965579" stroke-miterlimit="10" stroke-linejoin="round"/>
<path d="M91.833 78.3643H94.6881" stroke="#3FA9F5" stroke-width="0.48279" stroke-miterlimit="10" stroke-linejoin="round"/>
<path d="M95.0742 50.855V60.2305" stroke="#3FA9F5" stroke-width="0.48279" stroke-miterlimit="10" stroke-linejoin="round"/>
<path d="M101.595 56.334H100.013" stroke="#3FA9F5" stroke-width="0.48279" stroke-miterlimit="10" stroke-linejoin="round"/>
<path d="M101.595 58.417H100.013" stroke="#3FA9F5" stroke-width="0.965579" stroke-miterlimit="10" stroke-linejoin="round"/>
<path d="M101.595 60.4622H100.013" stroke="#3FA9F5" stroke-width="0.48279" stroke-miterlimit="10" stroke-linejoin="round"/>
<path d="M101.595 62.5454H100.013" stroke="#3FA9F5" stroke-width="0.965579" stroke-miterlimit="10" stroke-linejoin="round"/>
<path d="M104.642 94.9548H103.099" stroke="#3FA9F5" stroke-width="0.48279" stroke-miterlimit="10" stroke-linejoin="round"/>
<path d="M104.642 97.0381H103.099" stroke="#3FA9F5" stroke-width="0.965579" stroke-miterlimit="10" stroke-linejoin="round"/>
<path d="M104.642 99.083H103.099" stroke="#3FA9F5" stroke-width="0.48279" stroke-miterlimit="10" stroke-linejoin="round"/>
<path d="M104.642 101.167H103.099" stroke="#3FA9F5" stroke-width="0.965579" stroke-miterlimit="10" stroke-linejoin="round"/>
<path d="M101.595 64.5903H100.013" stroke="#3FA9F5" stroke-width="0.48279" stroke-miterlimit="10" stroke-linejoin="round"/>
<path d="M101.595 66.6738H100.013" stroke="#3FA9F5" stroke-width="0.965579" stroke-miterlimit="10" stroke-linejoin="round"/>
<path d="M101.595 68.6802H100.013" stroke="#3FA9F5" stroke-width="0.48279" stroke-miterlimit="10" stroke-linejoin="round"/>
<path d="M101.595 70.7634H100.013" stroke="#3FA9F5" stroke-width="0.965579" stroke-miterlimit="10" stroke-linejoin="round"/>
<path d="M96.5791 38.6631H98.5082" stroke="#3FA9F5" stroke-width="0.965579" stroke-miterlimit="10" stroke-linejoin="round"/>
<path d="M96.5791 40.4761H98.5082" stroke="#3FA9F5" stroke-width="0.48279" stroke-miterlimit="10" stroke-linejoin="round"/>
<path d="M96.5791 42.2896H98.5082" stroke="#3FA9F5" stroke-width="0.965579" stroke-miterlimit="10" stroke-linejoin="round"/>
<path d="M101.672 103.867V109.693" stroke="#3FA9F5" stroke-width="0.965579" stroke-miterlimit="10" stroke-linejoin="round"/>
<path d="M97.1191 70.416V77.438" stroke="#3FA9F5" stroke-width="0.48279" stroke-miterlimit="10" stroke-linejoin="round"/>
<path d="M97.1191 56.334V57.9159" stroke="#3FA9F5" stroke-width="0.48279" stroke-miterlimit="10" stroke-linejoin="round"/>
<path d="M94.4956 50.855V60.2305" stroke="#3FA9F5" stroke-width="0.48279" stroke-miterlimit="10" stroke-linejoin="round"/>
<path d="M96.5791 43.9102H98.5082" stroke="#3FA9F5" stroke-width="0.48279" stroke-miterlimit="10" stroke-linejoin="round"/>
<path d="M97.7363 20.105V32.5671" stroke="#3FA9F5" stroke-width="0.48279" stroke-miterlimit="10"/>
<path d="M98.624 6.2538V4.44043" stroke="#3FA9F5" stroke-width="0.48279" stroke-miterlimit="10"/>
<path d="M101.595 76.821V81.258" stroke="#3FA9F5" stroke-width="0.48279" stroke-miterlimit="10" stroke-linejoin="round"/>
<path d="M98.624 96.7295V99.3917" stroke="#3FA9F5" stroke-width="0.48279" stroke-miterlimit="10" stroke-linejoin="round"/>
<path d="M92.6436 111.97V122.966" stroke="#3FA9F5" stroke-width="0.48279" stroke-miterlimit="10" stroke-linejoin="round"/>
<path d="M90.3281 111.97V122.966" stroke="#3FA9F5" stroke-width="0.48279" stroke-miterlimit="10" stroke-linejoin="round"/>
<path d="M95.9229 111.97V122.966" stroke="#3FA9F5" stroke-width="0.48279" stroke-miterlimit="10" stroke-linejoin="round"/>
<path d="M97.3506 118.143V122.966" stroke="#3FA9F5" stroke-width="0.48279" stroke-miterlimit="10" stroke-linejoin="round"/>
<path d="M98.8555 120.265V122.965" stroke="#3FA9F5" stroke-width="0.48279" stroke-miterlimit="10" stroke-linejoin="round"/>
<path d="M85.2354 125.859H109.465" stroke="#3FA9F5" stroke-width="0.48279" stroke-miterlimit="10" stroke-linejoin="round"/>
<path d="M229.226 95.2134L199.071 128.02H259.337L229.226 95.2134Z" stroke="#3FA9F5" stroke-width="0.965579" stroke-miterlimit="10" stroke-linejoin="round"/>
<path d="M229.227 95.2134L240.956 128.02" stroke="#3FA9F5" stroke-width="0.965579" stroke-miterlimit="10" stroke-linejoin="round"/>
<path d="M225.901 125.638H250.304" stroke="#3FA9F5" stroke-width="0.965579" stroke-miterlimit="10" stroke-linejoin="round"/>
<path d="M211.25 125.638H221.857" stroke="#3FA9F5" stroke-width="0.965579" stroke-miterlimit="10" stroke-linejoin="round"/>
<path d="M237.316 123.256H245.855" stroke="#3FA9F5" stroke-width="0.965579" stroke-miterlimit="10" stroke-linejoin="round"/>
<path d="M251.967 123.256H254.978" stroke="#3FA9F5" stroke-width="0.965579" stroke-miterlimit="10" stroke-linejoin="round"/>
<path d="M229.227 123.256H203.431" stroke="#3FA9F5" stroke-width="0.965579" stroke-miterlimit="10" stroke-linejoin="round"/>
<path d="M205.723 120.784H224.912" stroke="#3FA9F5" stroke-width="0.965579" stroke-miterlimit="10" stroke-linejoin="round"/>
<path d="M234.081 120.784H241.586" stroke="#3FA9F5" stroke-width="0.965579" stroke-miterlimit="10" stroke-linejoin="round"/>
<path d="M249.765 120.515H252.686" stroke="#3FA9F5" stroke-width="0.965579" stroke-miterlimit="10" stroke-linejoin="round"/>
<path d="M217.856 114.358H211.43" stroke="#3FA9F5" stroke-width="0.965579" stroke-miterlimit="10" stroke-linejoin="round"/>
<path d="M224.912 114.358H231.384" stroke="#3FA9F5" stroke-width="0.965579" stroke-miterlimit="10" stroke-linejoin="round"/>
<path d="M236.058 114.358H242.304" stroke="#3FA9F5" stroke-width="0.965579" stroke-miterlimit="10" stroke-linejoin="round"/>
<path d="M238.844 108.92H241.586" stroke="#3FA9F5" stroke-width="0.965579" stroke-miterlimit="10" stroke-linejoin="round"/>
<path d="M234.126 108.92H228.148" stroke="#3FA9F5" stroke-width="0.965579" stroke-miterlimit="10" stroke-linejoin="round"/>
<path d="M221.587 108.92H216.329" stroke="#3FA9F5" stroke-width="0.965579" stroke-miterlimit="10" stroke-linejoin="round"/>
<path d="M225.586 105.64H232.777" stroke="#3FA9F5" stroke-width="0.965579" stroke-miterlimit="10" stroke-linejoin="round"/>
<path d="M236.821 105.64H238.754" stroke="#3FA9F5" stroke-width="0.965579" stroke-miterlimit="10" stroke-linejoin="round"/>
<path d="M228.148 101.55H232.777" stroke="#3FA9F5" stroke-width="0.965579" stroke-miterlimit="10" stroke-linejoin="round"/>
<path d="M219.924 119.661H228.463" stroke="#3FA9F5" stroke-width="0.965579" stroke-miterlimit="10" stroke-linejoin="round"/>
<path d="M223.609 115.437H226.575" stroke="#3FA9F5" stroke-width="0.965579" stroke-miterlimit="10" stroke-linejoin="round"/>
<path d="M226.575 110.178H229.182" stroke="#3FA9F5" stroke-width="0.965579" stroke-miterlimit="10" stroke-linejoin="round"/>
<path d="M224.193 104.606H226.575" stroke="#3FA9F5" stroke-width="0.965579" stroke-miterlimit="10" stroke-linejoin="round"/>
<path d="M210.307 125.638H207.79" stroke="#3FA9F5" stroke-width="0.965579" stroke-miterlimit="10" stroke-linejoin="round"/>
<path d="M230.485 123.256H231.743" stroke="#3FA9F5" stroke-width="0.965579" stroke-miterlimit="10" stroke-linejoin="round"/>
<path d="M240.957 115.437H244.327" stroke="#3FA9F5" stroke-width="0.965579" stroke-miterlimit="10" stroke-linejoin="round"/>
<path d="M239.653 113.414H240.957" stroke="#3FA9F5" stroke-width="0.965579" stroke-miterlimit="10" stroke-linejoin="round"/>
<path d="M251.967 124.469H253.45" stroke="#3FA9F5" stroke-width="0.965579" stroke-miterlimit="10" stroke-linejoin="round"/>
<path d="M236.462 106.673H237.811" stroke="#3FA9F5" stroke-width="0.965579" stroke-miterlimit="10" stroke-linejoin="round"/>
<path d="M217.856 110.178H219.519" stroke="#3FA9F5" stroke-width="0.965579" stroke-miterlimit="10" stroke-linejoin="round"/>
<path d="M212.284 115.437H213.228" stroke="#3FA9F5" stroke-width="0.965579" stroke-miterlimit="10" stroke-linejoin="round"/>
<path d="M237.811 119.302H246.889" stroke="#3FA9F5" stroke-width="0.48279" stroke-miterlimit="10" stroke-linejoin="round"/>
<path d="M249.135 119.302H251.247" stroke="#3FA9F5" stroke-width="0.48279" stroke-miterlimit="10" stroke-linejoin="round"/>
<path d="M242.305 116.425H248.686" stroke="#3FA9F5" stroke-width="0.48279" stroke-miterlimit="10" stroke-linejoin="round"/>
<path d="M240.957 110.628H243.338" stroke="#3FA9F5" stroke-width="0.48279" stroke-miterlimit="10" stroke-linejoin="round"/>
<path d="M234.8 105.64H232.777" stroke="#3FA9F5" stroke-width="0.48279" stroke-miterlimit="10" stroke-linejoin="round"/>
<path d="M224.912 107.527H217.856" stroke="#3FA9F5" stroke-width="0.48279" stroke-miterlimit="10" stroke-linejoin="round"/>
<path d="M229.092 107.527H233.676" stroke="#3FA9F5" stroke-width="0.48279" stroke-miterlimit="10" stroke-linejoin="round"/>
<path d="M226.306 102.674H222.711" stroke="#3FA9F5" stroke-width="0.48279" stroke-miterlimit="10" stroke-linejoin="round"/>
<path d="M216.329 119.661H206.756" stroke="#3FA9F5" stroke-width="0.48279" stroke-miterlimit="10" stroke-linejoin="round"/>
<path d="M206.352 126.133H200.375" stroke="#3FA9F5" stroke-width="0.48279" stroke-miterlimit="10" stroke-linejoin="round"/>
<path d="M235.069 119.302H238.844" stroke="#3FA9F5" stroke-width="0.48279" stroke-miterlimit="10" stroke-linejoin="round"/>
<path d="M234.529 116.785H238.844" stroke="#3FA9F5" stroke-width="0.48279" stroke-miterlimit="10" stroke-linejoin="round"/>
<path d="M235.204 111.886H238.394" stroke="#3FA9F5" stroke-width="0.48279" stroke-miterlimit="10" stroke-linejoin="round"/>
<path d="M223.609 117.324H227.699" stroke="#3FA9F5" stroke-width="0.48279" stroke-miterlimit="10" stroke-linejoin="round"/>
<path d="M180.285 80.428L175.836 86.5849L174.623 86.6298L136.289 128.29H224.282L185.858 86.495L184.465 86.45L180.285 80.428Z" stroke="#3FA9F5" stroke-width="0.965579" stroke-miterlimit="10" stroke-linejoin="round"/>
<path d="M180.285 80.4282L197.452 128.29" stroke="#3FA9F5" stroke-width="0.965579" stroke-miterlimit="10" stroke-linejoin="round"/>
<path d="M175.432 124.829H211.025" stroke="#3FA9F5" stroke-width="0.965579" stroke-miterlimit="10" stroke-linejoin="round"/>
<path d="M154.13 124.829H169.589" stroke="#3FA9F5" stroke-width="0.965579" stroke-miterlimit="10" stroke-linejoin="round"/>
<path d="M192.149 121.324H204.598" stroke="#3FA9F5" stroke-width="0.965579" stroke-miterlimit="10" stroke-linejoin="round"/>
<path d="M213.452 121.324H217.901" stroke="#3FA9F5" stroke-width="0.965579" stroke-miterlimit="10" stroke-linejoin="round"/>
<path d="M180.285 121.324H142.715" stroke="#3FA9F5" stroke-width="0.965579" stroke-miterlimit="10" stroke-linejoin="round"/>
<path d="M146.041 117.729H174.039" stroke="#3FA9F5" stroke-width="0.965579" stroke-miterlimit="10" stroke-linejoin="round"/>
<path d="M187.386 117.729H198.351" stroke="#3FA9F5" stroke-width="0.965579" stroke-miterlimit="10" stroke-linejoin="round"/>
<path d="M210.306 117.324H214.171" stroke="#3FA9F5" stroke-width="0.965579" stroke-miterlimit="10" stroke-linejoin="round"/>
<path d="M163.702 108.381H154.354" stroke="#3FA9F5" stroke-width="0.965579" stroke-miterlimit="10" stroke-linejoin="round"/>
<path d="M174.039 108.381H183.476" stroke="#3FA9F5" stroke-width="0.965579" stroke-miterlimit="10" stroke-linejoin="round"/>
<path d="M190.307 108.381H199.385" stroke="#3FA9F5" stroke-width="0.965579" stroke-miterlimit="10" stroke-linejoin="round"/>
<path d="M194.352 100.472H198.352" stroke="#3FA9F5" stroke-width="0.965579" stroke-miterlimit="10" stroke-linejoin="round"/>
<path d="M187.476 100.472H178.758" stroke="#3FA9F5" stroke-width="0.965579" stroke-miterlimit="10" stroke-linejoin="round"/>
<path d="M169.185 100.472H161.904" stroke="#3FA9F5" stroke-width="0.965579" stroke-miterlimit="10" stroke-linejoin="round"/>
<path d="M174.982 95.6177H185.543" stroke="#3FA9F5" stroke-width="0.965579" stroke-miterlimit="10" stroke-linejoin="round"/>
<path d="M191.386 95.6177H194.217" stroke="#3FA9F5" stroke-width="0.965579" stroke-miterlimit="10" stroke-linejoin="round"/>
<path d="M166.713 116.111H179.162" stroke="#3FA9F5" stroke-width="0.965579" stroke-miterlimit="10" stroke-linejoin="round"/>
<path d="M172.106 109.954H176.42" stroke="#3FA9F5" stroke-width="0.965579" stroke-miterlimit="10" stroke-linejoin="round"/>
<path d="M176.421 102.269H180.241" stroke="#3FA9F5" stroke-width="0.965579" stroke-miterlimit="10" stroke-linejoin="round"/>
<path d="M172.96 94.135H176.42" stroke="#3FA9F5" stroke-width="0.965579" stroke-miterlimit="10" stroke-linejoin="round"/>
<path d="M152.692 124.829H149.052" stroke="#3FA9F5" stroke-width="0.965579" stroke-miterlimit="10" stroke-linejoin="round"/>
<path d="M182.128 121.324H183.97" stroke="#3FA9F5" stroke-width="0.965579" stroke-miterlimit="10" stroke-linejoin="round"/>
<path d="M197.453 109.954H202.351" stroke="#3FA9F5" stroke-width="0.965579" stroke-miterlimit="10" stroke-linejoin="round"/>
<path d="M195.565 106.988H197.453" stroke="#3FA9F5" stroke-width="0.965579" stroke-miterlimit="10" stroke-linejoin="round"/>
<path d="M213.452 123.077H215.654" stroke="#3FA9F5" stroke-width="0.965579" stroke-miterlimit="10" stroke-linejoin="round"/>
<path d="M190.847 97.1909H192.869" stroke="#3FA9F5" stroke-width="0.965579" stroke-miterlimit="10" stroke-linejoin="round"/>
<path d="M163.702 102.269H166.129" stroke="#3FA9F5" stroke-width="0.965579" stroke-miterlimit="10" stroke-linejoin="round"/>
<path d="M155.658 109.954H157.006" stroke="#3FA9F5" stroke-width="0.965579" stroke-miterlimit="10" stroke-linejoin="round"/>
<path d="M175.836 86.585L183.342 88.9219" stroke="#3FA9F5" stroke-width="0.965579" stroke-miterlimit="10" stroke-linejoin="round"/>
<path d="M183.341 88.9217L185.858 86.4949" stroke="#3FA9F5" stroke-width="0.965579" stroke-miterlimit="10" stroke-linejoin="round"/>
<path d="M185.184 94.135H181.948" stroke="#3FA9F5" stroke-width="0.48279" stroke-miterlimit="10" stroke-linejoin="round"/>
<path d="M184.42 91.9775H175.836" stroke="#3FA9F5" stroke-width="0.48279" stroke-miterlimit="10" stroke-linejoin="round"/>
<path d="M191.88 100.472H187.026" stroke="#3FA9F5" stroke-width="0.48279" stroke-miterlimit="10" stroke-linejoin="round"/>
<path d="M190.308 108.381H187.477" stroke="#3FA9F5" stroke-width="0.48279" stroke-miterlimit="10" stroke-linejoin="round"/>
<path d="M192.554 114.628H199.655" stroke="#3FA9F5" stroke-width="0.48279" stroke-miterlimit="10" stroke-linejoin="round"/>
<path d="M192.149 113.459H195.565" stroke="#3FA9F5" stroke-width="0.48279" stroke-miterlimit="10" stroke-linejoin="round"/>
<path d="M191.386 110.988H180.15" stroke="#3FA9F5" stroke-width="0.48279" stroke-miterlimit="10" stroke-linejoin="round"/>
<path d="M150.535 112.785H160.556" stroke="#3FA9F5" stroke-width="0.48279" stroke-miterlimit="10" stroke-linejoin="round"/>
<path d="M149.411 114.043H153.501" stroke="#3FA9F5" stroke-width="0.48279" stroke-miterlimit="10" stroke-linejoin="round"/>
<path d="M169.185 105.55H172.96" stroke="#3FA9F5" stroke-width="0.48279" stroke-miterlimit="10" stroke-linejoin="round"/>
<path d="M194.487 120.066H189.903" stroke="#3FA9F5" stroke-width="0.48279" stroke-miterlimit="10" stroke-linejoin="round"/>
<path d="M145.636 124.829H139.479" stroke="#3FA9F5" stroke-width="0.48279" stroke-miterlimit="10" stroke-linejoin="round"/>
<path d="M196.778 126.447H205.497" stroke="#3FA9F5" stroke-width="0.48279" stroke-miterlimit="10" stroke-linejoin="round"/>
<path d="M205.497 115.797H213.047" stroke="#3FA9F5" stroke-width="0.48279" stroke-miterlimit="10" stroke-linejoin="round"/>
<path d="M198.352 102.674H200.688" stroke="#3FA9F5" stroke-width="0.48279" stroke-miterlimit="10" stroke-linejoin="round"/>
<path d="M200.688 103.707H201.542" stroke="#3FA9F5" stroke-width="0.48279" stroke-miterlimit="10" stroke-linejoin="round"/>
<path d="M205.228 110.179H207.475" stroke="#3FA9F5" stroke-width="0.48279" stroke-miterlimit="10" stroke-linejoin="round"/>
<path d="M170.623 98.1797H163.702" stroke="#3FA9F5" stroke-width="0.48279" stroke-miterlimit="10" stroke-linejoin="round"/>
<path d="M176.42 89.7754H172.106" stroke="#3FA9F5" stroke-width="0.48279" stroke-miterlimit="10" stroke-linejoin="round"/>
<path d="M141.598 125.548C141.598 125.548 139.62 115.122 132.565 115.122C125.509 115.122 122.273 115.122 122.273 115.122C122.273 115.122 122.902 109.279 119.532 107.257C115.982 105.145 113.33 107.931 114.229 112.201C114.678 114.403 116.206 114.942 116.611 113.953C116.611 113.953 117.465 115.526 116.116 116.29C113.24 117.953 112.027 120.739 111.847 122.941H103.263C103.263 122.941 100.477 122.762 100.477 125.503H141.598V125.548Z" stroke="#3FA9F5" stroke-width="0.965579" stroke-miterlimit="10" stroke-linejoin="round"/>
<path d="M136.025 122.851H128.116C128.116 122.851 125.285 122.806 125.285 125.548" stroke="#3FA9F5" stroke-width="0.965579" stroke-miterlimit="10" stroke-linejoin="round"/>
<path d="M118.364 122.986H110.903C110.903 122.986 108.207 122.941 108.207 125.548" stroke="#3FA9F5" stroke-width="0.965579" stroke-miterlimit="10" stroke-linejoin="round"/>
<path d="M117.285 106.583C119.263 106.583 119.352 113.953 119.352 117.773L122.274 115.122" stroke="#3FA9F5" stroke-width="0.48279" stroke-miterlimit="10" stroke-linejoin="round"/>
<path d="M129.419 122.851C128.385 122.851 127.486 123.885 127.486 125.548" stroke="#3FA9F5" stroke-width="0.48279" stroke-miterlimit="10" stroke-linejoin="round"/>
<path d="M112.476 122.851C111.443 122.851 110.544 123.885 110.544 125.548" stroke="#3FA9F5" stroke-width="0.48279" stroke-miterlimit="10" stroke-linejoin="round"/>
<path d="M104.252 122.851C103.219 122.851 102.32 123.885 102.32 125.548" stroke="#3FA9F5" stroke-width="0.48279" stroke-miterlimit="10" stroke-linejoin="round"/>
<path d="M116.566 120.604H135.531" stroke="#3FA9F5" stroke-width="0.48279" stroke-miterlimit="10" stroke-linejoin="round"/>
<path d="M137.194 120.604H139.845" stroke="#3FA9F5" stroke-width="0.48279" stroke-miterlimit="10" stroke-linejoin="round"/>
<path d="M133.194 119.346H139.261" stroke="#3FA9F5" stroke-width="0.48279" stroke-miterlimit="10" stroke-linejoin="round"/>
<path d="M130.632 119.346H124.476" stroke="#3FA9F5" stroke-width="0.48279" stroke-miterlimit="10" stroke-linejoin="round"/>
<path d="M128.206 117.953H138.137" stroke="#3FA9F5" stroke-width="0.48279" stroke-miterlimit="10" stroke-linejoin="round"/>
<path d="M131.936 116.605H136.969" stroke="#3FA9F5" stroke-width="0.48279" stroke-miterlimit="10" stroke-linejoin="round"/>
<path d="M130.632 116.605H123.756" stroke="#3FA9F5" stroke-width="0.48279" stroke-miterlimit="10" stroke-linejoin="round"/>
</g>
<defs>
<clipPath id="clip0_2462_6914">
<rect width="298.665" height="132.169" fill="white" transform="translate(2.33496 0.461426)"/>
</clipPath>
</defs>
</svg>
