<svg width="12" height="7" viewBox="0 0 12 7" fill="none" xmlns="http://www.w3.org/2000/svg">
<path d="M5.81704 0.329702C5.92382 0.329074 6.02968 0.349874 6.12853 0.390909C6.22739 0.431944 6.3173 0.492406 6.39312 0.568829L11.2614 5.51629C11.4142 5.67156 11.5 5.88215 11.5 6.10174C11.5 6.32132 11.4142 6.53192 11.2614 6.68719C11.1086 6.84246 10.9014 6.92969 10.6853 6.92969C10.4692 6.92969 10.262 6.84246 10.1092 6.68719L5.81704 2.31693L1.52486 6.67894C1.36964 6.81403 1.16998 6.88462 0.965775 6.8766C0.761572 6.86859 0.567863 6.78255 0.423362 6.6357C0.27886 6.48885 0.194208 6.29199 0.186321 6.08447C0.178433 5.87694 0.247891 5.67403 0.380816 5.51629L5.24908 0.568829C5.40021 0.416493 5.60419 0.330613 5.81704 0.329702Z" fill="#3FA9F5"/>
</svg>
