<svg width="24" height="24" viewBox="0 0 24 24" fill="none" xmlns="http://www.w3.org/2000/svg">
<g id="appointment 1">
<g id="Layer 2">
<path id="Vector" d="M20.25 3H17.25V2.25C17.25 2.05109 17.171 1.86032 17.0303 1.71967C16.8897 1.57902 16.6989 1.5 16.5 1.5C16.3011 1.5 16.1103 1.57902 15.9697 1.71967C15.829 1.86032 15.75 2.05109 15.75 2.25V3H8.25V2.25C8.25 2.05109 8.17098 1.86032 8.03033 1.71967C7.88968 1.57902 7.69891 1.5 7.5 1.5C7.30109 1.5 7.11032 1.57902 6.96967 1.71967C6.82902 1.86032 6.75 2.05109 6.75 2.25V3H3.75C3.15326 3 2.58097 3.23705 2.15901 3.65901C1.73705 4.08097 1.5 4.65326 1.5 5.25V20.25C1.5 20.8467 1.73705 21.419 2.15901 21.841C2.58097 22.2629 3.15326 22.5 3.75 22.5H20.25C20.8467 22.5 21.419 22.2629 21.841 21.841C22.2629 21.419 22.5 20.8467 22.5 20.25V5.25C22.5 4.65326 22.2629 4.08097 21.841 3.65901C21.419 3.23705 20.8467 3 20.25 3ZM3.75 4.5H20.25C20.4489 4.5 20.6397 4.57902 20.7803 4.71967C20.921 4.86032 21 5.05109 21 5.25V7.5H3V5.25C3 5.05109 3.07902 4.86032 3.21967 4.71967C3.36032 4.57902 3.55109 4.5 3.75 4.5ZM20.25 21H3.75C3.55109 21 3.36032 20.921 3.21967 20.7803C3.07902 20.6397 3 20.4489 3 20.25V9H21V20.25C21 20.4489 20.921 20.6397 20.7803 20.7803C20.6397 20.921 20.4489 21 20.25 21Z" fill="white"/>
<path id="Vector_2" d="M15.2624 11.4307L10.5374 15.4807L8.77787 13.722C8.63642 13.5854 8.44697 13.5098 8.25032 13.5115C8.05367 13.5132 7.86556 13.5921 7.72651 13.7311C7.58745 13.8702 7.50857 14.0583 7.50686 14.2549C7.50516 14.4516 7.58075 14.641 7.71737 14.7825L9.96737 17.0325C10.101 17.1659 10.28 17.244 10.4686 17.2512C10.6573 17.2585 10.8417 17.1943 10.9851 17.0715L16.2351 12.5715C16.3142 12.5088 16.3797 12.4308 16.4279 12.3422C16.4761 12.2536 16.5059 12.1562 16.5156 12.0558C16.5253 11.9554 16.5146 11.8541 16.4842 11.7579C16.4538 11.6617 16.4043 11.5726 16.3387 11.496C16.2731 11.4194 16.1927 11.3568 16.1024 11.312C16.012 11.2672 15.9135 11.241 15.8128 11.2351C15.7121 11.2293 15.6113 11.2438 15.5163 11.2777C15.4213 11.3117 15.3342 11.3645 15.2601 11.433L15.2624 11.4307Z" fill="white"/>
</g>
</g>
</svg>
