<svg width="18" height="18" viewBox="0 0 18 18" fill="none" xmlns="http://www.w3.org/2000/svg">
<g clip-path="url(#clip0_2462_6344)">
<mask id="mask0_2462_6344" style="mask-type:luminance" maskUnits="userSpaceOnUse" x="0" y="0" width="18" height="18">
<path d="M0 1.90735e-06H18V18H0V1.90735e-06Z" fill="white"/>
</mask>
<g mask="url(#mask0_2462_6344)">
<path d="M17.4727 3.86719V6.46875H0.527344V3.86719C0.527344 3.28465 0.999492 2.8125 1.58203 2.8125H16.418C17.0005 2.8125 17.4727 3.28465 17.4727 3.86719Z" stroke="#726E83" stroke-width="1.05469" stroke-miterlimit="10" stroke-linecap="round" stroke-linejoin="round"/>
<path d="M3.375 4.21875V1.40625" stroke="#726E83" stroke-width="1.05469" stroke-miterlimit="10" stroke-linecap="round" stroke-linejoin="round"/>
<path d="M9 4.21875V1.40625" stroke="#726E83" stroke-width="1.05469" stroke-miterlimit="10" stroke-linecap="round" stroke-linejoin="round"/>
<path d="M14.625 4.21875V1.40625" stroke="#726E83" stroke-width="1.05469" stroke-miterlimit="10" stroke-linecap="round" stroke-linejoin="round"/>
<path d="M3.9375 9.28125H5.0625" stroke="#726E83" stroke-width="1.05469" stroke-miterlimit="10" stroke-linecap="round" stroke-linejoin="round"/>
<path d="M3.9375 11.5312H5.0625" stroke="#726E83" stroke-width="1.05469" stroke-miterlimit="10" stroke-linecap="round" stroke-linejoin="round"/>
<path d="M3.9375 13.7812H5.0625" stroke="#726E83" stroke-width="1.05469" stroke-miterlimit="10" stroke-linecap="round" stroke-linejoin="round"/>
<path d="M8.4375 9.28125H9.5625" stroke="#726E83" stroke-width="1.05469" stroke-miterlimit="10" stroke-linecap="round" stroke-linejoin="round"/>
<path d="M8.4375 11.5312H9.5625" stroke="#726E83" stroke-width="1.05469" stroke-miterlimit="10" stroke-linecap="round" stroke-linejoin="round"/>
<path d="M8.4375 13.7812H9.5625" stroke="#726E83" stroke-width="1.05469" stroke-miterlimit="10" stroke-linecap="round" stroke-linejoin="round"/>
<path d="M12.9375 9.28125H14.0625" stroke="#726E83" stroke-width="1.05469" stroke-miterlimit="10" stroke-linecap="round" stroke-linejoin="round"/>
<path d="M12.9375 11.5312H14.0625" stroke="#726E83" stroke-width="1.05469" stroke-miterlimit="10" stroke-linecap="round" stroke-linejoin="round"/>
<path d="M12.9375 13.7812H14.0625" stroke="#726E83" stroke-width="1.05469" stroke-miterlimit="10" stroke-linecap="round" stroke-linejoin="round"/>
<path d="M16.418 16.5938H1.58203C0.999562 16.5938 0.527344 16.1215 0.527344 15.5391V3.86719C0.527344 3.28472 0.999562 2.8125 1.58203 2.8125H16.418C17.0004 2.8125 17.4727 3.28472 17.4727 3.86719V15.5391C17.4727 16.1215 17.0004 16.5938 16.418 16.5938Z" stroke="#726E83" stroke-width="1.05469" stroke-miterlimit="10" stroke-linecap="round" stroke-linejoin="round"/>
</g>
</g>
<defs>
<clipPath id="clip0_2462_6344">
<rect width="18" height="18" fill="white"/>
</clipPath>
</defs>
</svg>
