<svg width="20" height="20" viewBox="0 0 20 20" fill="none" xmlns="http://www.w3.org/2000/svg">
<g id="call 1">
<path id="Vector" fill-rule="evenodd" clip-rule="evenodd" d="M16.4272 14.8856C16.0156 16.1362 14.4032 16.7602 13.2512 16.6562C11.6778 16.514 9.96581 15.6793 8.66625 14.7602C6.75601 13.4091 4.96666 11.3193 3.92399 9.1015C3.18709 7.53438 3.02176 5.60725 4.11777 4.1788C4.5231 3.65079 4.96222 3.36901 5.62 3.33613C6.53379 3.29168 6.66179 3.81435 6.97557 4.62858C7.20935 5.23747 7.52135 5.85881 7.69557 6.48993C8.0218 7.66772 6.88134 7.7166 6.73734 8.67928C6.64845 9.28639 7.38357 10.1006 7.71602 10.5335C8.35681 11.3766 9.14164 12.0997 10.0343 12.6695C10.5409 12.9886 11.3569 13.5638 11.9365 13.2464C12.8289 12.7575 12.7454 11.2526 13.9925 11.762C14.6387 12.0251 15.2645 12.4046 15.8814 12.7371C16.8352 13.25 16.7908 13.7815 16.4272 14.8856C16.6992 14.0607 16.1552 15.7104 16.4272 14.8856Z" fill="#726E83"/>
</g>
</svg>
