<svg width="36" height="36" viewBox="0 0 36 36" fill="none" xmlns="http://www.w3.org/2000/svg">
<path d="M25.7474 13.5524C26.1018 13.1794 26.0807 12.5953 25.7004 12.2478C25.3202 11.9002 24.7246 11.9208 24.3702 12.2938L15.4575 21.6748L11.6694 17.1382C11.34 16.7438 10.747 16.6859 10.3449 17.0089C9.94273 17.3319 9.88372 17.9135 10.213 18.3079L14.6836 23.6618C14.8558 23.8679 15.1102 23.991 15.3817 23.9995C15.6532 24.008 15.9152 23.9011 16.1004 23.7062L25.7474 13.5524Z" fill="#3FA9F5"/>
<path fill-rule="evenodd" clip-rule="evenodd" d="M18 2C9.16347 2 2 9.16347 2 18C2 26.8365 9.16347 34 18 34C26.8365 34 34 26.8365 34 18C34 9.16347 26.8365 2 18 2ZM4.13333 18C4.13333 10.3417 10.3417 4.13333 18 4.13333C25.6583 4.13333 31.8667 10.3417 31.8667 18C31.8667 25.6583 25.6583 31.8667 18 31.8667C10.3417 31.8667 4.13333 25.6583 4.13333 18Z" fill="#3FA9F5"/>
</svg>
