<svg width="48" height="48" viewBox="0 0 48 48" fill="none" xmlns="http://www.w3.org/2000/svg">
<path d="M15.9902 4.08578L15.9902 4.08578C16.157 4.08408 16.3225 4.11583 16.4768 4.17914C16.6311 4.24245 16.7711 4.33603 16.8886 4.45435C17.0061 4.57267 17.0986 4.71333 17.1607 4.868C17.2229 5.02267 17.2533 5.18822 17.2503 5.35486L17.2503 5.35486V5.35641V6.68343V6.76914H17.336H22.672H22.7577V6.68343V5.35641C22.7577 5.0258 22.8891 4.70872 23.1231 4.47492C23.3571 4.24112 23.6744 4.10977 24.0053 4.10977C24.3362 4.10977 24.6536 4.24112 24.8876 4.47492C25.1215 4.70872 25.253 5.0258 25.253 5.35641V6.68343V6.76914H25.3387H30.6747H30.7604V6.68343V5.35641C30.7604 5.0258 30.8918 4.70871 31.1258 4.47492C31.3597 4.24112 31.6771 4.10977 32.008 4.10977C32.3389 4.10977 32.6563 4.24112 32.8902 4.47492C33.1242 4.70872 33.2556 5.0258 33.2556 5.35641V6.68343V6.76914H33.3413H40.0053C42.151 6.76914 43.9143 8.54379 43.9143 10.6885V39.9976C43.9143 42.1409 42.1511 43.9143 40.0053 43.9143H8.00851C6.97045 43.9081 5.97663 43.4935 5.24237 42.7603C4.50818 42.0271 4.09263 41.0345 4.08571 39.9973V10.6888C4.09263 9.65138 4.5081 8.65842 5.24223 7.92483C5.97635 7.19124 6.97007 6.77605 8.00828 6.76914H14.6693H14.755V6.68343L14.7551 5.35641L14.755 5.35486C14.7521 5.19032 14.7817 5.02682 14.8423 4.87379C14.9029 4.72077 14.9932 4.58123 15.108 4.46325C15.2228 4.34527 15.3599 4.25116 15.5113 4.18638C15.6627 4.12159 15.8255 4.0874 15.9902 4.08578ZM14.755 9.34814V9.26242H14.6693H8.00886C7.82048 9.25869 7.63327 9.29298 7.45846 9.36324C7.28337 9.43362 7.12432 9.53865 6.99086 9.672C6.8574 9.80536 6.7523 9.96431 6.68186 10.1393C6.61153 10.314 6.57721 10.5011 6.58095 10.6893V14.6829V14.7686H6.66667L10.672 14.7686L10.6733 14.7686C11.1005 14.7623 11.4144 14.9178 11.6223 15.1491C11.8316 15.382 11.9383 15.6971 11.9383 16.0152C11.9383 16.3333 11.8316 16.6485 11.6223 16.8814C11.4144 17.1127 11.1005 17.2682 10.6733 17.2619V17.2619H10.672H6.66667H6.58095V17.3476V39.9968C6.57739 40.1849 6.61186 40.3718 6.6823 40.5463C6.75285 40.721 6.85802 40.8797 6.99148 41.0128C7.12495 41.1459 7.28396 41.2507 7.45896 41.3208C7.63368 41.3909 7.82074 41.4249 8.00894 41.421H40.0044C40.1925 41.4249 40.3794 41.3909 40.554 41.3208C40.7289 41.2506 40.8877 41.1458 41.021 41.0126C41.1543 40.8795 41.2592 40.7207 41.3294 40.546C41.3995 40.3715 41.4337 40.1846 41.4297 39.9967V17.3476V17.2619H41.344L21.3387 17.2619L21.3374 17.2619C20.9101 17.2682 20.5963 17.1127 20.3884 16.8814C20.179 16.6485 20.0724 16.3333 20.0724 16.0152C20.0724 15.6971 20.179 15.382 20.3884 15.1491C20.5963 14.9178 20.9101 14.7623 21.3374 14.7686H21.3387H41.344H41.4297V14.6829V10.6894C41.4336 10.5013 41.3995 10.3144 41.3295 10.1398C41.2593 9.96489 41.1544 9.80599 41.0212 9.67263C40.888 9.53926 40.7292 9.43418 40.5543 9.36369C40.3797 9.29331 40.1927 9.25886 40.0045 9.26242H33.3413H33.2556V9.34814V10.6875C33.2185 12.3119 30.7975 12.3119 30.7604 10.6875V9.34814V9.26242H30.6747H25.3387H25.253V9.34814L25.2529 10.6885L25.253 10.6904C25.2625 11.1209 25.1076 11.437 24.8758 11.6464C24.6423 11.8573 24.3253 11.9648 24.0053 11.9648C23.6853 11.9648 23.3683 11.8573 23.1349 11.6464C22.9031 11.437 22.7482 11.1209 22.7577 10.6904H22.7577V10.6885V9.34814V9.26242H22.672H17.336H17.2503V9.34814V10.6875C17.2132 12.3119 14.7921 12.3119 14.755 10.6875V9.34814Z" fill="#3FA9F5" stroke="#F2FAFF" stroke-width="0.171429"/>
<path d="M15.0624 15.0731C15.3124 14.8232 15.6516 14.6829 16.0052 14.6829C16.3588 14.6829 16.698 14.8232 16.948 15.0731C17.1981 15.323 17.3385 15.6619 17.3385 16.0152C17.3385 16.3686 17.1981 16.7075 16.948 16.9573C16.698 17.2072 16.3588 17.3476 16.0052 17.3476C15.6516 17.3476 15.3124 17.2072 15.0624 16.9573C14.8124 16.7075 14.6719 16.3686 14.6719 16.0152C14.6719 15.6619 14.8124 15.323 15.0624 15.0731Z" fill="#FFBB0B"/>
<path d="M15.0624 23.0674C15.3124 22.8175 15.6516 22.6771 16.0052 22.6771C16.3588 22.6771 16.698 22.8175 16.948 23.0674C17.1981 23.3172 17.3385 23.6561 17.3385 24.0095C17.3385 24.3628 17.1981 24.7017 16.948 24.9516C16.698 25.2015 16.3588 25.3418 16.0052 25.3418C15.6516 25.3418 15.3124 25.2015 15.0624 24.9516C14.8124 24.7017 14.6719 24.3628 14.6719 24.0095C14.6719 23.6561 14.8124 23.3172 15.0624 23.0674Z" fill="#FFBB0B"/>
<path d="M23.0624 23.0674C23.3124 22.8175 23.6516 22.6771 24.0052 22.6771C24.3588 22.6771 24.698 22.8175 24.948 23.0674C25.1981 23.3172 25.3385 23.6561 25.3385 24.0095C25.3385 24.3628 25.1981 24.7017 24.948 24.9516C24.698 25.2015 24.3588 25.3418 24.0052 25.3418C23.6516 25.3418 23.3124 25.2015 23.0624 24.9516C22.8124 24.7017 22.6719 24.3628 22.6719 24.0095C22.6719 23.6561 22.8124 23.3172 23.0624 23.0674Z" fill="#FFBB0B"/>
<path d="M31.0624 23.0674C31.3124 22.8175 31.6516 22.6771 32.0052 22.6771C32.3588 22.6771 32.698 22.8175 32.948 23.0674C33.1981 23.3172 33.3385 23.6561 33.3385 24.0095C33.3385 24.3628 33.1981 24.7017 32.948 24.9516C32.698 25.2015 32.3588 25.3418 32.0052 25.3418C31.6516 25.3418 31.3124 25.2015 31.0624 24.9516C30.8123 24.7017 30.6719 24.3628 30.6719 24.0095C30.6719 23.6561 30.8123 23.3172 31.0624 23.0674Z" fill="#FFBB0B"/>
<path d="M15.0624 28.3968C15.3124 28.1469 15.6516 28.0065 16.0052 28.0065C16.3588 28.0065 16.698 28.1469 16.948 28.3968C17.1981 28.6466 17.3385 28.9855 17.3385 29.3389C17.3385 29.6923 17.1981 30.0311 16.948 30.281C16.698 30.5309 16.3588 30.6712 16.0052 30.6712C15.6516 30.6712 15.3124 30.5309 15.0624 30.281C14.8124 30.0311 14.6719 29.6923 14.6719 29.3389C14.6719 28.9855 14.8124 28.6466 15.0624 28.3968Z" fill="#FFBB0B"/>
<path d="M23.0624 28.3968C23.3124 28.1469 23.6516 28.0065 24.0052 28.0065C24.3588 28.0065 24.698 28.1469 24.948 28.3968C25.1981 28.6466 25.3385 28.9855 25.3385 29.3389C25.3385 29.6923 25.1981 30.0311 24.948 30.281C24.698 30.5309 24.3588 30.6712 24.0052 30.6712C23.6516 30.6712 23.3124 30.5309 23.0624 30.281C22.8124 30.0311 22.6719 29.6923 22.6719 29.3389C22.6719 28.9855 22.8124 28.6466 23.0624 28.3968Z" fill="#FFBB0B"/>
<path d="M31.0624 28.3968C31.3124 28.1469 31.6516 28.0065 32.0052 28.0065C32.3588 28.0065 32.698 28.1469 32.948 28.3968C33.1981 28.6466 33.3385 28.9855 33.3385 29.3389C33.3385 29.6923 33.1981 30.0311 32.948 30.281C32.698 30.5309 32.3588 30.6712 32.0052 30.6712C31.6516 30.6712 31.3124 30.5309 31.0624 30.281C30.8123 30.0311 30.6719 29.6923 30.6719 29.3389C30.6719 28.9855 30.8123 28.6466 31.0624 28.3968Z" fill="#FFBB0B"/>
<path d="M15.0624 33.7262C15.3124 33.4763 15.6516 33.336 16.0052 33.336C16.3588 33.336 16.698 33.4763 16.948 33.7262C17.1981 33.9761 17.3385 34.3149 17.3385 34.6683C17.3385 35.0217 17.1981 35.3606 16.948 35.6104C16.698 35.8603 16.3588 36.0007 16.0052 36.0007C15.6516 36.0007 15.3124 35.8603 15.0624 35.6104C14.8124 35.3606 14.6719 35.0217 14.6719 34.6683C14.6719 34.3149 14.8124 33.9761 15.0624 33.7262Z" fill="#FFBB0B"/>
<path d="M23.0624 33.7262C23.3124 33.4763 23.6516 33.336 24.0052 33.336C24.3588 33.336 24.698 33.4763 24.948 33.7262C25.1981 33.9761 25.3385 34.3149 25.3385 34.6683C25.3385 35.0217 25.1981 35.3606 24.948 35.6104C24.698 35.8603 24.3588 36.0007 24.0052 36.0007C23.6516 36.0007 23.3124 35.8603 23.0624 35.6104C22.8124 35.3606 22.6719 35.0217 22.6719 34.6683C22.6719 34.3149 22.8124 33.9761 23.0624 33.7262Z" fill="#FFBB0B"/>
<path d="M31.0624 33.7262C31.3124 33.4763 31.6516 33.336 32.0052 33.336C32.3588 33.336 32.698 33.4763 32.948 33.7262C33.1981 33.9761 33.3385 34.3149 33.3385 34.6683C33.3385 35.0217 33.1981 35.3606 32.948 35.6104C32.698 35.8603 32.3588 36.0007 32.0052 36.0007C31.6516 36.0007 31.3124 35.8603 31.0624 35.6104C30.8123 35.3606 30.6719 35.0217 30.6719 34.6683C30.6719 34.3149 30.8123 33.9761 31.0624 33.7262Z" fill="#FFBB0B"/>
</svg>
