<svg width="48" height="48" viewBox="0 0 48 48" fill="none" xmlns="http://www.w3.org/2000/svg">
<path d="M24 4C16.2804 4 10 10.3084 10 18.0625C10 20.6823 10.7225 23.2391 12.0898 25.4572L23.2031 43.446C23.416 43.7906 23.791 44 24.1944 44C24.1975 44 24.2005 44 24.2036 44C24.6105 43.9968 24.9863 43.7809 25.1953 43.4303L36.0253 25.2672C37.3172 23.0959 38 20.6046 38 18.0625C38 10.3084 31.7196 4 24 4ZM34.0229 24.0639L24.1767 40.577L14.073 24.2223C12.9349 22.3761 12.3178 20.2461 12.3178 18.0625C12.3178 11.6008 17.567 6.32812 24 6.32812C30.433 6.32812 35.6744 11.6008 35.6744 18.0625C35.6744 20.1813 35.098 22.2569 34.0229 24.0639Z" fill="#3FA9F5"/>
<path d="M23.998 11.0312C20.1382 11.0312 16.998 14.1855 16.998 18.0625C16.998 21.9148 20.0871 25.0937 23.998 25.0937C27.9572 25.0937 30.998 21.8724 30.998 18.0625C30.998 14.1855 27.8578 11.0312 23.998 11.0312ZM23.998 22.7656C21.4114 22.7656 19.3158 20.6537 19.3158 18.0625C19.3158 15.4778 21.4248 13.3594 23.998 13.3594C26.5712 13.3594 28.6725 15.4778 28.6725 18.0625C28.6725 20.6159 26.6257 22.7656 23.998 22.7656Z" fill="#FFBB0B"/>
</svg>
