<svg width="260" height="65" viewBox="0 0 260 65" fill="none" xmlns="http://www.w3.org/2000/svg">
<path d="M24.0796 47.9999C37.3344 47.9999 48.0796 37.2547 48.0796 23.9999C48.0796 10.7451 37.3344 0 24.0796 0C10.8248 0 0.0795898 10.7451 0.0795898 23.9999C0.0795898 37.2547 10.8248 47.9999 24.0796 47.9999Z" fill="#F6C220"/>
<path d="M24.08 45.5046C35.9567 45.5046 45.5848 35.8766 45.5848 23.9998C45.5848 12.1231 35.9567 2.49512 24.08 2.49512C12.2032 2.49512 2.5752 12.1231 2.5752 23.9998C2.5752 35.8766 12.2032 45.5046 24.08 45.5046Z" fill="#29ABE2"/>
<path d="M24.08 45.5046C35.9567 45.5046 45.5848 35.8766 45.5848 23.9998C45.5848 12.1231 35.9567 2.49512 24.08 2.49512C12.2032 2.49512 2.5752 12.1231 2.5752 23.9998C2.5752 35.8766 12.2032 45.5046 24.08 45.5046Z" fill="#29ABE2"/>
<path d="M10.8562 39.0762C10.8562 39.1389 10.4743 39.186 10.0035 39.186C9.53275 39.186 9.15088 39.1389 9.15088 39.0762C9.15088 39.0134 9.53275 38.9663 10.0035 38.9663C10.4743 38.9663 10.8562 39.0134 10.8562 39.0762Z" fill="white"/>
<path d="M8.28268 36.612C8.28268 36.612 8.41346 36.6853 8.38731 36.8474C8.36115 37.0096 8.32974 37.1142 8.39775 37.1508C8.46575 37.1875 8.74823 37.0044 8.85808 36.8579C8.96793 36.7114 8.93657 36.5127 9.10919 36.5022C9.28182 36.4917 9.37075 36.8684 9.60091 36.8684C9.83108 36.8684 9.77877 36.5283 9.96185 36.5074C10.1449 36.4865 10.2443 37.0044 10.4797 37.1247C10.7151 37.245 10.757 37.4072 10.7779 37.5379C10.7936 37.6635 10.7674 37.7838 10.8459 37.8779C10.9244 37.9721 10.9348 38.1133 10.9348 38.1133C10.9348 38.1133 10.9243 38.0401 10.8825 37.9826C10.8406 37.9198 10.825 37.8832 10.825 37.8832C10.825 37.8832 10.825 37.9303 10.8668 37.9878C10.9087 38.0453 10.9191 38.1081 10.9191 38.1081C10.9191 38.1081 10.8877 38.0244 10.8511 37.993C10.8145 37.9564 10.7674 37.8361 10.7674 37.789C10.7674 37.789 10.7517 37.9983 10.7831 38.0924C10.8145 38.1866 10.893 38.3069 10.8721 38.4115C10.8511 38.5161 10.7151 38.9032 10.7256 38.9712C10.7308 39.0392 10.7517 39.0392 10.6994 39.0549C10.6523 39.0654 10.5529 39.0706 10.5634 39.0288C10.5686 38.9869 10.668 38.7829 10.6994 38.6574C10.7308 38.5318 10.7047 38.3854 10.6733 38.3121C10.6419 38.2337 10.5739 38.0663 10.5739 38.0663L10.5006 38.0087C10.5006 38.0087 10.4745 38.1447 10.4954 38.3121C10.5216 38.4795 10.5059 38.4795 10.464 38.5318C10.4222 38.5841 10.1868 38.8928 10.1711 38.9451C10.1502 39.0026 10.1659 39.034 10.1135 39.0497C10.0612 39.0654 9.92 39.034 9.92 39.034C9.92 39.034 9.93046 38.9869 9.98277 38.966C10.0351 38.9451 10.3228 38.6155 10.3228 38.4377C10.3228 38.2598 10.3071 38.1029 10.2966 38.0872C10.2914 38.0715 10.1972 37.9564 10.1972 37.857L10.1345 37.8413C10.1345 37.8413 10.0142 37.9721 9.76307 38.0192C9.51198 38.0663 9.36552 37.9878 9.30798 37.9826C9.25043 37.9773 9.16673 37.9983 9.16673 37.9983C9.16673 37.9983 9.28703 38.354 9.28703 38.3854C9.28703 38.4167 9.30798 38.9032 9.30798 38.9294C9.30798 38.9555 9.33411 38.9922 9.31842 39.0183C9.30272 39.0445 9.12488 39.0235 9.13534 39.0026C9.1458 38.9817 9.20335 38.9451 9.20858 38.9137C9.21382 38.8823 9.22427 38.7463 9.20335 38.6364C9.18242 38.5266 9.13011 38.4743 9.13011 38.4743C9.13011 38.4743 9.10395 38.6312 9.09348 38.7044C9.08825 38.7777 9.07778 38.9398 9.08301 38.9817C9.08824 39.0235 9.10919 39.0759 9.07781 39.0863C9.04642 39.0968 8.86856 39.0811 8.87903 39.0549C8.88949 39.034 8.95226 38.966 8.94703 38.9346C8.94703 38.9032 8.97319 38.8771 8.97842 38.8509C8.98365 38.8248 9.00979 38.6051 8.99409 38.5684C8.9784 38.5318 8.97319 38.4586 8.97842 38.4063C8.98888 38.354 8.95224 38.1447 8.92609 38.1029C8.89993 38.061 8.84763 38.0244 8.83193 37.9669C8.81624 37.9093 8.82146 37.8832 8.82146 37.8832C8.82146 37.8832 8.70115 37.8518 8.66454 37.7315L8.50761 37.721C8.50761 37.721 8.41346 37.8204 8.21991 37.7419C8.02636 37.6635 7.95837 37.4961 7.90082 37.3078C7.84328 37.1194 7.92697 37.0148 7.92174 36.9521C7.92174 36.8893 7.82757 36.9625 7.7491 36.837C7.7491 36.837 7.67065 36.8474 7.6288 36.7899C7.6288 36.7899 7.58695 36.7951 7.56079 36.7794C7.53464 36.7637 7.49804 36.8056 7.47711 36.7899C7.45619 36.769 7.50325 36.7219 7.52941 36.7167C7.52941 36.7167 7.52418 36.7062 7.49802 36.7114C7.47187 36.7114 7.46141 36.701 7.46664 36.6643C7.47187 36.6277 7.52941 36.612 7.52941 36.5911C7.53464 36.5702 7.59218 36.5388 7.62356 36.5283C7.65495 36.5231 7.82234 36.544 7.88512 36.5283C7.94789 36.5127 8.01588 36.4708 8.07343 36.476C8.13097 36.4813 8.17805 36.5388 8.17805 36.5388C8.17805 36.5388 8.25129 36.5179 8.28268 36.5231C8.28791 36.5179 8.29837 36.5754 8.28268 36.612Z" fill="white"/>
<path d="M8.61125 21.1068C9.42884 21.1068 10.0916 20.444 10.0916 19.6264C10.0916 18.8088 9.42884 18.146 8.61125 18.146C7.79366 18.146 7.13086 18.8088 7.13086 19.6264C7.13086 20.444 7.79366 21.1068 8.61125 21.1068Z" fill="white"/>
<mask id="mask0_2462_7268" style="mask-type:luminance" maskUnits="userSpaceOnUse" x="2" y="2" width="44" height="44">
<path d="M24.0785 45.5036C35.9553 45.5036 45.5833 35.8756 45.5833 23.9989C45.5833 12.1221 35.9553 2.49414 24.0785 2.49414C12.2017 2.49414 2.57373 12.1221 2.57373 23.9989C2.57373 35.8756 12.2017 45.5036 24.0785 45.5036Z" fill="white"/>
</mask>
<g mask="url(#mask0_2462_7268)">
<path d="M-6.5737 41.8904C-7.22235 42.2566 -7.87098 42.6385 -8.51439 43.0413L-8.51963 42.9628C-8.51963 42.9366 -8.59285 42.9523 -8.67132 43.0047C-9.61814 43.601 -10.5545 44.2392 -11.4804 44.8983C-11.5589 44.9558 -11.6216 45.0238 -11.6164 45.0448L-11.5379 45.4894C-11.5327 45.5155 -11.4647 45.4946 -11.3862 45.4475C-10.4551 44.9192 -9.51876 44.438 -8.58763 44.0142C-8.50917 43.9776 -8.44116 43.9253 -8.44639 43.8939L-8.45162 43.8155C-7.81867 43.5278 -7.18048 43.261 -6.55275 43.0256C-6.47429 42.9942 -6.4063 42.9471 -6.4063 42.9105V42.8216C-5.77335 42.5809 -5.1404 42.3717 -4.5179 42.1886C-4.43944 42.1677 -4.37142 42.1154 -4.37142 42.084L-4.36618 41.9898C-3.73846 41.8067 -3.11596 41.6498 -2.4987 41.519C-2.42023 41.5034 -2.35224 41.4563 -2.34701 41.4197L-2.33654 41.315C-1.71404 41.1843 -1.10201 41.0849 -0.500439 41.0064C-0.421973 40.9959 -0.353981 40.9541 -0.34875 40.9122L-0.333074 40.7972C0.273726 40.7239 0.875298 40.6769 1.4664 40.6559C1.53964 40.6559 1.61289 40.6141 1.61812 40.567L1.64427 40.4415C2.23538 40.4205 2.82127 40.431 3.39145 40.4676C3.46469 40.4728 3.53269 40.4362 3.54838 40.3891L3.585 40.2531C4.16041 40.2898 4.72536 40.3525 5.27462 40.4467C5.34262 40.4571 5.41585 40.4258 5.43154 40.3735L5.47863 40.2322C6.03312 40.3264 6.57714 40.4415 7.10024 40.5879C7.16825 40.6088 7.23624 40.5775 7.25717 40.5199L7.3095 40.3735C7.83783 40.5199 8.35568 40.6925 8.85786 40.8913C8.92064 40.9175 8.9939 40.8913 9.01482 40.8338L9.08279 40.6769C9.58497 40.8756 10.0767 41.1006 10.5423 41.3517C10.5998 41.383 10.673 41.3621 10.7044 41.2993L10.7829 41.1372C11.2537 41.3883 11.714 41.6707 12.143 41.9794C12.2005 42.0212 12.2685 42.0003 12.3051 41.9375L12.3941 41.7701C12.8282 42.0788 13.2415 42.4188 13.6234 42.785C13.6704 42.832 13.7437 42.8216 13.7803 42.7588L15.041 40.7239C15.0776 40.6612 15.0514 40.5879 14.9834 40.567C14.4289 40.3735 13.8692 40.2218 13.2938 40.091L13.3827 39.9236C13.4141 39.8608 13.3827 39.798 13.3095 39.7823C12.7341 39.662 12.1482 39.5679 11.5571 39.4999L11.6355 39.3377C11.6617 39.2802 11.6251 39.2226 11.5519 39.2122C10.9555 39.1494 10.3539 39.1075 9.74715 39.0919L9.80992 38.9349C9.83607 38.8774 9.78899 38.8303 9.71053 38.8251C9.09849 38.8146 8.48125 38.8251 7.86399 38.8512L7.91628 38.7048C7.93721 38.6472 7.89015 38.6054 7.80645 38.6106C7.17873 38.6472 6.55098 38.7048 5.91802 38.7885L5.96512 38.6472C5.98081 38.5949 5.92848 38.5583 5.85002 38.574C5.21183 38.6629 4.57366 38.7675 3.93547 38.8931L3.97209 38.7623C3.98779 38.71 3.93025 38.6838 3.84655 38.7048C3.20313 38.8408 2.55447 38.9977 1.90583 39.1703L1.93197 39.0448C1.94244 38.9977 1.87966 38.982 1.8012 39.0029C1.14732 39.186 0.498675 39.39 -0.155204 39.615L-0.139496 39.4999C-0.134265 39.458 -0.197047 39.4476 -0.280745 39.4737C-0.934624 39.7039 -1.5885 39.955 -2.24238 40.227L-2.23191 40.1224C-2.22668 40.0805 -2.2947 40.0805 -2.3784 40.1171C-3.03228 40.3944 -3.69139 40.6925 -4.34003 41.0064L-4.3348 40.9122C-4.3348 40.8756 -4.39759 40.8809 -4.48128 40.9227C-5.13516 41.247 -5.78904 41.587 -6.43769 41.948V41.8591C-6.42199 41.8329 -6.49 41.8434 -6.5737 41.8904Z" fill="white"/>
<path d="M6.1314 33.7408C6.07386 33.406 6.03722 33.0712 6.0163 32.7312H6.05816C6.07385 32.7312 6.0843 32.6946 6.07907 32.6527C6.04768 32.1558 6.05293 31.6536 6.10001 31.1514C6.10525 31.1096 6.09477 31.073 6.08431 31.0677L5.83323 31.0259C5.82276 31.0259 5.80183 31.0573 5.79137 31.0991C5.67629 31.6013 5.59259 32.1139 5.53505 32.637C5.52982 32.6841 5.54027 32.7207 5.55597 32.7207H5.59782C5.56644 33.0712 5.54552 33.4269 5.54029 33.7826C5.54029 33.8297 5.55075 33.8663 5.57167 33.8611L5.61874 33.8559C5.61874 34.2116 5.63444 34.5673 5.66059 34.923C5.66582 34.9701 5.68153 35.0015 5.70245 35.0015L5.74951 34.991C5.7809 35.3467 5.82798 35.6972 5.88552 36.0477C5.89075 36.0947 5.91692 36.1261 5.93262 36.1209L5.98491 36.1052C6.04769 36.4557 6.12615 36.8009 6.20985 37.1462C6.22031 37.188 6.24649 37.2194 6.26741 37.2142L6.31971 37.1933C6.40864 37.5385 6.51327 37.8785 6.62835 38.2133C6.64405 38.2552 6.6702 38.2813 6.69112 38.2761L6.74342 38.2499C6.8585 38.5847 6.98927 38.9195 7.12528 39.249C7.14097 39.2909 7.17236 39.317 7.19328 39.3014L7.25082 39.27C7.39205 39.5943 7.53855 39.9186 7.70071 40.2377C7.72163 40.2796 7.753 40.3005 7.77392 40.2848L7.83149 40.2482C7.99365 40.5673 8.16103 40.8759 8.33888 41.1898C8.35981 41.2316 8.39644 41.2473 8.41736 41.2316L8.47489 41.1898C8.65275 41.4984 8.83583 41.8018 9.02938 42.1C9.05554 42.1366 9.09217 42.1523 9.1131 42.1366L9.17063 42.0895C9.36418 42.3877 9.56297 42.6806 9.76698 42.9735C9.79313 43.0102 9.82974 43.0258 9.85589 43.0049L9.91343 42.9526C10.1174 43.2403 10.3319 43.528 10.5464 43.8105C10.5726 43.8471 10.6144 43.8576 10.6353 43.8367L10.6928 43.7791L11.0172 44.1976C11.127 44.3388 11.2317 44.4748 11.3363 44.6108C11.3624 44.6475 11.3991 44.6527 11.4252 44.6318L12.168 43.8733C12.1889 43.8523 12.1785 43.8105 12.1419 43.7843L11.7129 43.4809C11.5717 43.3816 11.4304 43.2822 11.2944 43.1775L11.352 43.12C11.3729 43.0991 11.3624 43.0572 11.3258 43.0311C11.0486 42.8271 10.7766 42.6231 10.5098 42.4034L10.5673 42.351C10.5882 42.3301 10.5778 42.2935 10.5464 42.2673C10.2796 42.0529 10.0181 41.8332 9.76698 41.603L9.82451 41.5559C9.84543 41.535 9.83495 41.4984 9.80357 41.4722C9.55248 41.2421 9.3014 41.0067 9.066 40.766L9.12354 40.7242C9.14446 40.7085 9.13925 40.6719 9.10786 40.6405C8.87246 40.3999 8.63706 40.1488 8.41736 39.8872L8.47489 39.8506C8.49582 39.8349 8.49058 39.7983 8.46442 39.7669C8.24472 39.5106 8.03027 39.2438 7.83149 38.9666L7.88902 38.9352C7.90994 38.9247 7.9047 38.8881 7.87855 38.8515C7.67977 38.5795 7.48624 38.297 7.30838 38.0093L7.36592 37.9831C7.38684 37.9727 7.38683 37.9361 7.36068 37.8994C7.18282 37.6117 7.01542 37.3136 6.86372 37.0102L6.91605 36.9892C6.93698 36.984 6.93698 36.9422 6.91605 36.9056C6.76435 36.6022 6.62833 36.2935 6.50278 35.9797L6.55511 35.964C6.57604 35.9587 6.57604 35.9221 6.56035 35.8803C6.44003 35.5664 6.33016 35.2421 6.24123 34.9178L6.28832 34.9073C6.30402 34.9021 6.30926 34.8654 6.2988 34.8236C6.20987 34.4993 6.13661 34.1697 6.07907 33.8349L6.12616 33.8297C6.13139 33.814 6.13663 33.7826 6.1314 33.7408Z" fill="white"/>
<path d="M8.48653 28.6406C8.4656 28.6458 8.51266 28.6982 8.55974 28.7505C8.60682 28.8028 8.64867 28.8551 8.62774 28.8603C8.52835 28.876 8.42897 28.8969 8.34004 28.9231L8.27204 28.9388L8.24065 28.9492L8.20927 28.9597L8.07849 29.0016C8.02618 29.0172 7.95297 29.0277 7.86927 29.0382C7.78557 29.0486 7.69662 29.0591 7.61292 29.0696C7.44553 29.0905 7.30429 29.1219 7.31998 29.1323C7.39845 29.1899 7.51879 29.1899 7.60772 29.1846C7.69664 29.1794 7.75417 29.1689 7.72278 29.1899C7.4717 29.3468 7.26246 29.5247 7.07938 29.6973C7.05322 29.7234 6.95383 29.7705 6.84921 29.8228C6.74982 29.8751 6.6452 29.9379 6.62428 29.9641C6.59812 29.9954 6.64518 29.9955 6.69749 29.9902C6.7498 29.985 6.79689 29.985 6.77073 30.0111C6.47256 30.3407 6.27378 30.6075 6.143 30.7853C6.01223 30.9632 5.94422 31.0521 5.94422 31.0521C5.94422 31.0521 5.93899 31.005 5.94422 30.9109C5.94945 30.8167 5.95994 30.665 6.00702 30.461C6.0541 30.257 6.13255 30.0007 6.28425 29.6921C6.36272 29.5404 6.45687 29.373 6.57719 29.2003C6.6975 29.0277 6.84397 28.8446 7.03228 28.672C7.0689 28.6354 6.98523 28.8028 6.92245 28.9702C6.85968 29.1376 6.81258 29.2997 6.83874 29.2631C6.87012 29.2265 6.97998 28.9859 7.13691 28.7505C7.21538 28.6354 7.30429 28.5203 7.38275 28.4366C7.46122 28.3529 7.52923 28.2901 7.55015 28.2744C7.61292 28.2378 7.67569 28.2012 7.7437 28.1698C7.8117 28.1384 7.87449 28.1071 7.95295 28.0809C7.98434 28.0704 7.94772 28.1018 7.89018 28.1541C7.83264 28.2064 7.7594 28.2797 7.68616 28.3581C7.54493 28.5151 7.4403 28.6825 7.48215 28.6511C7.5083 28.6354 7.68618 28.4157 7.93204 28.2431C7.94773 28.2326 7.96341 28.2221 7.9791 28.2117L8.02619 28.1803C8.05758 28.1594 8.08896 28.1437 8.12035 28.1227C8.18312 28.0861 8.24067 28.0547 8.29298 28.0286C8.3976 27.9763 8.47083 27.9449 8.48653 27.9449C8.52838 27.9397 8.56498 27.9344 8.60683 27.9292C8.79515 27.903 8.97301 27.8926 9.14041 27.8926C9.19795 27.8926 9.04624 27.9658 8.905 28.0495C8.75854 28.1332 8.62253 28.2221 8.67484 28.2169C8.71669 28.2117 8.95732 28.1175 9.20318 28.0443C9.44904 27.971 9.70011 27.9083 9.74196 27.9135C9.99828 27.9397 10.2337 27.9763 10.4429 28.0286C10.49 28.039 10.4168 28.0704 10.3435 28.1071C10.2703 28.1437 10.1971 28.1751 10.2389 28.1855C10.2755 28.196 10.422 28.1751 10.5737 28.1646C10.7254 28.1541 10.8719 28.1489 10.9085 28.1594C11.0497 28.2064 11.1805 28.2588 11.2904 28.3111C11.327 28.3268 11.2276 28.3424 11.1282 28.3581C11.0288 28.3738 10.9346 28.3948 10.9608 28.4104C11.0079 28.4314 11.1805 28.4471 11.3531 28.4732C11.5205 28.4994 11.6879 28.536 11.7245 28.5569C11.9129 28.6877 11.9809 28.7819 11.9809 28.7766C11.9809 28.7766 11.871 28.7714 11.6565 28.7609C11.6304 28.7609 11.4839 28.6877 11.3217 28.6249C11.1648 28.5621 10.9974 28.5098 10.966 28.5151C10.9451 28.5151 11.055 28.5726 11.1596 28.6302C11.2642 28.6877 11.3636 28.7505 11.3427 28.7505C11.2014 28.7452 11.0288 28.7452 10.8405 28.7452C10.8091 28.7452 10.6417 28.6615 10.4638 28.5883C10.286 28.5151 10.1029 28.4471 10.0663 28.4523C10.0297 28.4575 10.1448 28.5255 10.2546 28.5988C10.3645 28.672 10.4691 28.7452 10.4325 28.7452L10.2598 28.7505C10.2284 28.7505 10.0244 28.6668 9.82044 28.5988C9.62166 28.5308 9.42289 28.4785 9.43858 28.4941C9.49089 28.5674 9.62166 28.6302 9.72628 28.6772C9.8309 28.7243 9.91459 28.7557 9.88321 28.7557C9.62165 28.7662 9.33394 28.7766 9.02531 28.808C8.97823 28.8132 8.86316 28.7609 8.74808 28.7191C8.65915 28.6668 8.53884 28.6302 8.48653 28.6406Z" fill="white"/>
<path d="M8.42968 30.5244C8.41398 30.5191 8.42969 30.5871 8.44015 30.6499C8.45061 30.7127 8.46108 30.7807 8.45062 30.7754C8.30415 30.7388 8.15243 30.7127 8.00596 30.6761C7.91704 30.6551 7.79673 30.5557 7.68688 30.472C7.57703 30.3884 7.48286 30.3256 7.48286 30.3413C7.50379 30.4407 7.57703 30.5087 7.62935 30.5557C7.68166 30.6028 7.7235 30.629 7.69212 30.6237C7.47764 30.6028 7.28411 30.6028 7.11671 30.6185C7.09579 30.6185 7.0173 30.5924 6.93361 30.5714C6.84991 30.5505 6.76099 30.5401 6.74006 30.5453C6.71391 30.5557 6.75054 30.5819 6.78716 30.6081C6.82377 30.6342 6.86037 30.6604 6.83422 30.6656C6.55174 30.7336 6.35297 30.8644 6.22219 30.9585C6.15942 31.0056 6.1071 31.0475 6.07571 31.0736L6.02865 31.1155C6.02865 31.1155 6.02342 31.0788 6.03389 31.0056C6.04435 30.9324 6.06004 30.8173 6.13328 30.6604C6.16989 30.5871 6.2222 30.4982 6.2902 30.4145C6.36344 30.3256 6.45235 30.2367 6.56743 30.153C6.79759 29.9856 7.12715 29.8496 7.51425 29.8025C7.55086 29.7972 7.42534 29.8757 7.31026 29.9646C7.19518 30.0536 7.09577 30.153 7.13239 30.1425C7.14808 30.1373 7.2004 30.1059 7.27364 30.064C7.34687 30.0222 7.44104 29.9751 7.54043 29.928C7.73921 29.8391 7.94844 29.7763 7.99029 29.7816C8.09491 29.7868 8.19428 29.792 8.2989 29.8077C8.34075 29.8129 8.18382 29.8652 8.03735 29.928C7.89088 29.9908 7.75489 30.064 7.79151 30.064C7.81243 30.064 8.01645 29.996 8.23093 29.9489C8.4454 29.9019 8.66507 29.8757 8.69123 29.8809C8.72262 29.8862 8.74879 29.8966 8.78018 29.9019C8.91619 29.9385 9.04172 29.9803 9.16204 30.0274C9.20388 30.0431 9.07312 30.0693 8.94234 30.1006C8.81156 30.132 8.68603 30.1739 8.72265 30.1843C8.75403 30.1948 8.94758 30.1791 9.14636 30.1843C9.34514 30.1843 9.54389 30.2 9.57528 30.2157C9.7479 30.3099 9.89963 30.4145 10.0304 30.5139C10.0618 30.5348 9.99378 30.5453 9.92578 30.5557C9.85777 30.5662 9.795 30.5819 9.82115 30.6028C9.84208 30.6185 9.95191 30.6447 10.067 30.6761C10.1768 30.7074 10.2867 30.7441 10.3076 30.7598C10.3913 30.8435 10.4593 30.9219 10.5169 30.9952C10.5326 31.0213 10.4593 31.0056 10.3809 30.9952C10.3024 30.9847 10.2239 30.9795 10.2396 30.9952C10.2658 31.0265 10.3809 31.0841 10.4907 31.1521C10.6006 31.2149 10.7104 31.2881 10.7209 31.3142C10.7993 31.4712 10.8098 31.5601 10.8098 31.5601C10.8098 31.5601 10.7261 31.5287 10.5744 31.4712C10.5535 31.4659 10.4802 31.3666 10.3966 31.2724C10.3129 31.1782 10.2187 31.0893 10.1926 31.0841C10.1769 31.0788 10.2292 31.1573 10.2762 31.2358C10.3233 31.3142 10.3652 31.3927 10.3495 31.3875L9.99899 31.2567C9.97806 31.2515 9.8996 31.1364 9.80544 31.0213C9.71652 30.9115 9.61714 30.8016 9.59098 30.7911C9.56483 30.7859 9.61714 30.8801 9.65899 30.9742C9.70607 31.0684 9.74268 31.1625 9.71652 31.1521L9.60146 31.1102C9.58053 31.105 9.47591 30.9742 9.36605 30.8591C9.2562 30.7441 9.14636 30.6394 9.14636 30.6604C9.15682 30.7441 9.21959 30.8382 9.2719 30.9115C9.32421 30.9847 9.36603 31.0318 9.34511 31.0265C9.16725 30.9638 8.9685 30.901 8.75403 30.8382C8.71741 30.8278 8.65985 30.7493 8.60231 30.6708C8.53431 30.6081 8.46629 30.5348 8.42968 30.5244Z" fill="white"/>
<path d="M8.09996 32.4321C8.0895 32.4217 8.07379 32.4844 8.0581 32.5472C8.04241 32.61 8.0267 32.6728 8.01101 32.6623C7.89592 32.5734 7.77562 32.4897 7.66577 32.3903C7.59777 32.3327 7.54021 32.1863 7.4879 32.0607C7.43559 31.9352 7.39898 31.8306 7.39375 31.8463C7.35713 31.9404 7.37806 32.0346 7.39898 32.1078C7.41991 32.1758 7.44605 32.2229 7.4199 32.202L6.93341 31.8463C6.91249 31.8306 6.87064 31.7521 6.82879 31.6789C6.78694 31.6004 6.73989 31.5272 6.72419 31.5115C6.67711 31.4749 6.72941 31.6893 6.68233 31.6579C6.43125 31.4696 6.24817 31.3179 6.13308 31.2133C6.01277 31.1087 5.96045 31.0459 5.96045 31.0459C5.96045 31.0459 6.09122 31.0145 6.37893 31.0407C6.52016 31.0511 6.70324 31.0773 6.92818 31.1348C7.15311 31.1924 7.41466 31.2761 7.71283 31.4173C7.74422 31.433 7.61344 31.4382 7.48267 31.4539C7.35189 31.4644 7.22635 31.4853 7.25774 31.4958C7.28912 31.5062 7.47746 31.5167 7.66577 31.5376C7.85409 31.5586 8.04763 31.5847 8.07901 31.6004C8.15748 31.6423 8.23595 31.6893 8.30918 31.7416C8.34057 31.7626 8.1941 31.7521 8.04763 31.7469C7.90116 31.7416 7.75993 31.7469 7.79131 31.7626C7.80701 31.773 8.00056 31.7992 8.19411 31.841C8.38766 31.8776 8.58119 31.93 8.60212 31.9456L8.66489 31.998C8.76428 32.0764 8.85321 32.1601 8.93691 32.2386C8.9683 32.2647 8.84276 32.2491 8.71722 32.2334C8.59167 32.2177 8.47133 32.2124 8.49749 32.2386C8.51841 32.2595 8.69104 32.3118 8.86367 32.3798C9.03629 32.4426 9.20369 32.5263 9.22461 32.5472C9.33969 32.6885 9.43387 32.8297 9.50711 32.9657C9.5228 32.9971 9.46002 32.9814 9.39724 32.9709C9.33447 32.9605 9.27169 32.95 9.28738 32.9762C9.29784 32.9971 9.38676 33.0546 9.47569 33.1174C9.56462 33.1802 9.64833 33.2482 9.65356 33.2691C9.69541 33.3685 9.72156 33.4626 9.74248 33.5463C9.74771 33.5725 9.68494 33.5359 9.61694 33.4993C9.55417 33.4626 9.48617 33.4313 9.4914 33.4522C9.50186 33.4888 9.58033 33.5777 9.65356 33.6719C9.7268 33.766 9.79481 33.8602 9.79481 33.8916C9.80004 34.0538 9.78434 34.1374 9.78434 34.1374C9.78434 34.1374 9.71632 34.0904 9.60647 33.991C9.59077 33.9805 9.56463 33.8707 9.52278 33.7608C9.48617 33.651 9.43908 33.5411 9.41816 33.5306C9.4077 33.5202 9.4234 33.6091 9.43387 33.6928C9.44433 33.7765 9.44956 33.8602 9.4391 33.8497L9.17755 33.6248C9.16186 33.6091 9.13569 33.4836 9.10431 33.3528C9.06769 33.222 9.02584 33.0912 9.00492 33.0808C8.98399 33.0651 8.98921 33.1697 8.99444 33.2639C8.99444 33.3633 8.98923 33.4574 8.97353 33.4417L8.88982 33.3685C8.87412 33.3528 8.8323 33.2063 8.78522 33.0651C8.73814 32.9239 8.68058 32.7931 8.67012 32.814C8.64397 32.8925 8.6649 32.9971 8.6806 33.0808C8.69629 33.1645 8.7172 33.222 8.70151 33.2063C8.57073 33.0965 8.42428 32.9762 8.26212 32.8454C8.23596 32.8245 8.22027 32.7303 8.19411 32.6361C8.1575 32.5524 8.13134 32.4531 8.09996 32.4321Z" fill="white"/>
<path d="M4.3432 31.6637C4.34843 31.6533 4.29614 31.6271 4.2386 31.601C4.18106 31.5748 4.12351 31.5486 4.13398 31.5382C4.21767 31.4493 4.30661 31.3656 4.406 31.3028C4.46877 31.2662 4.60476 31.2766 4.71461 31.2976C4.77215 31.308 4.81402 31.3237 4.8611 31.3289C4.88202 31.3342 4.89246 31.3394 4.90292 31.3394C4.91338 31.3394 4.9134 31.3394 4.9134 31.3394C4.8977 31.3185 4.88199 31.3028 4.8663 31.2871C4.85584 31.2766 4.85062 31.2714 4.84539 31.2662C4.83493 31.2609 4.82447 31.2557 4.814 31.2505C4.79308 31.24 4.77216 31.2348 4.75123 31.2295C4.73554 31.2243 4.71983 31.2191 4.70414 31.2139C4.64137 31.1982 4.59954 31.1982 4.62569 31.1825C4.64662 31.172 4.6623 31.1615 4.68323 31.1511C4.69892 31.1459 4.73032 31.1249 4.76171 31.1145L4.85586 31.0831C4.91863 31.0622 4.98663 31.0412 5.04941 31.0203C5.0651 31.0151 5.13833 31.036 5.21157 31.0569C5.27957 31.0779 5.34757 31.1092 5.36849 31.104C5.38942 31.104 5.36326 31.0674 5.33187 31.036C5.30049 31.0046 5.2691 30.9732 5.29525 30.968C5.42603 30.9523 5.55158 30.9628 5.66143 30.9994C5.76605 31.036 5.82883 31.0988 5.86545 31.1511C5.90207 31.2086 5.91775 31.2557 5.92298 31.2871C5.92821 31.3185 5.92822 31.3342 5.92822 31.3342C5.92822 31.3342 5.9073 31.3289 5.86545 31.3237C5.8236 31.3185 5.76605 31.3185 5.69805 31.3499C5.66666 31.3656 5.63529 31.3865 5.60913 31.4126C5.57775 31.4388 5.54635 31.4702 5.5045 31.512L5.35802 31.648C5.33187 31.6742 5.30048 31.7003 5.26387 31.7317C5.24817 31.7474 5.22726 31.7631 5.20633 31.7788L5.17495 31.805L5.15924 31.8154C5.15401 31.8154 5.15403 31.8207 5.15403 31.8207C5.15403 31.8207 5.15403 31.8207 5.1488 31.8102C5.14357 31.805 5.13833 31.7945 5.14356 31.7736L5.17495 31.6376C5.19587 31.5382 5.21155 31.444 5.19586 31.4545C5.1854 31.4597 5.16972 31.4963 5.1488 31.5434L5.11218 31.6219L5.09126 31.669L5.08603 31.6794L5.08079 31.6847C5.08079 31.6899 5.08079 31.6951 5.08079 31.7003V31.7108C5.08079 31.716 5.08079 31.716 5.07556 31.7213L5.07032 31.7422L5.05988 31.784L5.03893 31.8625C5.02847 31.9096 5.01802 31.941 5.01279 31.9462C4.9814 31.9776 4.95002 32.009 4.91863 32.0404C4.90817 32.0561 4.89769 31.9567 4.90292 31.852C4.90815 31.7527 4.91862 31.6428 4.90292 31.6585C4.89246 31.6637 4.85584 31.7945 4.83492 31.9148C4.81399 32.0404 4.81399 32.1554 4.80353 32.1607L4.77738 32.1868C4.74077 32.2287 4.70414 32.2705 4.67276 32.3124C4.66229 32.3281 4.6309 32.2496 4.60475 32.1659C4.57859 32.0822 4.56815 31.9933 4.55245 32.0037C4.54199 32.0142 4.52631 32.1293 4.53678 32.2391C4.54201 32.349 4.56816 32.4431 4.56292 32.4536C4.51585 32.5164 4.474 32.5739 4.43215 32.6315C4.42169 32.6419 4.39029 32.6158 4.35367 32.5844C4.31705 32.553 4.28569 32.5164 4.27522 32.5268C4.26476 32.5373 4.28045 32.6001 4.30137 32.6524C4.3223 32.7099 4.34843 32.757 4.3432 32.7675C4.31704 32.8146 4.29091 32.8564 4.26999 32.9035C4.26476 32.9192 4.22289 32.8878 4.18627 32.8512C4.14966 32.8146 4.11306 32.7779 4.10783 32.7884C4.09213 32.8093 4.10782 32.8826 4.13398 32.9506C4.1549 33.0186 4.18627 33.0761 4.18104 33.097C4.13919 33.1964 4.10783 33.254 4.10783 33.254C4.10783 33.254 4.05028 33.2278 3.97181 33.1441C3.96135 33.1336 3.96659 33.0499 3.97705 32.9715C3.98751 32.893 4.01366 32.8145 4.0032 32.7989C3.99797 32.7884 3.96134 32.8407 3.92996 32.8982C3.89857 32.9558 3.87241 33.0186 3.86195 33.0029C3.8201 32.9349 3.77828 32.8459 3.75212 32.7413C3.74689 32.7256 3.80966 32.6262 3.87766 32.5425C3.94566 32.4588 4.02411 32.3961 4.02411 32.3751C4.02411 32.3595 3.94566 32.3856 3.87242 32.4275C3.79396 32.4693 3.7207 32.5216 3.7207 32.5007C3.7207 32.4693 3.72071 32.4327 3.72594 32.4013C3.72594 32.3804 3.82533 32.281 3.92472 32.2078C4.02411 32.1345 4.11828 32.0822 4.10259 32.077C4.02413 32.0613 3.9352 32.0927 3.87242 32.1241C3.80442 32.1607 3.76257 32.1973 3.7678 32.1816C3.80441 32.0299 3.87763 31.873 3.98226 31.7213C3.99795 31.6951 4.0869 31.6847 4.1706 31.6742C4.24383 31.6847 4.3275 31.6846 4.3432 31.6637Z" fill="white"/>
<path d="M5.05011 30.074C5.06058 30.0792 5.06059 30.0165 5.06059 29.9537C5.06059 29.8909 5.05533 29.8282 5.06579 29.8334C5.16518 29.8595 5.26983 29.8909 5.35352 29.9485C5.40583 29.9851 5.44767 30.1002 5.46859 30.1996C5.48951 30.3042 5.49474 30.3879 5.49998 30.3722C5.54182 30.2833 5.54706 30.1996 5.5366 30.1368C5.53137 30.0793 5.51567 30.0426 5.53136 30.0531C5.65167 30.1368 5.74583 30.231 5.8243 30.3251C5.83476 30.3356 5.84001 30.4036 5.84524 30.4716C5.84524 30.5396 5.84521 30.6024 5.85045 30.618C5.86091 30.6337 5.87662 30.5971 5.89754 30.5605C5.91846 30.5239 5.93417 30.482 5.9394 30.4977C6.03879 30.6808 6.0597 30.843 6.05446 30.9476C6.04923 31.0522 6.01784 31.0993 6.01784 31.0993C6.01784 31.0993 5.93415 31.0575 5.79291 31.0104C5.65167 30.9633 5.45812 30.9005 5.2018 30.8221C5.19134 30.8168 5.26459 30.775 5.34305 30.7384C5.42152 30.7017 5.5052 30.6704 5.49474 30.6651C5.47905 30.6599 5.36396 30.6756 5.25934 30.707C5.15472 30.7384 5.06057 30.7802 5.04488 30.7802L4.94549 30.7541C4.92979 30.7488 5.00303 30.6913 5.0815 30.6442C5.15996 30.5919 5.24888 30.55 5.23319 30.5448C5.22273 30.5396 5.11288 30.5762 5.01349 30.6233C4.9141 30.6704 4.83041 30.7279 4.82518 30.7279L4.79903 30.7227L4.6787 30.6965C4.66824 30.6965 4.70487 30.6285 4.75718 30.5657C4.80949 30.503 4.87226 30.4454 4.85657 30.4402C4.84611 30.435 4.75194 30.482 4.68393 30.5448C4.64732 30.5762 4.61594 30.6076 4.59502 30.6337C4.57409 30.6599 4.56363 30.6756 4.55839 30.6756L4.42762 30.639C4.41716 30.639 4.41191 30.5971 4.41191 30.55C4.41191 30.5082 4.41717 30.4611 4.40671 30.4559C4.39624 30.4559 4.37007 30.4925 4.35438 30.5344C4.33868 30.5762 4.3387 30.6128 4.33346 30.6128C4.29685 30.6076 4.26022 30.6076 4.22884 30.6128C4.21837 30.6128 4.20268 30.5762 4.19222 30.5344C4.18175 30.4925 4.18176 30.4454 4.16607 30.4454C4.14514 30.4454 4.11375 30.4977 4.09806 30.55C4.08237 30.6024 4.07713 30.6547 4.06144 30.6599C3.97774 30.6965 3.92543 30.7227 3.92543 30.7227C3.92543 30.7227 3.88882 30.6756 3.86789 30.5762C3.86266 30.5657 3.91497 30.5082 3.96729 30.4663C4.02483 30.4193 4.08236 30.3931 4.08759 30.3774C4.08759 30.367 4.03529 30.3722 3.97252 30.3879C3.91498 30.4036 3.85742 30.4297 3.85742 30.4193C3.86788 30.346 3.89404 30.2519 3.95681 30.1577C3.96204 30.1525 3.99344 30.142 4.03529 30.1368C4.07714 30.1316 4.12943 30.1316 4.18174 30.1368C4.28636 30.1473 4.37006 30.1786 4.38053 30.1734C4.39099 30.1629 4.33346 30.1159 4.26022 30.074C4.18699 30.0322 4.10328 30.006 4.11897 29.9903C4.14513 29.9694 4.1713 29.9537 4.20269 29.9328C4.21315 29.9276 4.24976 29.9328 4.29684 29.9432C4.34392 29.9537 4.40146 29.9746 4.45377 30.0008C4.55839 30.0479 4.63163 30.1106 4.6264 30.0897C4.60548 30.0165 4.54793 29.9537 4.49039 29.9119C4.43285 29.87 4.38054 29.8543 4.39623 29.8491C4.53747 29.8072 4.6944 29.7915 4.85133 29.8072C4.87749 29.8125 4.92458 29.8752 4.9612 29.9485C4.99781 30.0008 5.02919 30.0688 5.05011 30.074Z" fill="white"/>
<path d="M2.91059 35.8481C2.89489 35.8585 2.95244 35.8899 3.00998 35.9265C3.06752 35.9631 3.11983 35.9998 3.10413 36.005C2.97336 36.0835 2.8583 36.1829 2.73275 36.2875C2.69613 36.3189 2.63336 36.345 2.57059 36.3712C2.5549 36.3764 2.53395 36.3869 2.51826 36.3921C2.50257 36.3973 2.48689 36.4026 2.46596 36.4078L2.3561 36.4549C2.21486 36.5124 2.09457 36.5595 2.11549 36.5699C2.20965 36.6118 2.31425 36.5856 2.39272 36.5595C2.47119 36.5333 2.51827 36.5072 2.49735 36.5386C2.32472 36.7373 2.18347 36.9309 2.05793 37.1035C2.04223 37.1297 1.95855 37.182 1.87485 37.2395C1.79116 37.2971 1.71268 37.3598 1.69698 37.386C1.68129 37.4174 1.72315 37.4069 1.77023 37.4017C1.8173 37.3964 1.8644 37.386 1.8487 37.4121C1.64992 37.726 1.51913 37.9719 1.43543 38.134C1.35173 38.3014 1.30989 38.3851 1.30989 38.3851C1.30989 38.3851 1.29419 38.3485 1.27327 38.27C1.25235 38.1916 1.23145 38.0608 1.23145 37.8829C1.23145 37.7051 1.24712 37.4697 1.31513 37.1924C1.38313 36.91 1.50345 36.5804 1.71269 36.2195C1.73362 36.1829 1.71792 36.3398 1.71269 36.4915C1.70746 36.6432 1.70744 36.7949 1.72837 36.7583C1.74406 36.7216 1.78069 36.4967 1.83823 36.2718C1.85392 36.2142 1.86963 36.1619 1.88532 36.1044C1.90102 36.0521 1.91669 36.005 1.93239 35.9527L1.95854 35.8847C1.969 35.8638 1.97425 35.8481 1.97948 35.8324C1.99517 35.801 2.00563 35.7801 2.01086 35.7696C2.0841 35.6754 2.16779 35.5865 2.26194 35.5028C2.29856 35.4662 2.21486 35.6388 2.16255 35.8114C2.1364 35.8951 2.11548 35.9841 2.10502 36.0416C2.09456 36.1044 2.09456 36.1358 2.10502 36.1148C2.11025 36.1096 2.11548 36.0887 2.13117 36.0625L2.17303 35.9527C2.20964 35.8638 2.26194 35.7539 2.32471 35.6441C2.38749 35.5342 2.46072 35.4244 2.5235 35.3459C2.58627 35.2674 2.63858 35.2099 2.65427 35.2047C2.68566 35.1837 2.71705 35.168 2.75366 35.1471C2.91059 35.0634 3.06753 35.0006 3.21923 34.9588C3.27154 34.9431 3.15646 35.053 3.05707 35.168C2.95768 35.2831 2.87398 35.4139 2.91582 35.393C2.93152 35.3825 2.98383 35.3407 3.05184 35.2831C3.11984 35.2256 3.214 35.1576 3.31339 35.0896C3.50694 34.9588 3.72663 34.8646 3.76325 34.8594C3.99342 34.8437 4.20265 34.8594 4.38051 34.8803C4.42236 34.8856 4.36484 34.9274 4.3073 34.9693C4.24976 35.0111 4.1922 35.0582 4.22882 35.0634C4.26021 35.0686 4.3805 35.032 4.50605 35.0006C4.63159 34.9693 4.75192 34.9431 4.77807 34.9483C4.89839 34.9745 5.00824 35.0006 5.10763 35.032C5.1704 35.0477 4.80424 35.1733 4.85655 35.189C4.94025 35.2151 5.43195 35.1366 5.49472 35.1576C5.67258 35.2203 5.76151 35.2674 5.76151 35.2674C5.76151 35.2674 5.67781 35.3145 5.49996 35.372C5.45288 35.3877 4.935 35.2779 4.87746 35.2936C4.84085 35.304 5.26979 35.44 5.23317 35.4505C5.10762 35.4819 4.96641 35.5133 4.79902 35.5447C4.77286 35.5499 4.61592 35.4924 4.46422 35.4453C4.30729 35.393 4.15035 35.3511 4.12419 35.3616C4.09281 35.3668 4.19744 35.4244 4.29683 35.4819C4.39622 35.5394 4.49037 35.6022 4.45899 35.6074L4.31774 35.6336C4.29158 35.6388 4.11375 35.5813 3.94635 35.5394C3.77896 35.4976 3.61154 35.4767 3.62724 35.4924C3.68478 35.5551 3.79466 35.597 3.88358 35.6284C3.97251 35.6597 4.04049 35.6807 4.01957 35.6859C3.81555 35.7278 3.60632 35.7853 3.40231 35.869C3.37092 35.8847 3.27676 35.8585 3.17214 35.8428C3.05706 35.8271 2.94721 35.8219 2.91059 35.8481Z" fill="white"/>
<path d="M1.4294 35.388C1.41894 35.4089 1.49217 35.3984 1.56018 35.3932C1.62818 35.388 1.69618 35.3827 1.69095 35.3984C1.60725 35.5711 1.54446 35.7594 1.47123 35.9425C1.42938 36.0523 1.30383 36.1936 1.20444 36.3243C1.10505 36.4551 1.02135 36.565 1.04228 36.565C1.14167 36.5545 1.22537 36.4708 1.28292 36.408C1.34046 36.3453 1.37183 36.2929 1.3666 36.3348C1.30383 36.612 1.27245 36.8631 1.28292 37.0776C1.28292 37.109 1.25154 37.1979 1.22538 37.2973C1.19923 37.3967 1.19397 37.5013 1.20444 37.5275C1.2149 37.5641 1.24108 37.5222 1.26724 37.4804C1.29339 37.4385 1.31955 37.4019 1.33001 37.4333C1.37186 37.6059 1.43986 37.7472 1.52355 37.857C1.60725 37.9669 1.7014 38.0453 1.77987 38.1029C1.86357 38.1604 1.93157 38.2023 1.97342 38.2284L2.04142 38.265C2.04142 38.265 1.99957 38.2807 1.90541 38.286C1.85833 38.2912 1.8008 38.2912 1.72234 38.286C1.6491 38.2807 1.56017 38.265 1.45555 38.2284C1.35093 38.1918 1.23584 38.1343 1.12075 38.0453C1.00567 37.9564 0.890591 37.8309 0.796433 37.6687C0.702274 37.5118 0.623818 37.3235 0.576738 37.1142C0.529659 36.905 0.508737 36.6748 0.513968 36.4289C0.513968 36.3819 0.57151 36.5493 0.644744 36.7062C0.717979 36.8631 0.806895 37.0096 0.796433 36.9625C0.791202 36.9364 0.765049 36.8684 0.733663 36.769C0.702277 36.6696 0.665663 36.544 0.639508 36.4133C0.587198 36.1517 0.566276 35.8849 0.576738 35.8326C0.602893 35.7071 0.634281 35.5763 0.676129 35.456C0.691822 35.4037 0.702277 35.6024 0.733663 35.796C0.759818 35.9895 0.806883 36.1674 0.817345 36.1203C0.822576 36.1046 0.812136 36.0314 0.806905 35.932C0.801674 35.8274 0.796438 35.6966 0.801669 35.5606C0.8069 35.2886 0.848741 35.0166 0.859203 34.9852C0.874896 34.9486 0.890576 34.9172 0.9115 34.8806C0.995197 34.7184 1.08413 34.5667 1.17829 34.4307C1.20967 34.3836 1.18351 34.551 1.17305 34.7132C1.15736 34.8753 1.1626 35.0323 1.18352 34.9904C1.20445 34.9538 1.25152 34.7132 1.33521 34.4778C1.37706 34.3575 1.42415 34.2371 1.47123 34.1482C1.51307 34.0541 1.55492 33.9913 1.57062 33.9756C1.76416 33.7873 1.9682 33.6408 2.18267 33.5414C2.22975 33.5205 2.18787 33.5937 2.15125 33.667C2.11464 33.7402 2.08849 33.8187 2.1251 33.7977C2.15649 33.7821 2.25588 33.667 2.38142 33.5676C2.44419 33.5205 2.50698 33.4734 2.56453 33.442C2.62207 33.4106 2.66914 33.3897 2.68483 33.3845C2.85222 33.3636 3.00391 33.3688 3.13469 33.395C3.17654 33.4054 3.07193 33.4368 2.983 33.4839C2.88884 33.531 2.81037 33.5885 2.84175 33.5885C2.86791 33.5885 2.92023 33.578 2.98824 33.5676C3.05624 33.5571 3.13995 33.5467 3.22888 33.5467C3.31257 33.5467 3.40148 33.5519 3.46948 33.5676C3.53749 33.5833 3.58457 33.599 3.60026 33.6094C3.68919 33.6774 3.74674 33.7402 3.77813 33.7821C3.80952 33.8239 3.82519 33.8501 3.82519 33.8501L3.74675 33.8396C3.69443 33.8291 3.62118 33.8187 3.52702 33.8134C3.50086 33.8134 3.37534 33.7402 3.22364 33.7036C3.15041 33.6879 3.07192 33.6774 3.00915 33.6774C2.94638 33.6774 2.8993 33.6827 2.88361 33.6879C2.86792 33.6984 2.97777 33.7088 3.08239 33.7402C3.18701 33.7716 3.27071 33.8187 3.24979 33.8239C3.12948 33.8396 2.99871 33.8814 2.86793 33.9494C2.85747 33.9547 2.81561 33.9547 2.75284 33.9547C2.69006 33.9599 2.6116 33.9651 2.5279 33.9808C2.36574 34.0122 2.19313 34.0855 2.17743 34.1116C2.15651 34.1378 2.27681 34.1116 2.39713 34.1064C2.51744 34.0959 2.62207 34.1116 2.60115 34.1273C2.56453 34.1535 2.53314 34.1848 2.49652 34.2162C2.48606 34.2267 2.43898 34.2424 2.37098 34.2685C2.30298 34.2947 2.21404 34.3313 2.13034 34.3732C1.96295 34.4569 1.80601 34.5719 1.83217 34.5719C1.9211 34.5772 2.04142 34.5249 2.14081 34.4882C2.23497 34.4516 2.30819 34.4202 2.28727 34.4412C2.14603 34.6086 1.99956 34.8178 1.86355 35.0584C1.84263 35.095 1.74325 35.1526 1.64386 35.2154C1.54447 35.2677 1.45032 35.3409 1.4294 35.388Z" fill="white"/>
<path d="M2.54943 40.3576C2.53373 40.3314 2.40819 40.5773 2.38727 40.5511L2.26173 40.3523L2.23034 40.3L2.19896 40.2425L2.18328 40.2163L2.16757 40.1849C2.15711 40.164 2.15188 40.1483 2.14142 40.1326C2.1048 40.0489 2.10481 39.8868 2.11527 39.7508C2.1205 39.6148 2.13097 39.4997 2.11527 39.5154C1.97404 39.6514 2.02109 39.9025 1.9897 39.8501C1.88508 39.6514 1.79092 39.4787 1.69676 39.3323C1.6863 39.3114 1.67584 39.2277 1.66538 39.144C1.65492 39.0603 1.63402 38.9713 1.62355 38.9556C1.60786 38.9347 1.59216 38.9766 1.5817 39.0184C1.566 39.0603 1.55553 39.1021 1.53984 39.0812C1.37245 38.8353 1.22598 38.6679 1.11613 38.5529C1.00628 38.443 0.94873 38.3855 0.94873 38.3855C0.94873 38.3855 0.980123 38.375 1.05336 38.375C1.12659 38.375 1.23122 38.375 1.38292 38.4116C1.53462 38.4482 1.72293 38.5215 1.93217 38.6575C2.14141 38.7935 2.36634 38.9975 2.58605 39.259C2.60697 39.2852 2.48143 39.2329 2.35588 39.191C2.23034 39.144 2.10479 39.1073 2.12571 39.1335C2.15187 39.1597 2.31926 39.2486 2.48666 39.348C2.65405 39.4474 2.81623 39.5572 2.83716 39.5886L2.91561 39.6984L2.94699 39.7455L2.98361 39.7926C2.99407 39.8083 2.96792 39.7978 2.92084 39.7821L2.88422 39.7664C2.87376 39.7612 2.85806 39.756 2.84236 39.7508L2.74821 39.7037C2.61743 39.6409 2.48668 39.5781 2.5076 39.6095C2.51283 39.62 2.55989 39.6514 2.61743 39.6932L2.72206 39.7664L2.77959 39.8083L2.83716 39.8449C2.87378 39.8658 2.91561 39.8972 2.95746 39.9234L3.06209 39.9966C3.12486 40.0385 3.16669 40.0699 3.17192 40.0803L3.21378 40.1483C3.27655 40.2529 3.33934 40.3523 3.39165 40.4517C3.41257 40.4883 3.29748 40.436 3.18239 40.3837C3.06731 40.3366 2.95745 40.2843 2.97314 40.3209C2.98883 40.3471 3.13008 40.4517 3.27655 40.5616C3.41779 40.6714 3.56426 40.7813 3.57472 40.8074C3.64796 40.9696 3.71072 41.1161 3.75779 41.2573C3.77872 41.3201 3.52241 41.1736 3.54334 41.2311C3.54857 41.2521 3.62703 41.3253 3.70026 41.4038C3.7735 41.477 3.84672 41.5555 3.85195 41.5764C3.8781 41.6758 3.89905 41.7699 3.90952 41.8589C3.91475 41.885 3.85195 41.8432 3.78918 41.8065C3.72641 41.7647 3.66365 41.7281 3.66888 41.749C3.67411 41.7856 3.74212 41.885 3.81012 41.9844C3.87813 42.0838 3.9409 42.178 3.9409 42.2093C3.94613 42.3715 3.93043 42.4552 3.93043 42.4552C3.93043 42.4552 3.86244 42.4081 3.74735 42.3035C3.73166 42.2878 3.70549 42.178 3.66888 42.0629C3.63749 41.9478 3.60088 41.8327 3.57996 41.817C3.5695 41.8066 3.57473 41.8955 3.57996 41.9844C3.58519 42.0733 3.59042 42.157 3.57996 42.1466C3.50672 42.0733 3.423 41.9844 3.32885 41.8798C3.31315 41.8641 3.30271 41.7281 3.28178 41.5868C3.26609 41.4456 3.24518 41.3096 3.22949 41.2887C3.21379 41.2678 3.19809 41.3724 3.18239 41.4718C3.1667 41.5712 3.15099 41.6705 3.1353 41.6496L3.05685 41.5555C3.04116 41.5345 3.02545 41.3724 3.00452 41.2207C2.9836 41.0637 2.96269 40.9225 2.95223 40.9382C2.8633 41.0794 2.92085 41.3776 2.89469 41.341C2.77961 41.1893 2.66453 41.0219 2.53899 40.8336C2.52329 40.7603 2.59651 40.4256 2.54943 40.3576Z" fill="white"/>
<path d="M2.92012 37.5269C2.90965 37.5269 2.94105 37.5844 2.96721 37.6419C2.99336 37.6995 3.0195 37.7518 3.00903 37.757C2.91488 37.7727 2.82596 37.7989 2.73181 37.8093C2.67426 37.8146 2.5644 37.7675 2.45978 37.7309C2.35516 37.6942 2.26101 37.6629 2.27671 37.6786C2.33425 37.757 2.41271 37.7989 2.47025 37.825C2.52256 37.8512 2.55918 37.8616 2.53826 37.8669C2.40225 37.914 2.28193 37.9663 2.16684 38.0186C2.15115 38.0238 2.08315 38.0186 2.00992 38.0186C1.93669 38.0186 1.86345 38.0186 1.84776 38.029C1.82684 38.0395 1.86868 38.0552 1.91053 38.0761C1.95238 38.0918 1.98899 38.1127 1.9733 38.118C1.77452 38.2278 1.62282 38.3272 1.51297 38.39C1.40311 38.4527 1.34557 38.4789 1.34557 38.4789C1.34557 38.4789 1.34033 38.4527 1.34033 38.3952C1.34033 38.3377 1.3508 38.254 1.37695 38.1389C1.40834 38.0238 1.45543 37.8826 1.55482 37.7152C1.65421 37.553 1.80591 37.3595 2.04131 37.1868C2.06746 37.1711 2.01516 37.281 1.98377 37.3909C1.94715 37.5007 1.93146 37.6106 1.94715 37.5949C1.96807 37.5792 2.02562 37.4327 2.11455 37.2915C2.20347 37.1502 2.31856 37.0142 2.34471 37.0038C2.41795 36.9671 2.49117 36.941 2.56441 36.9148C2.5958 36.9044 2.50687 37.009 2.43887 37.1188C2.36563 37.2287 2.31332 37.3385 2.33948 37.3281C2.35517 37.3228 2.44931 37.1868 2.58009 37.0718C2.70563 36.9514 2.8521 36.8468 2.87302 36.8416C2.89395 36.8364 2.9201 36.8364 2.94103 36.8311C3.05088 36.8154 3.15552 36.8102 3.25491 36.8154C3.29153 36.8154 3.20259 36.8887 3.1189 36.9619C3.0352 37.0351 2.9672 37.1188 2.99336 37.1188C3.01951 37.1188 3.14506 37.0351 3.28629 36.9724C3.42753 36.9044 3.57399 36.8521 3.60014 36.8573C3.74661 36.8887 3.87738 36.9305 3.98724 36.9828C4.01339 36.9933 3.96631 37.0247 3.91923 37.0613C3.87215 37.0927 3.8303 37.1293 3.85122 37.1398C3.86692 37.1502 3.95064 37.1345 4.03957 37.1241C4.12326 37.1136 4.21218 37.1031 4.22787 37.1136C4.30111 37.1607 4.36387 37.2078 4.41618 37.2496C4.43188 37.2653 4.37433 37.281 4.31679 37.3019C4.25925 37.3228 4.2017 37.3438 4.21217 37.3542C4.23309 37.3752 4.32726 37.3856 4.41618 37.3961C4.50511 37.4118 4.59404 37.4275 4.60973 37.4432C4.69343 37.5426 4.7196 37.6106 4.72483 37.6106C4.72483 37.6106 4.65683 37.6262 4.53652 37.6419C4.52083 37.6419 4.44756 37.5949 4.37433 37.5425C4.29586 37.4955 4.21742 37.4484 4.20173 37.4536C4.19126 37.4536 4.23833 37.5059 4.28541 37.5582C4.33249 37.6106 4.37435 37.6629 4.36389 37.6629C4.28542 37.6681 4.19125 37.6786 4.09186 37.6838C4.07617 37.6838 4.00293 37.6106 3.92447 37.5373C3.846 37.4641 3.75709 37.4013 3.74139 37.4013C3.72047 37.4013 3.77276 37.4745 3.81984 37.5478C3.86692 37.621 3.90354 37.6942 3.88784 37.6942L3.80416 37.6995C3.78847 37.6995 3.69954 37.6158 3.60538 37.5478C3.51122 37.4745 3.41708 37.417 3.42231 37.4379C3.44846 37.5112 3.506 37.5792 3.55308 37.6262C3.60016 37.6733 3.63678 37.7047 3.62109 37.7099C3.49554 37.7152 3.35953 37.7256 3.22352 37.7413C3.2026 37.7413 3.15028 37.689 3.08751 37.6367C3.00905 37.5739 2.94627 37.5216 2.92012 37.5269Z" fill="white"/>
<path d="M16.423 39.9391C16.5276 40.0437 15.9261 40.4883 15.1833 41.3619C14.6131 42.0367 14.7857 42.3506 13.9278 43.2241C13.1431 44.0192 12.1545 44.5685 10.9566 45.8501C10.083 46.7812 9.38205 47.3096 9.2722 47.1997C9.16758 47.0951 9.76389 46.5981 10.5224 45.7036C11.0873 45.0393 11.2129 44.5528 12.505 43.2398C14.1161 41.6025 14.2365 41.6758 14.8956 41.1003C15.7744 40.3366 16.3184 39.8344 16.423 39.9391Z" fill="white"/>
<path d="M14.4245 40.9961C14.4245 40.8653 14.4245 40.7555 14.4245 40.6718C14.4193 40.5933 14.4141 40.541 14.4141 40.541C14.4141 40.541 14.4507 40.5776 14.4873 40.6561C14.5239 40.7346 14.5553 40.8549 14.5553 40.9909C14.5553 41.085 14.5501 41.1844 14.5448 41.2786C14.5396 41.3727 14.5396 41.4512 14.5448 41.5088C14.5135 41.5297 14.4821 41.5297 14.4821 41.5297C14.4821 41.5297 14.4559 41.4617 14.4454 41.3623C14.4245 41.2629 14.4245 41.1269 14.4245 40.9961Z" fill="white"/>
<path d="M12.8068 42.3925C12.629 42.335 12.5034 42.2356 12.4249 42.1624C12.3465 42.0839 12.3203 42.0264 12.3203 42.0264C12.3203 42.0264 12.3726 42.0578 12.4668 42.1101C12.561 42.1571 12.6917 42.2199 12.8487 42.2722C12.9533 42.3088 13.0788 42.335 13.1992 42.3507C13.3195 42.3664 13.4293 42.3716 13.5025 42.3716C13.5235 42.403 13.5182 42.4344 13.513 42.4344C13.513 42.4344 13.4293 42.4553 13.2985 42.4605C13.1625 42.4605 12.9795 42.4501 12.8068 42.3925Z" fill="white"/>
<path d="M13.9414 40.9066C13.8891 40.6973 13.8943 40.5143 13.9048 40.3887C13.9152 40.2632 13.9309 40.1899 13.9309 40.1899C13.9309 40.1899 13.9466 40.2632 13.9675 40.3835C13.9885 40.5038 14.0199 40.6764 14.0669 40.87C14.0983 41.0007 14.1506 41.142 14.2343 41.2466C14.2762 41.2989 14.3233 41.3408 14.3703 41.3721C14.4174 41.4035 14.4645 41.4245 14.5064 41.4402C14.5168 41.4768 14.5011 41.5082 14.5011 41.5082C14.5011 41.5082 14.475 41.5029 14.4279 41.4925C14.386 41.482 14.318 41.4558 14.25 41.4088C14.182 41.3617 14.114 41.2885 14.0617 41.1995C14.0094 41.1106 13.9728 41.0112 13.9414 40.9066Z" fill="white"/>
<path d="M13.9048 41.4042C13.8472 41.3205 13.8001 41.242 13.7687 41.1845C13.7374 41.1269 13.7217 41.0903 13.7217 41.0903C13.7217 41.0903 13.7583 41.106 13.8158 41.1426C13.8734 41.1793 13.9466 41.242 14.0094 41.3362C14.0512 41.399 14.0931 41.4774 14.1088 41.5559C14.1297 41.6344 14.1245 41.7181 14.1088 41.7651C14.0722 41.7704 14.046 41.7547 14.046 41.7547C14.046 41.7547 14.0512 41.7076 14.0303 41.6396C14.0094 41.5768 13.9623 41.4931 13.9048 41.4042Z" fill="white"/>
<path d="M10.4963 45.1284C10.4283 45.0395 10.3917 44.9506 10.3707 44.8878C10.3498 44.825 10.3394 44.7832 10.3394 44.7832C10.3394 44.7832 10.376 44.8041 10.4231 44.8512C10.4701 44.8983 10.5329 44.9663 10.5957 45.05C10.6375 45.1075 10.6846 45.1651 10.7369 45.2121C10.7892 45.2592 10.8416 45.2906 10.8782 45.3063C10.8782 45.3429 10.8677 45.3691 10.8677 45.3691C10.8677 45.3691 10.8101 45.3691 10.7264 45.3325C10.6532 45.2958 10.5643 45.2174 10.4963 45.1284Z" fill="white"/>
<path d="M10.1019 45.2847C9.89789 45.3265 9.73574 45.405 9.62589 45.473C9.51604 45.541 9.46373 45.5985 9.4585 45.5985C9.4585 45.5985 9.48988 45.5253 9.58404 45.4259C9.63112 45.3788 9.69389 45.3213 9.77758 45.2742C9.86128 45.2271 9.96067 45.1853 10.0758 45.1591C10.2275 45.1277 10.4105 45.1277 10.5675 45.18C10.6459 45.2062 10.714 45.2428 10.7715 45.2847C10.829 45.3265 10.8709 45.3684 10.9023 45.405C10.8918 45.4416 10.8604 45.4573 10.8604 45.4573C10.8604 45.4573 10.7872 45.384 10.6512 45.3265C10.5832 45.2951 10.4942 45.2742 10.4001 45.269C10.3059 45.2585 10.2013 45.2637 10.1019 45.2847Z" fill="white"/>
<path d="M11.8979 43.3811C11.8665 43.2817 11.8404 43.1928 11.8195 43.13C11.7985 43.0672 11.7881 43.0254 11.7881 43.0254C11.7881 43.0254 11.8247 43.0463 11.8718 43.0986C11.9188 43.1509 11.9816 43.2294 12.0183 43.3445C12.0706 43.491 12.0863 43.6845 12.0863 43.7787C12.0549 43.7944 12.0235 43.7944 12.0235 43.7944C12.0235 43.7944 12.0078 43.742 11.9816 43.6636C11.9607 43.5851 11.9345 43.4805 11.8979 43.3811Z" fill="white"/>
<path d="M10.9253 44.4961C10.8154 44.4385 10.7369 44.3601 10.6951 44.3025C10.6532 44.245 10.6323 44.2031 10.6323 44.2031C10.6323 44.2031 10.6742 44.224 10.737 44.2554L10.988 44.3862C11.056 44.4228 11.1345 44.4594 11.2078 44.4961L11.2182 44.5013L11.2234 44.5065H11.2287L11.2391 44.517L11.2653 44.5327C11.281 44.5431 11.2967 44.5536 11.3124 44.5641C11.3437 44.585 11.3699 44.6059 11.3908 44.6216C11.3804 44.6582 11.3542 44.6791 11.3542 44.6791C11.3542 44.6791 11.3071 44.653 11.2287 44.6216L11.1973 44.6111C11.1868 44.6059 11.1711 44.6007 11.1659 44.6007C11.1397 44.5955 11.1188 44.585 11.0927 44.5745C11.0351 44.5484 10.9828 44.5222 10.9253 44.4961Z" fill="white"/>
<path d="M10.698 44.605C10.515 44.6103 10.358 44.6364 10.2482 44.6521L10.0703 44.6835C10.0703 44.6835 10.1226 44.6416 10.2325 44.5946C10.3371 44.5475 10.4993 44.4899 10.698 44.4795C10.8288 44.4742 10.9857 44.4899 11.1165 44.537C11.2473 44.5789 11.3572 44.6469 11.4252 44.6992C11.4199 44.7358 11.3938 44.7567 11.3938 44.7567C11.3938 44.7567 11.3153 44.7096 11.1898 44.6678C11.127 44.6469 11.0485 44.6312 10.9701 44.6155C10.8811 44.605 10.7922 44.5998 10.698 44.605Z" fill="white"/>
<path d="M15.6211 40.2577C15.6368 40.2002 15.6682 40.1531 15.6943 40.1269C15.7205 40.1008 15.7466 40.0903 15.7466 40.0903C15.7466 40.0903 15.7519 40.1165 15.7571 40.1531C15.7623 40.1897 15.7623 40.242 15.7466 40.2943C15.7257 40.3676 15.6943 40.4565 15.6734 40.5036C15.6368 40.5036 15.6106 40.4984 15.6106 40.4984C15.6054 40.4931 15.5897 40.3728 15.6211 40.2577Z" fill="white"/>
</g>
<path d="M25.0584 7.67892C25.0532 7.67892 25.048 7.67892 25.048 7.67892C25.0375 7.67892 25.0271 7.67892 25.0166 7.67892C24.891 7.67369 24.7655 7.67892 24.6452 7.68415C24.619 7.68415 24.5981 7.68939 24.572 7.68939C24.5353 7.68939 24.4987 7.69462 24.4621 7.69462C22.8353 7.83062 21.5432 8.72513 21.177 9.90734C21.177 9.91257 21.177 9.91257 21.1718 9.9178C21.1613 9.95965 21.1509 10.0015 21.1404 10.0433C21.1404 10.0538 21.1352 10.059 21.1352 10.0695C21.1247 10.1061 21.1195 10.1427 21.1142 10.1846C21.1142 10.195 21.109 10.2055 21.109 10.216C21.1038 10.2526 21.0985 10.2892 21.0933 10.3258C21.0933 10.3363 21.0881 10.352 21.0881 10.3624C21.0828 10.4095 21.0776 10.4618 21.0776 10.5089C21.0776 10.5508 21.0776 10.5874 21.0776 10.6292C21.1038 11.4766 21.6896 12.5647 22.4272 13.4383C22.7777 13.8568 23.1596 14.2229 23.5362 14.4949L23.5519 14.5054H23.5728L23.5624 14.8193C23.5624 14.8873 23.6094 14.9396 23.6774 14.9448L23.7559 14.95H23.7402L23.8815 16.2316H23.871C23.8396 16.2316 23.8187 16.2526 23.8187 16.284C23.8187 16.2944 23.8239 16.3049 23.8291 16.3153C23.8344 16.3206 23.8344 16.3258 23.8396 16.3258C23.8396 16.3258 23.8448 16.3258 23.8448 16.331C23.8501 16.331 23.8553 16.3363 23.8553 16.3363L23.8396 16.8384C23.8396 16.8803 23.8449 16.9169 23.8553 16.9535C23.8553 16.964 23.8605 16.9692 23.8658 16.9744C23.871 16.9849 23.871 16.9901 23.8762 17.0006C23.8815 17.0163 23.8919 17.032 23.8971 17.0425C23.9024 17.0477 23.9024 17.0529 23.9076 17.0634C23.9181 17.0843 23.9338 17.1 23.9495 17.1157C23.9547 17.1209 23.9599 17.1261 23.9651 17.1261C23.9756 17.1366 23.9913 17.1523 24.0018 17.1628C24.007 17.168 24.0175 17.1732 24.0227 17.1785C24.0332 17.1889 24.0488 17.1942 24.0645 17.1994C24.0698 17.2046 24.0803 17.2046 24.0855 17.2098C24.1012 17.2151 24.1169 17.2203 24.1325 17.2255C24.1378 17.2255 24.1483 17.2308 24.1535 17.2308C24.1796 17.236 24.2005 17.2412 24.2267 17.2412L25.2311 17.2778C25.2572 17.2778 25.2834 17.2778 25.3095 17.2726C25.4141 17.2569 25.5031 17.1942 25.5658 17.1157C25.6129 17.0529 25.6391 16.9797 25.6391 16.896L25.6548 16.3938C25.681 16.3886 25.6966 16.3729 25.6966 16.3467C25.6966 16.3363 25.6914 16.3258 25.6914 16.3206C25.6914 16.3206 25.6914 16.3153 25.6862 16.3153C25.6809 16.3101 25.6757 16.2996 25.6652 16.2996C25.66 16.2944 25.6548 16.2944 25.6443 16.2944H25.6391L25.8693 15.0285L25.8536 15.0233L25.932 15.0285C26 15.0285 26.0523 14.9814 26.0576 14.9134L26.068 14.5996H26.0889L26.1047 14.5891C26.1151 14.5839 26.1256 14.5734 26.136 14.5682L26.3348 14.4426H26.3244C27.517 13.6004 28.7882 11.9736 28.83 10.7862C28.898 9.14361 27.2032 7.75216 25.0584 7.67892ZM24.4202 16.2473L24.3889 14.9657L25.2258 14.9971L25.1055 16.2735L24.4202 16.2473ZM23.7716 14.9448L24.3732 14.9657H24.3575L24.3889 16.2421L23.9129 16.2264L23.7716 14.9448ZM25.6129 16.2892L25.1369 16.2735L25.2572 15.0024H25.2415L25.8431 15.0233L25.6129 16.2892Z" fill="white"/>
<path d="M41.9803 24.8996H41.975C41.9698 24.8996 41.9646 24.8996 41.9594 24.8996C41.9018 24.9049 41.8495 24.9101 41.792 24.9153C41.7815 24.9153 41.771 24.9206 41.7606 24.9206C41.7449 24.9206 41.7292 24.9258 41.7135 24.9258C40.9864 25.0461 40.4371 25.496 40.3168 26.04V26.0452C40.3116 26.0662 40.3116 26.0819 40.3063 26.1028C40.3063 26.108 40.3063 26.108 40.3063 26.1132C40.3063 26.1289 40.3011 26.1499 40.3011 26.1655C40.3011 26.1708 40.3011 26.176 40.3011 26.1812C40.3011 26.1969 40.3011 26.2126 40.2959 26.2336C40.2959 26.2388 40.2959 26.244 40.2959 26.2492C40.2959 26.2702 40.2959 26.2911 40.2959 26.3172C40.2959 26.3329 40.2959 26.3539 40.3011 26.3696C40.343 26.7514 40.6464 27.217 41.0073 27.5832C41.1799 27.7558 41.363 27.9075 41.5409 28.0173L41.5513 28.0226H41.5618L41.567 28.1638C41.567 28.1952 41.5932 28.2161 41.6246 28.2161H41.6612H41.656L41.7658 28.7863H41.7606C41.7501 28.7863 41.7397 28.7968 41.7397 28.8124C41.7397 28.8177 41.7396 28.8229 41.7449 28.8281L41.7501 28.8334H41.7553L41.7658 29.0583C41.7658 29.0792 41.771 29.0949 41.7763 29.1106C41.7763 29.1158 41.7815 29.1158 41.7815 29.1211C41.7815 29.1263 41.7867 29.1263 41.7867 29.1315C41.792 29.1368 41.792 29.142 41.7972 29.1525C41.7972 29.1577 41.8024 29.1577 41.8024 29.1629C41.8077 29.1734 41.8181 29.1786 41.8234 29.1839L41.8286 29.1891C41.8338 29.1943 41.839 29.1995 41.8495 29.2048C41.8547 29.2048 41.8547 29.21 41.86 29.21C41.8652 29.2152 41.8704 29.2152 41.8809 29.2205C41.8861 29.2205 41.8861 29.2257 41.8914 29.2257C41.8966 29.2257 41.907 29.2309 41.9123 29.2309C41.9175 29.2309 41.9175 29.2309 41.9227 29.2309C41.9332 29.2309 41.9437 29.2309 41.9541 29.2309L42.404 29.21C42.4145 29.21 42.4301 29.21 42.4406 29.2048C42.4877 29.1943 42.5243 29.1629 42.5505 29.1263C42.5662 29.0949 42.5766 29.0635 42.5766 29.0269L42.5662 28.802C42.5766 28.7968 42.5871 28.7915 42.5819 28.7811C42.5819 28.7758 42.5819 28.7706 42.5766 28.7706C42.5714 28.7654 42.5714 28.7654 42.5662 28.7654C42.5609 28.7654 42.5609 28.7654 42.5557 28.7654L42.6132 28.19H42.608H42.6446C42.676 28.19 42.6969 28.1638 42.6969 28.1324L42.6917 27.9912H42.7022L42.7074 27.9859C42.7126 27.9807 42.7179 27.9807 42.7231 27.9755L42.8068 27.9127H42.8016C43.309 27.489 43.8164 26.7148 43.7955 26.1812C43.7536 25.4227 42.9428 24.8578 41.9803 24.8996ZM42.0012 28.7706L41.9385 28.1952L42.3151 28.1795L42.3046 28.7549L42.0012 28.7706ZM41.6664 28.2109L41.9385 28.2004H41.9332L41.996 28.7758L41.7815 28.7863L41.6664 28.2109ZM42.54 28.7497L42.3255 28.7601L42.336 28.1847H42.3308L42.6028 28.1743L42.54 28.7497Z" fill="white"/>
<mask id="mask1_2462_7268" style="mask-type:luminance" maskUnits="userSpaceOnUse" x="2" y="2" width="44" height="44">
<path d="M24.0785 45.5036C35.9553 45.5036 45.5833 35.8756 45.5833 23.9989C45.5833 12.1221 35.9553 2.49414 24.0785 2.49414C12.2017 2.49414 2.57373 12.1221 2.57373 23.9989C2.57373 35.8756 12.2017 45.5036 24.0785 45.5036Z" fill="white"/>
</mask>
<g mask="url(#mask1_2462_7268)">
<path d="M29.6083 22.0913L19.0625 49.8576L33.5106 49.7948L50.6004 49.3502L29.6083 22.0913Z" fill="white"/>
<path d="M29.6092 22.0225L19.0634 49.8567L15.5063 41.7434L29.6092 22.0225Z" fill="white"/>
</g>
<path d="M18.9013 45.7978L21.8934 46.1065V42.8946H19.8586V37.8781C19.8586 37.6479 19.665 37.4543 19.4035 37.4177L18.8385 37.334V29.8537C18.8385 29.634 18.6606 29.4456 18.4096 29.3986L17.651 29.2521V19.9409C17.651 19.7421 17.5046 19.5642 17.2849 19.4962L16.5159 19.2661V10.1327L15.7574 9.78747L15.6999 5.98975H15.3023V14.2809H15.1506C14.8734 14.2809 14.6484 14.5058 14.6484 14.7831V24.1466H14.0155C13.7383 24.1466 13.5133 24.3716 13.5133 24.6488V29.0795V33.9391H12.828C12.5508 33.9391 12.3259 34.164 12.3259 34.4413V41.613L12.0539 42.178L11.311 42.3035L18.9013 45.7978Z" fill="#29ABE2"/>
<mask id="mask2_2462_7268" style="mask-type:luminance" maskUnits="userSpaceOnUse" x="2" y="2" width="44" height="44">
<path d="M24.0785 45.5036C35.9553 45.5036 45.5833 35.8756 45.5833 23.9989C45.5833 12.1221 35.9553 2.49414 24.0785 2.49414C12.2017 2.49414 2.57373 12.1221 2.57373 23.9989C2.57373 35.8756 12.2017 45.5036 24.0785 45.5036Z" fill="white"/>
</mask>
<g mask="url(#mask2_2462_7268)">
<path d="M19.5852 43.1666V38.15C19.5852 37.9199 19.3916 37.7263 19.1301 37.6897L18.5651 37.606V30.1256C18.5651 29.9059 18.3873 29.7176 18.1362 29.6705L17.3777 29.5241V20.2129C17.3777 20.0141 17.2312 19.8362 17.0115 19.7682L16.2425 19.5381V10.4047L15.4841 10.0594L15.4265 6.26172H15.029V14.5529H14.8772C14.6 14.5529 14.3751 14.7778 14.3751 15.0551V24.4186H13.7421C13.4649 24.4186 13.2399 24.6435 13.2399 24.9208V29.3514V34.2111H12.5547C12.2774 34.2111 12.0525 34.436 12.0525 34.7132V41.885H11.0324V43.1666H8.99756V48.4551H11.0324H15.3062H19.5799H21.6148V43.1666H19.5852Z" fill="white"/>
</g>
<path d="M38.8728 33.6405V17.6074H34.3428V27.7556L38.8728 33.6405ZM38.2922 18.141L37.6069 20.5943C37.5023 20.971 37.0891 21.5098 36.6078 21.5098C36.1318 21.5098 35.7133 20.971 35.6087 20.5943L34.9234 18.141H38.2922Z" fill="white"/>
<path d="M24.0796 0C10.8241 0 0.0795898 10.7445 0.0795898 23.9999C0.0795898 37.2553 10.8241 47.9999 24.0796 47.9999C37.335 47.9999 48.0796 37.2553 48.0796 23.9999C48.0796 10.7445 37.335 0 24.0796 0ZM24.0796 45.5047C12.2051 45.5047 2.5748 35.8796 2.5748 23.9999C2.5748 12.1255 12.1999 2.4952 24.0796 2.4952C35.954 2.4952 45.5844 12.1203 45.5844 23.9999C45.5844 35.8743 35.9593 45.5047 24.0796 45.5047Z" fill="#F6C220"/>
<path d="M90.9453 2.69287V11.5332H76.1762V45.6107H66.7873V11.5278H52.0796V2.69287H90.9453Z" fill="#29ABE2"/>
<path d="M114.712 13.709V22.3589H107.358C103.093 22.3589 100.071 25.3075 100.071 29.725V45.6104H91.2065V13.709H99.6086V18.7031H99.9375C101.119 15.5641 104.008 13.709 107.815 13.709H114.712Z" fill="#29ABE2"/>
<path d="M142.874 13.7099H151.672V45.6113H142.874V41.3842H142.545C140.51 44.3328 136.769 46.5089 131.974 46.5742C123.109 46.5742 116.413 39.7848 116.413 29.7258C116.413 19.8628 122.78 12.6871 132.035 12.7524C136.763 12.7524 140.504 14.9285 142.539 17.8118H142.868V13.7099H142.874ZM142.874 29.6606C142.874 24.7263 139.261 20.9508 134.143 20.9508C128.958 20.9508 125.345 24.6665 125.345 29.6606C125.345 34.6547 128.958 38.3703 134.143 38.3703C139.395 38.3703 142.874 34.399 142.874 29.6606Z" fill="#29ABE2"/>
<path d="M182.659 13.709H191.719L177.736 45.6104H168.872L154.889 13.709H164.406L173.728 35.2304L182.659 13.709Z" fill="#29ABE2"/>
<path d="M204.332 13.709H195.467V45.6104H204.332V13.709Z" fill="#29ABE2"/>
<path d="M219.398 13.709H210.533V45.6104H219.398V13.709Z" fill="#29ABE2"/>
<path d="M224.809 29.6597C224.809 20.1774 231.7 12.7461 242.404 12.7461C253.103 12.7461 260 20.1774 260 29.6597C260 39.2073 253.042 46.5733 242.404 46.5733C231.767 46.5679 224.809 39.2018 224.809 29.6597ZM251.135 29.6597C251.135 24.9213 247.656 21.0751 242.404 21.0751C237.152 21.0751 233.673 24.9158 233.673 29.6597C233.673 34.3981 237.152 38.1791 242.404 38.1791C247.589 38.1791 251.135 34.3981 251.135 29.6597Z" fill="#29ABE2"/>
<path d="M200.171 10.7281C202.804 10.7281 204.938 8.64556 204.938 6.07667C204.938 3.50779 202.804 1.42529 200.171 1.42529C197.539 1.42529 195.404 3.50779 195.404 6.07667C195.404 8.64556 197.539 10.7281 200.171 10.7281Z" fill="#F6C220"/>
<path d="M215.577 10.7281C218.21 10.7281 220.344 8.64556 220.344 6.07667C220.344 3.50779 218.21 1.42529 215.577 1.42529C212.944 1.42529 210.81 3.50779 210.81 6.07667C210.81 8.64556 212.944 10.7281 215.577 10.7281Z" fill="#F6C220"/>
<path d="M213.124 56.1885V57.9373H210.62V64.6774H209.029V57.9373H206.535V56.1885H213.124Z" fill="#F6C220"/>
<path d="M217.288 60.4471C217.288 58.0265 218.826 56 221.218 56C223.6 56 225.147 58.0265 225.147 60.4471C225.147 62.8678 223.609 64.8554 221.218 64.8554C218.826 64.8554 217.288 62.8678 217.288 60.4471ZM223.536 60.436C223.536 58.9925 222.658 57.7766 221.218 57.7766C219.782 57.7766 218.899 58.9925 218.899 60.436C218.899 61.8573 219.768 63.0954 221.218 63.0954C222.658 63.0954 223.536 61.8629 223.536 60.436Z" fill="#F6C220"/>
<path d="M230.083 56.1885H231.674V61.0187C231.674 62.2457 232.318 63.1617 233.387 63.1617C234.481 63.1617 235.115 62.2345 235.115 61.0187V56.194H236.697V61.0464C236.697 63.4005 235.403 64.9106 233.387 64.9106C231.396 64.9106 230.078 63.4005 230.078 61.0464V56.1885H230.083Z" fill="#F6C220"/>
<path d="M242.021 64.6774V56.1885H245.844C247.347 56.1885 248.416 57.0268 248.416 58.5592C248.416 59.3697 248.138 59.9638 247.679 60.3469V60.3857C248.279 60.5634 248.592 61.0797 248.592 61.9681V64.6774H247.01V62.2956C247.01 61.9514 246.83 61.7904 246.542 61.7904H243.603V64.6774H242.021ZM243.603 60.1526H245.722C246.366 60.1526 246.834 59.7473 246.834 59.0366C246.834 58.3537 246.356 57.9318 245.731 57.9318H243.603V60.1526Z" fill="#F6C220"/>
<path d="M259.507 56.1885V57.9373H255.778C255.377 57.9373 255.177 58.226 255.177 58.5481C255.177 58.8145 255.333 59.0921 255.646 59.181L258.306 59.8916C259.463 60.197 260 61.2241 260 62.2234C260 63.4671 259.234 64.683 257.75 64.683H253.752V62.923H257.696C258.086 62.923 258.321 62.5954 258.321 62.2512C258.321 61.9736 258.165 61.696 257.818 61.6072L255.143 60.8854C253.996 60.569 253.459 59.5696 253.459 58.5925C253.459 57.3766 254.216 56.1996 255.665 56.1996H259.507V56.1885Z" fill="#F6C220"/>
</svg>
