<svg width="172" height="40" viewBox="0 0 172 40" fill="none" xmlns="http://www.w3.org/2000/svg">
    <path d="M15 30C23.2843 30 30 23.2843 30 15C30 6.71573 23.2843 0 15 0C6.71573 0 0 6.71573 0 15C0 23.2843 6.71573 30 15 30Z" fill="#F6C220"/>
    <path d="M15.0001 28.4405C22.423 28.4405 28.4406 22.423 28.4406 15C28.4406 7.57702 22.423 1.55951 15.0001 1.55951C7.57708 1.55951 1.55957 7.57702 1.55957 15C1.55957 22.423 7.57708 28.4405 15.0001 28.4405Z" fill="#29ABE2"/>
    <path d="M15.0001 28.4405C22.423 28.4405 28.4406 22.423 28.4406 15C28.4406 7.57702 22.423 1.55951 15.0001 1.55951C7.57708 1.55951 1.55957 7.57702 1.55957 15C1.55957 22.423 7.57708 28.4405 15.0001 28.4405Z" fill="#29ABE2"/>
    <path d="M6.73477 24.4223C6.73477 24.4615 6.4961 24.491 6.20186 24.491C5.90761 24.491 5.66895 24.4615 5.66895 24.4223C5.66895 24.3831 5.90761 24.3536 6.20186 24.3536C6.4961 24.3536 6.73477 24.3831 6.73477 24.4223Z" fill="white"/>
    <path d="M5.12657 22.8825C5.12657 22.8825 5.2083 22.9283 5.19196 23.0296C5.17561 23.131 5.15598 23.1964 5.19848 23.2193C5.24098 23.2422 5.41753 23.1277 5.48619 23.0362C5.55485 22.9446 5.53525 22.8204 5.64314 22.8139C5.75103 22.8073 5.80661 23.0427 5.95046 23.0427C6.09431 23.0427 6.06162 22.8302 6.17605 22.8171C6.29048 22.8041 6.35259 23.1277 6.49972 23.2029C6.64684 23.2781 6.673 23.3795 6.68607 23.4612C6.69588 23.5397 6.67954 23.6149 6.72858 23.6737C6.77762 23.7326 6.78415 23.8208 6.78415 23.8208C6.78415 23.8208 6.7776 23.7751 6.75145 23.7391C6.72529 23.6999 6.71549 23.677 6.71549 23.677C6.71549 23.677 6.71549 23.7064 6.74165 23.7424C6.7678 23.7783 6.77434 23.8176 6.77434 23.8176C6.77434 23.8176 6.75472 23.7653 6.73183 23.7456C6.70895 23.7228 6.67953 23.6476 6.67953 23.6181C6.67953 23.6181 6.66971 23.7489 6.68933 23.8078C6.70894 23.8666 6.758 23.9418 6.74492 24.0072C6.73184 24.0726 6.64683 24.3145 6.65337 24.357C6.65664 24.3995 6.66972 24.3995 6.63703 24.4093C6.6076 24.4159 6.54548 24.4191 6.55202 24.393C6.55529 24.3668 6.61741 24.2393 6.63703 24.1609C6.65664 24.0824 6.6403 23.9909 6.62068 23.9451C6.60107 23.896 6.55856 23.7914 6.55856 23.7914L6.51279 23.7555C6.51279 23.7555 6.49644 23.8405 6.50951 23.9451C6.52586 24.0497 6.51605 24.0497 6.4899 24.0824C6.46374 24.1151 6.31662 24.308 6.30681 24.3407C6.29374 24.3766 6.30355 24.3963 6.27085 24.4061C6.23816 24.4159 6.14989 24.3963 6.14989 24.3963C6.14989 24.3963 6.15643 24.3668 6.18912 24.3538C6.22181 24.3407 6.40164 24.1347 6.40164 24.0235C6.40164 23.9124 6.39181 23.8143 6.38528 23.8045C6.38201 23.7947 6.32316 23.7228 6.32316 23.6606L6.28393 23.6508C6.28393 23.6508 6.20874 23.7326 6.05181 23.762C5.89488 23.7914 5.80334 23.7424 5.76737 23.7391C5.73141 23.7358 5.67909 23.7489 5.67909 23.7489C5.67909 23.7489 5.75428 23.9712 5.75428 23.9909C5.75428 24.0105 5.76737 24.3145 5.76737 24.3309C5.76737 24.3472 5.78371 24.3701 5.7739 24.3864C5.76409 24.4028 5.65294 24.3897 5.65948 24.3766C5.66602 24.3636 5.70199 24.3407 5.70526 24.3211C5.70852 24.3014 5.71506 24.2164 5.70198 24.1478C5.68891 24.0791 5.65621 24.0464 5.65621 24.0464C5.65621 24.0464 5.63986 24.1445 5.63332 24.1903C5.63005 24.2361 5.6235 24.3374 5.62677 24.3636C5.63004 24.3897 5.64314 24.4224 5.62352 24.429C5.6039 24.4355 5.49274 24.4257 5.49928 24.4093C5.50582 24.3963 5.54505 24.3538 5.54179 24.3341C5.54179 24.3145 5.55813 24.2982 5.5614 24.2818C5.56467 24.2655 5.58101 24.1282 5.5712 24.1053C5.56139 24.0824 5.55813 24.0366 5.5614 24.0039C5.56794 23.9712 5.54504 23.8405 5.5287 23.8143C5.51235 23.7881 5.47966 23.7653 5.46985 23.7293C5.46004 23.6933 5.4633 23.677 5.4633 23.677C5.4633 23.677 5.38811 23.6574 5.36523 23.5822L5.26715 23.5756C5.26715 23.5756 5.2083 23.6378 5.08733 23.5887C4.96637 23.5397 4.92387 23.4351 4.88791 23.3174C4.85194 23.1997 4.90425 23.1343 4.90098 23.095C4.90098 23.0558 4.84212 23.1016 4.79308 23.0231C4.79308 23.0231 4.74405 23.0296 4.71789 22.9937C4.71789 22.9937 4.69173 22.997 4.67539 22.9871C4.65904 22.9773 4.63616 23.0035 4.62309 22.9937C4.61001 22.9806 4.63942 22.9512 4.65577 22.9479C4.65577 22.9479 4.6525 22.9414 4.63616 22.9446C4.61981 22.9446 4.61327 22.9381 4.61654 22.9152C4.61981 22.8923 4.65577 22.8825 4.65577 22.8694C4.65904 22.8564 4.695 22.8368 4.71462 22.8302C4.73423 22.8269 4.83886 22.84 4.87809 22.8302C4.91732 22.8204 4.95982 22.7943 4.99578 22.7975C5.03174 22.8008 5.06117 22.8368 5.06117 22.8368C5.06117 22.8368 5.10695 22.8237 5.12657 22.8269C5.12983 22.8237 5.13637 22.8596 5.12657 22.8825Z" fill="white"/>
    <path d="M5.33247 13.192C5.84347 13.192 6.25772 12.7778 6.25772 12.2668C6.25772 11.7558 5.84347 11.3416 5.33247 11.3416C4.82148 11.3416 4.40723 11.7558 4.40723 12.2668C4.40723 12.7778 4.82148 13.192 5.33247 13.192Z" fill="white"/>
    <mask id="mask0_2462_8271" style="mask-type:luminance" maskUnits="userSpaceOnUse" x="1" y="1" width="28" height="28">
        <path d="M14.9996 28.4405C22.4226 28.4405 28.4401 22.423 28.4401 15C28.4401 7.57702 22.4226 1.55951 14.9996 1.55951C7.57659 1.55951 1.55908 7.57702 1.55908 15C1.55908 22.423 7.57659 28.4405 14.9996 28.4405Z" fill="white"/>
    </mask>
    <g mask="url(#mask0_2462_8271)">
        <path d="M-4.15818 26.1814C-4.56359 26.4102 -4.96898 26.6489 -5.37112 26.9006L-5.37439 26.8516C-5.37439 26.8352 -5.42015 26.845 -5.4692 26.8777C-6.06096 27.2504 -6.6462 27.6493 -7.22488 28.0613C-7.27392 28.0972 -7.31314 28.1397 -7.30987 28.1528L-7.26084 28.4307C-7.25757 28.447 -7.21505 28.434 -7.16601 28.4045C-6.58406 28.0743 -5.99885 27.7735 -5.41689 27.5087C-5.36785 27.4858 -5.32534 27.4531 -5.32861 27.4335L-5.33189 27.3845C-4.93629 27.2047 -4.53742 27.0379 -4.14509 26.8908C-4.09605 26.8712 -4.05356 26.8418 -4.05356 26.8189V26.7633C-3.65796 26.6129 -3.26237 26.4821 -2.87331 26.3677C-2.82427 26.3546 -2.78176 26.3219 -2.78176 26.3023L-2.77849 26.2435C-2.38616 26.129 -1.9971 26.031 -1.61131 25.9492C-1.56227 25.9394 -1.51977 25.91 -1.5165 25.8871L-1.50996 25.8217C-1.1209 25.74 -0.738377 25.6779 -0.362396 25.6288C-0.313355 25.6223 -0.27086 25.5961 -0.267591 25.57L-0.257793 25.498C0.121458 25.4523 0.497439 25.4229 0.866881 25.4098C0.912653 25.4098 0.958437 25.3836 0.961706 25.3542L0.978049 25.2757C1.34749 25.2627 1.71367 25.2692 2.07004 25.2921C2.11581 25.2953 2.15831 25.2725 2.16812 25.243L2.191 25.158C2.55064 25.1809 2.90373 25.2201 3.24701 25.279C3.28951 25.2855 3.33528 25.2659 3.34509 25.2332L3.37452 25.145C3.72108 25.2038 4.06109 25.2757 4.38803 25.3673C4.43053 25.3803 4.47303 25.3607 4.48611 25.3248L4.51881 25.2332C4.84902 25.3248 5.17268 25.4327 5.48654 25.5569C5.52578 25.5732 5.57156 25.5569 5.58464 25.5209L5.62712 25.4229C5.94099 25.5471 6.24832 25.6877 6.5393 25.8446C6.57526 25.8642 6.62103 25.8511 6.64065 25.8119L6.68968 25.7106C6.98392 25.8675 7.27164 26.044 7.53973 26.2369C7.5757 26.2631 7.6182 26.25 7.64109 26.2108L7.69666 26.1062C7.96802 26.2991 8.22631 26.5116 8.46498 26.7404C8.4944 26.7698 8.54017 26.7633 8.56306 26.7241L9.35098 25.4523C9.37386 25.413 9.35752 25.3673 9.31502 25.3542C8.96846 25.2332 8.61864 25.1384 8.25901 25.0567L8.31458 24.9521C8.3342 24.9128 8.31458 24.8736 8.2688 24.8638C7.90917 24.7886 7.54301 24.7297 7.17356 24.6872L7.22259 24.5859C7.23894 24.5499 7.21606 24.514 7.17029 24.5074C6.79758 24.4682 6.42159 24.442 6.04234 24.4322L6.08158 24.3341C6.09792 24.2982 6.0685 24.2688 6.01946 24.2655C5.63694 24.2589 5.25116 24.2655 4.86537 24.2818L4.89806 24.1903C4.91113 24.1543 4.88172 24.1282 4.82941 24.1314C4.43708 24.1543 4.04474 24.1903 3.64914 24.2426L3.67858 24.1543C3.68838 24.1216 3.65568 24.0987 3.60664 24.1086C3.20777 24.1641 2.80891 24.2295 2.41005 24.308L2.43294 24.2263C2.44274 24.1936 2.40678 24.1772 2.35447 24.1903C1.95234 24.2753 1.54692 24.3734 1.14152 24.4813L1.15786 24.4028C1.1644 24.3734 1.12517 24.3636 1.07613 24.3766C0.667453 24.4911 0.262051 24.6186 -0.146625 24.7592L-0.136806 24.6872C-0.133537 24.6611 -0.172776 24.6545 -0.225087 24.6709C-0.633761 24.8147 -1.04244 24.9717 -1.45111 25.1417L-1.44457 25.0763C-1.4413 25.0501 -1.48381 25.0501 -1.53612 25.073C-1.94479 25.2463 -2.35674 25.4327 -2.76214 25.6288L-2.75887 25.57C-2.75887 25.5471 -2.79811 25.5504 -2.85042 25.5765C-3.2591 25.7792 -3.66777 25.9917 -4.07318 26.2173V26.1617C-4.06337 26.1454 -4.10587 26.1519 -4.15818 26.1814Z" fill="white"/>
        <path d="M3.78226 21.0876C3.7463 20.8784 3.7234 20.6691 3.71032 20.4566H3.73648C3.74629 20.4566 3.75282 20.4337 3.74955 20.4076C3.72994 20.097 3.73322 19.7831 3.76264 19.4693C3.76591 19.4431 3.75936 19.4202 3.75283 19.417L3.5959 19.3908C3.58936 19.3908 3.57628 19.4104 3.56974 19.4366C3.49781 19.7504 3.44551 20.0708 3.40954 20.3978C3.40627 20.4272 3.4128 20.4501 3.42261 20.4501H3.44877C3.42916 20.6691 3.41608 20.8915 3.41282 21.1138C3.41282 21.1432 3.41935 21.1661 3.43243 21.1628L3.46184 21.1596C3.46184 21.3819 3.47166 21.6042 3.488 21.8265C3.49127 21.8559 3.50109 21.8756 3.51417 21.8756L3.54358 21.869C3.5632 22.0913 3.59262 22.3104 3.62859 22.5294C3.63186 22.5589 3.64821 22.5785 3.65802 22.5752L3.69071 22.5654C3.72994 22.7844 3.77898 23.0002 3.83129 23.216C3.83783 23.2422 3.85419 23.2618 3.86727 23.2585L3.89995 23.2454C3.95553 23.4612 4.02093 23.6737 4.09286 23.883C4.10266 23.9091 4.11901 23.9255 4.13209 23.9222L4.16477 23.9058C4.2367 24.1151 4.31843 24.3243 4.40343 24.5303C4.41324 24.5565 4.43286 24.5728 4.44594 24.563L4.48189 24.5434C4.57017 24.7461 4.66173 24.9488 4.76308 25.1482C4.77616 25.1744 4.79576 25.1875 4.80883 25.1776L4.84481 25.1548C4.94616 25.3542 5.05078 25.5471 5.16193 25.7432C5.17501 25.7694 5.19791 25.7792 5.21098 25.7694L5.24694 25.7432C5.3581 25.9361 5.47253 26.1258 5.5935 26.3121C5.60984 26.335 5.63274 26.3448 5.64582 26.335L5.68178 26.3056C5.80275 26.4919 5.92699 26.675 6.05449 26.8581C6.07084 26.881 6.09372 26.8908 6.11007 26.8777L6.14603 26.845C6.27353 27.0249 6.40759 27.2047 6.54163 27.3812C6.55798 27.4041 6.58413 27.4106 6.59721 27.3976L6.63316 27.3616L6.83587 27.6232C6.90452 27.7114 6.96993 27.7964 7.03531 27.8814C7.05166 27.9043 7.07454 27.9076 7.09089 27.8945L7.55514 27.4205C7.56821 27.4074 7.56168 27.3812 7.53879 27.3649L7.2707 27.1752C7.18243 27.1131 7.09416 27.051 7.00915 26.9856L7.04511 26.9497C7.05819 26.9366 7.05165 26.9104 7.02877 26.8941C6.85549 26.7666 6.68548 26.6391 6.51874 26.5017L6.5547 26.4691C6.56778 26.456 6.56125 26.4331 6.54163 26.4167C6.37489 26.2827 6.21143 26.1454 6.05449 26.0015L6.09045 25.9721C6.10353 25.959 6.09698 25.9361 6.07736 25.9198C5.92043 25.7759 5.76351 25.6288 5.61639 25.4784L5.65234 25.4523C5.66542 25.4425 5.66216 25.4196 5.64255 25.4C5.49542 25.2496 5.3483 25.0926 5.21098 24.9292L5.24694 24.9063C5.26002 24.8965 5.25674 24.8736 5.2404 24.854C5.10308 24.6938 4.96905 24.527 4.84481 24.3538L4.88077 24.3341C4.89385 24.3276 4.89057 24.3047 4.87423 24.2818C4.74999 24.1118 4.62903 23.9353 4.51787 23.7555L4.55383 23.7391C4.56691 23.7326 4.56691 23.7097 4.55056 23.6868C4.4394 23.507 4.33477 23.3206 4.23996 23.131L4.27267 23.1179C4.28575 23.1147 4.28575 23.0885 4.27267 23.0656C4.17786 22.876 4.09284 22.6831 4.01437 22.4869L4.04708 22.4771C4.06016 22.4739 4.06016 22.451 4.05035 22.4248C3.97516 22.2286 3.90648 22.0259 3.8509 21.8232L3.88034 21.8167C3.89014 21.8134 3.89342 21.7905 3.88688 21.7644C3.8313 21.5617 3.78552 21.3557 3.74955 21.1465L3.77899 21.1432C3.78226 21.1334 3.78553 21.1138 3.78226 21.0876Z" fill="white"/>
        <path d="M5.25446 17.9C5.24138 17.9032 5.27079 17.9359 5.30021 17.9686C5.32964 18.0013 5.3558 18.034 5.34272 18.0373C5.2806 18.0471 5.21849 18.0602 5.16291 18.0765L5.1204 18.0863L5.10079 18.0929L5.08117 18.0994L4.99944 18.1255C4.96674 18.1354 4.92098 18.1419 4.86867 18.1484C4.81636 18.155 4.76076 18.1615 4.70845 18.168C4.60383 18.1811 4.51556 18.2007 4.52537 18.2073C4.57441 18.2432 4.64962 18.2432 4.7052 18.24C4.76078 18.2367 4.79674 18.2302 4.77712 18.2432C4.62019 18.3413 4.48942 18.4525 4.37499 18.5604C4.35864 18.5767 4.29652 18.6061 4.23114 18.6388C4.16902 18.6715 4.10363 18.7108 4.09055 18.7271C4.07421 18.7467 4.10362 18.7467 4.13631 18.7435C4.169 18.7402 4.19843 18.7402 4.18209 18.7565C3.99573 18.9625 3.87149 19.1293 3.78975 19.2404C3.70802 19.3516 3.66552 19.4072 3.66552 19.4072C3.66552 19.4072 3.66225 19.3777 3.66552 19.3189C3.66878 19.26 3.67534 19.1652 3.70477 19.0377C3.73419 18.9102 3.78322 18.75 3.87803 18.5571C3.92708 18.4623 3.98592 18.3577 4.06112 18.2498C4.13632 18.1419 4.22786 18.0275 4.34556 17.9196C4.36844 17.8967 4.31614 18.0013 4.27691 18.1059C4.23768 18.2106 4.20824 18.3119 4.22459 18.289C4.24421 18.2661 4.31287 18.1157 4.41095 17.9686C4.45999 17.8967 4.51556 17.8248 4.5646 17.7725C4.61364 17.7201 4.65615 17.6809 4.66922 17.6711C4.70846 17.6482 4.74769 17.6253 4.79019 17.6057C4.83269 17.5861 4.87193 17.5665 4.92097 17.5501C4.94059 17.5436 4.91771 17.5632 4.88174 17.5959C4.84578 17.6286 4.8 17.6744 4.75423 17.7234C4.66596 17.8215 4.60056 17.9261 4.62672 17.9065C4.64307 17.8967 4.75424 17.7594 4.9079 17.6515C4.91771 17.6449 4.92751 17.6384 4.93732 17.6319L4.96675 17.6123C4.98637 17.5992 5.00598 17.5894 5.0256 17.5763C5.06483 17.5534 5.1008 17.5338 5.13349 17.5174C5.19888 17.4847 5.24465 17.4651 5.25446 17.4651C5.28061 17.4619 5.30349 17.4586 5.32965 17.4553C5.44735 17.439 5.55851 17.4324 5.66313 17.4324C5.6991 17.4324 5.60428 17.4782 5.51601 17.5305C5.42446 17.5828 5.33946 17.6384 5.37215 17.6351C5.39831 17.6319 5.5487 17.573 5.70236 17.5272C5.85603 17.4815 6.01295 17.4422 6.0391 17.4455C6.1993 17.4619 6.34643 17.4847 6.47721 17.5174C6.50663 17.524 6.46086 17.5436 6.41509 17.5665C6.36932 17.5894 6.32354 17.609 6.3497 17.6155C6.37258 17.6221 6.46413 17.609 6.55894 17.6024C6.65376 17.5959 6.74531 17.5926 6.76819 17.5992C6.85646 17.6286 6.93819 17.6613 7.00685 17.694C7.02974 17.7038 6.96762 17.7136 6.9055 17.7234C6.84338 17.7332 6.78453 17.7463 6.80088 17.7561C6.8303 17.7692 6.93819 17.779 7.04608 17.7953C7.1507 17.8117 7.25533 17.8346 7.27822 17.8476C7.39591 17.9294 7.43841 17.9882 7.43841 17.985C7.43841 17.985 7.36976 17.9817 7.23571 17.9752C7.21937 17.9752 7.12782 17.9294 7.02647 17.8902C6.92838 17.8509 6.82377 17.8182 6.80415 17.8215C6.79107 17.8215 6.85973 17.8575 6.92512 17.8934C6.9905 17.9294 7.05261 17.9686 7.03954 17.9686C6.95126 17.9653 6.84339 17.9653 6.72569 17.9653C6.70607 17.9653 6.60144 17.913 6.49028 17.8673C6.37912 17.8215 6.26469 17.779 6.2418 17.7823C6.21892 17.7855 6.29086 17.828 6.35952 17.8738C6.42817 17.9196 6.49355 17.9653 6.47066 17.9653L6.36277 17.9686C6.34315 17.9686 6.21566 17.9163 6.08815 17.8738C5.96391 17.8313 5.83968 17.7986 5.84949 17.8084C5.88219 17.8542 5.96392 17.8934 6.0293 17.9228C6.09469 17.9523 6.147 17.9719 6.12738 17.9719C5.96391 17.9784 5.78409 17.985 5.5912 18.0046C5.56177 18.0078 5.48985 17.9752 5.41793 17.949C5.36235 17.9163 5.28715 17.8934 5.25446 17.9Z" fill="white"/>
        <path d="M5.21777 19.0769C5.20796 19.0737 5.21777 19.1162 5.22431 19.1554C5.23085 19.1946 5.2374 19.2371 5.23086 19.2339C5.13931 19.211 5.04449 19.1946 4.95295 19.1717C4.89737 19.1587 4.82218 19.0965 4.75352 19.0442C4.68486 18.9919 4.62601 18.9527 4.62601 18.9625C4.63908 19.0246 4.68487 19.0671 4.71756 19.0965C4.75025 19.126 4.77641 19.1423 4.75679 19.1391C4.62275 19.126 4.50179 19.126 4.39716 19.1358C4.38409 19.1358 4.33503 19.1194 4.28272 19.1064C4.23041 19.0933 4.17484 19.0867 4.16176 19.09C4.14541 19.0965 4.16831 19.1129 4.19119 19.1292C4.21408 19.1456 4.23695 19.1619 4.2206 19.1652C4.04406 19.2077 3.91983 19.2894 3.83809 19.3483C3.79886 19.3777 3.76615 19.4039 3.74654 19.4202L3.71712 19.4464C3.71712 19.4464 3.71386 19.4235 3.7204 19.3777C3.72694 19.3319 3.73674 19.26 3.78252 19.1619C3.8054 19.1162 3.83809 19.0606 3.88059 19.0083C3.92637 18.9527 3.98194 18.8971 4.05386 18.8448C4.19772 18.7402 4.40369 18.6552 4.64562 18.6258C4.66851 18.6225 4.59006 18.6715 4.51813 18.7271C4.4462 18.7827 4.38408 18.8448 4.40696 18.8383C4.41677 18.835 4.44947 18.8154 4.49524 18.7892C4.54101 18.7631 4.59987 18.7336 4.66199 18.7042C4.78622 18.6486 4.91699 18.6094 4.94315 18.6127C5.00854 18.6159 5.07064 18.6192 5.13603 18.629C5.16219 18.6323 5.06411 18.665 4.97256 18.7042C4.88102 18.7435 4.79602 18.7892 4.81891 18.7892C4.83199 18.7892 4.9595 18.7467 5.09355 18.7173C5.22759 18.6879 5.36489 18.6715 5.38124 18.6748C5.40085 18.6781 5.41721 18.6846 5.43683 18.6879C5.52184 18.7108 5.60029 18.7369 5.67549 18.7663C5.70165 18.7761 5.61992 18.7925 5.53818 18.8121C5.45645 18.8317 5.37799 18.8579 5.40087 18.8644C5.42049 18.871 5.54146 18.8612 5.66569 18.8644C5.78993 18.8644 5.91415 18.8742 5.93377 18.884C6.04166 18.9429 6.13649 19.0083 6.21822 19.0704C6.23784 19.0835 6.19533 19.09 6.15283 19.0965C6.11033 19.1031 6.07109 19.1129 6.08744 19.126C6.10052 19.1358 6.16916 19.1521 6.24109 19.1717C6.30975 19.1914 6.37841 19.2142 6.39149 19.2241C6.4438 19.2764 6.48631 19.3254 6.52227 19.3712C6.53208 19.3875 6.48631 19.3777 6.43727 19.3712C6.38823 19.3646 6.33918 19.3614 6.34899 19.3712C6.36533 19.3908 6.43725 19.4268 6.50591 19.4693C6.57457 19.5085 6.64323 19.5543 6.64977 19.5706C6.69881 19.6687 6.70536 19.7243 6.70536 19.7243C6.70536 19.7243 6.65304 19.7047 6.55823 19.6687C6.54515 19.6654 6.49937 19.6033 6.44706 19.5445C6.39475 19.4856 6.33592 19.43 6.31957 19.4268C6.30976 19.4235 6.34245 19.4725 6.37187 19.5216C6.4013 19.5706 6.42746 19.6197 6.41765 19.6164L6.19859 19.5346C6.18551 19.5314 6.13647 19.4595 6.07762 19.3875C6.02204 19.3189 5.95993 19.2502 5.94358 19.2437C5.92724 19.2404 5.95993 19.2993 5.98609 19.3581C6.01551 19.4169 6.03839 19.4758 6.02205 19.4693L5.95013 19.4431C5.93705 19.4398 5.87166 19.3581 5.803 19.2862C5.73434 19.2142 5.66569 19.1489 5.66569 19.1619C5.67223 19.2142 5.71146 19.2731 5.74416 19.3189C5.77685 19.3646 5.80299 19.3941 5.78991 19.3908C5.67875 19.3516 5.55453 19.3123 5.42049 19.2731C5.3976 19.2666 5.36163 19.2175 5.32566 19.1685C5.28316 19.1292 5.24065 19.0835 5.21777 19.0769Z" fill="white"/>
        <path d="M5.01249 20.2702C5.00595 20.2637 4.99613 20.3029 4.98632 20.3421C4.97652 20.3814 4.9667 20.4206 4.95689 20.4141C4.88496 20.3585 4.80978 20.3062 4.74112 20.2441C4.69862 20.2081 4.66265 20.1165 4.62995 20.0381C4.59726 19.9596 4.57437 19.8942 4.5711 19.904C4.54822 19.9629 4.5613 20.0217 4.57438 20.0675C4.58746 20.11 4.60379 20.1394 4.58745 20.1264L4.2834 19.904C4.27032 19.8942 4.24416 19.8452 4.218 19.7994C4.19185 19.7504 4.16244 19.7046 4.15263 19.6948C4.12321 19.6719 4.1559 19.806 4.12647 19.7863C3.96954 19.6686 3.85512 19.5738 3.78319 19.5084C3.70799 19.4431 3.67529 19.4038 3.67529 19.4038C3.67529 19.4038 3.75702 19.3842 3.93684 19.4005C4.02511 19.4071 4.13954 19.4234 4.28012 19.4594C4.42071 19.4954 4.58418 19.5477 4.77053 19.6359C4.79015 19.6458 4.70841 19.649 4.62668 19.6588C4.54494 19.6654 4.46648 19.6784 4.4861 19.685C4.50571 19.6915 4.62342 19.6981 4.74112 19.7111C4.85882 19.7242 4.97978 19.7406 4.9994 19.7504C5.04844 19.7765 5.09748 19.806 5.14325 19.8386C5.16287 19.8517 5.07132 19.8452 4.97978 19.8419C4.88824 19.8386 4.79997 19.8419 4.81958 19.8517C4.82939 19.8583 4.95036 19.8746 5.07133 19.9008C5.1923 19.9237 5.31326 19.9563 5.32634 19.9662L5.36557 19.9988C5.42768 20.0479 5.48327 20.1002 5.53558 20.1492C5.5552 20.1656 5.47674 20.1558 5.39827 20.146C5.31981 20.1362 5.2446 20.1329 5.26094 20.1492C5.27402 20.1623 5.38191 20.195 5.4898 20.2375C5.5977 20.2767 5.70232 20.3291 5.71539 20.3421C5.78732 20.4304 5.84618 20.5187 5.89195 20.6037C5.90176 20.6233 5.86252 20.6135 5.82329 20.607C5.78406 20.6004 5.74482 20.5939 5.75463 20.6102C5.76116 20.6233 5.81674 20.6593 5.87232 20.6985C5.9279 20.7377 5.98022 20.7802 5.98349 20.7933C6.00964 20.8554 6.02598 20.9143 6.03906 20.9666C6.04233 20.9829 6.0031 20.9601 5.9606 20.9372C5.92137 20.9143 5.87887 20.8947 5.88214 20.9077C5.88868 20.9306 5.93772 20.9862 5.98349 21.0451C6.02926 21.1039 6.07177 21.1628 6.07177 21.1824C6.07504 21.2837 6.06522 21.336 6.06522 21.336C6.06522 21.336 6.02271 21.3066 5.95405 21.2445C5.94425 21.238 5.92791 21.1693 5.90175 21.1006C5.87887 21.032 5.84944 20.9633 5.83636 20.9568C5.82982 20.9502 5.83964 21.0058 5.84618 21.0581C5.85272 21.1104 5.85599 21.1628 5.84945 21.1562L5.68598 21.0156C5.67617 21.0058 5.65982 20.9274 5.6402 20.8456C5.61732 20.7639 5.59116 20.6822 5.57809 20.6756C5.56501 20.6658 5.56827 20.7312 5.57154 20.79C5.57154 20.8522 5.56828 20.911 5.55847 20.9012L5.50615 20.8554C5.49634 20.8456 5.4702 20.7541 5.44078 20.6658C5.41135 20.5775 5.37538 20.4958 5.36884 20.5089C5.35249 20.5579 5.36558 20.6233 5.37538 20.6756C5.38519 20.7279 5.39826 20.7639 5.38845 20.7541C5.30672 20.6854 5.21519 20.6102 5.11384 20.5285C5.09749 20.5154 5.08768 20.4566 5.07133 20.3977C5.04845 20.3454 5.0321 20.2833 5.01249 20.2702Z" fill="white"/>
        <path d="M2.66445 19.7896C2.66772 19.7831 2.63504 19.7668 2.59908 19.7504C2.56311 19.7341 2.52715 19.7177 2.53369 19.7112C2.586 19.6556 2.64158 19.6033 2.7037 19.5641C2.74293 19.5412 2.82793 19.5477 2.89658 19.5608C2.93255 19.5673 2.95871 19.5771 2.98814 19.5804C3.00121 19.5837 3.00774 19.5869 3.01428 19.5869C3.02082 19.5869 3.02082 19.5869 3.02082 19.5869C3.01101 19.5739 3.0012 19.5641 2.99139 19.5542C2.98485 19.5477 2.98159 19.5444 2.97832 19.5412C2.97178 19.5379 2.96524 19.5346 2.9587 19.5314C2.94563 19.5248 2.93255 19.5216 2.91947 19.5183C2.90966 19.515 2.89985 19.5117 2.89004 19.5085C2.85081 19.4987 2.82466 19.4987 2.84101 19.4889C2.85409 19.4823 2.86389 19.4758 2.87697 19.4692C2.88678 19.466 2.9064 19.4529 2.92602 19.4464L2.98486 19.4267C3.0241 19.4137 3.0666 19.4006 3.10583 19.3875C3.11564 19.3842 3.16141 19.3973 3.20718 19.4104C3.24968 19.4235 3.29218 19.4431 3.30526 19.4398C3.31834 19.4398 3.30199 19.4169 3.28237 19.3973C3.26275 19.3777 3.24314 19.3581 3.25948 19.3548C3.34122 19.345 3.41969 19.3515 3.48834 19.3744C3.55373 19.3973 3.59297 19.4366 3.61586 19.4692C3.63874 19.5052 3.64855 19.5346 3.65181 19.5542C3.65508 19.5739 3.65509 19.5837 3.65509 19.5837C3.65509 19.5837 3.64201 19.5804 3.61586 19.5771C3.5897 19.5739 3.55374 19.5739 3.51123 19.5935C3.49162 19.6033 3.47201 19.6164 3.45566 19.6327C3.43604 19.6491 3.41642 19.6687 3.39027 19.6948L3.29871 19.7798C3.28237 19.7962 3.26275 19.8125 3.23987 19.8322C3.23006 19.842 3.21699 19.8518 3.20391 19.8616L3.18429 19.8779L3.17448 19.8845C3.17121 19.8845 3.17122 19.8877 3.17122 19.8877C3.17122 19.8877 3.17122 19.8877 3.16795 19.8812C3.16468 19.8779 3.16141 19.8714 3.16468 19.8583L3.18429 19.7733C3.19737 19.7112 3.20717 19.6523 3.19736 19.6589C3.19082 19.6621 3.18103 19.685 3.16795 19.7145L3.14506 19.7635L3.13199 19.7929L3.12872 19.7995L3.12545 19.8027C3.12545 19.806 3.12545 19.8093 3.12545 19.8125V19.8191C3.12545 19.8223 3.12544 19.8223 3.12217 19.8256L3.1189 19.8387L3.11238 19.8648L3.09929 19.9139C3.09275 19.9433 3.08621 19.9629 3.08294 19.9662C3.06333 19.9858 3.04371 20.0054 3.0241 20.025C3.01756 20.0349 3.01101 19.9727 3.01428 19.9073C3.01755 19.8452 3.02409 19.7766 3.01428 19.7864C3.00774 19.7896 2.98485 19.8714 2.97177 19.9466C2.9587 20.025 2.9587 20.097 2.95216 20.1002L2.93582 20.1166C2.91293 20.1427 2.89004 20.1689 2.87042 20.1951C2.86388 20.2049 2.84427 20.1558 2.82792 20.1035C2.81157 20.0512 2.80504 19.9956 2.79523 20.0022C2.78869 20.0087 2.7789 20.0806 2.78544 20.1493C2.78871 20.2179 2.80505 20.2768 2.80178 20.2833C2.77235 20.3226 2.7462 20.3585 2.72004 20.3945C2.71351 20.401 2.69388 20.3847 2.671 20.3651C2.64811 20.3454 2.6285 20.3226 2.62197 20.3291C2.61543 20.3356 2.62523 20.3749 2.63831 20.4076C2.65139 20.4435 2.66772 20.473 2.66445 20.4795C2.6481 20.5089 2.63177 20.5351 2.61869 20.5645C2.61542 20.5743 2.58926 20.5547 2.56637 20.5318C2.54349 20.5089 2.52061 20.486 2.51734 20.4926C2.50753 20.5056 2.51734 20.5514 2.53369 20.5939C2.54676 20.6364 2.56637 20.6724 2.5631 20.6855C2.53694 20.7476 2.51734 20.7835 2.51734 20.7835C2.51734 20.7835 2.48138 20.7672 2.43234 20.7149C2.4258 20.7083 2.42907 20.656 2.43561 20.607C2.44215 20.558 2.45849 20.5089 2.45195 20.4991C2.44868 20.4926 2.42579 20.5253 2.40617 20.5612C2.38656 20.5972 2.37021 20.6364 2.36367 20.6266C2.33752 20.5841 2.31137 20.5285 2.29503 20.4631C2.29176 20.4533 2.33099 20.3912 2.37349 20.3389C2.41599 20.2866 2.46502 20.2474 2.46502 20.2343C2.46502 20.2245 2.41599 20.2408 2.37022 20.267C2.32117 20.2931 2.27539 20.3258 2.27539 20.3127C2.27539 20.2931 2.27539 20.2702 2.27866 20.2506C2.27866 20.2376 2.34078 20.1754 2.4029 20.1297C2.46502 20.0839 2.52388 20.0512 2.51407 20.0479C2.46503 20.0381 2.40945 20.0577 2.37022 20.0774C2.32771 20.1002 2.30155 20.1231 2.30482 20.1133C2.32771 20.0185 2.37347 19.9204 2.43886 19.8256C2.44867 19.8093 2.50426 19.8027 2.55657 19.7962C2.60235 19.8027 2.65464 19.8027 2.66445 19.7896Z" fill="white"/>
        <path d="M3.10578 18.7957C3.11232 18.7989 3.11233 18.7597 3.11233 18.7205C3.11233 18.6812 3.10904 18.642 3.11558 18.6453C3.1777 18.6616 3.2431 18.6812 3.29541 18.7172C3.32811 18.7401 3.35425 18.812 3.36733 18.8741C3.38041 18.9395 3.38368 18.9918 3.38695 18.982C3.4131 18.9264 3.41637 18.8741 3.40984 18.8349C3.40657 18.7989 3.39675 18.776 3.40656 18.7826C3.48176 18.8349 3.54061 18.8937 3.58965 18.9526C3.59619 18.9591 3.59947 19.0016 3.60274 19.0441C3.60274 19.0866 3.60272 19.1259 3.60599 19.1357C3.61253 19.1455 3.62235 19.1226 3.63542 19.0997C3.6485 19.0768 3.65832 19.0507 3.66159 19.0605C3.7237 19.1749 3.73677 19.2763 3.7335 19.3416C3.73023 19.407 3.71061 19.4365 3.71061 19.4365C3.71061 19.4365 3.65831 19.4103 3.57003 19.3809C3.48176 19.3514 3.36079 19.3122 3.20059 19.2632C3.19405 19.2599 3.23983 19.2338 3.28887 19.2109C3.33791 19.188 3.39021 19.1684 3.38367 19.1651C3.37387 19.1618 3.30194 19.1716 3.23655 19.1912C3.17116 19.2109 3.11232 19.237 3.10251 19.237L3.04039 19.2207C3.03058 19.2174 3.07636 19.1814 3.1254 19.152C3.17444 19.1193 3.23001 19.0932 3.2202 19.0899C3.21367 19.0866 3.14501 19.1095 3.0829 19.1389C3.02078 19.1684 2.96847 19.2043 2.9652 19.2043L2.94886 19.2011L2.87365 19.1847C2.86711 19.1847 2.89 19.1422 2.9227 19.103C2.95539 19.0637 2.99463 19.0278 2.98482 19.0245C2.97828 19.0212 2.91942 19.0507 2.87692 19.0899C2.85404 19.1095 2.83443 19.1291 2.82135 19.1455C2.80827 19.1618 2.80173 19.1716 2.79846 19.1716L2.71672 19.1487C2.71019 19.1487 2.70691 19.1226 2.70691 19.0932C2.70691 19.067 2.71019 19.0376 2.70365 19.0343C2.69712 19.0343 2.68076 19.0572 2.67095 19.0834C2.66114 19.1095 2.66115 19.1324 2.65788 19.1324C2.63499 19.1291 2.6121 19.1291 2.59249 19.1324C2.58595 19.1324 2.57614 19.1095 2.5696 19.0834C2.56306 19.0572 2.56306 19.0278 2.55325 19.0278C2.54018 19.0278 2.52056 19.0605 2.51075 19.0932C2.50094 19.1259 2.49767 19.1586 2.48786 19.1618C2.43555 19.1847 2.40286 19.2011 2.40286 19.2011C2.40286 19.2011 2.37997 19.1716 2.3669 19.1095C2.36363 19.103 2.39632 19.067 2.42902 19.0409C2.46498 19.0114 2.50094 18.9951 2.50421 18.9853C2.50421 18.9787 2.47152 18.982 2.43229 18.9918C2.39633 19.0016 2.36035 19.018 2.36035 19.0114C2.36689 18.9657 2.38324 18.9068 2.42247 18.848C2.42574 18.8447 2.44536 18.8382 2.47152 18.8349C2.49768 18.8316 2.53036 18.8316 2.56305 18.8349C2.62844 18.8414 2.68075 18.861 2.68729 18.8578C2.69383 18.8512 2.65787 18.8218 2.6121 18.7957C2.56633 18.7695 2.51401 18.7532 2.52382 18.7433C2.54017 18.7303 2.55653 18.7205 2.57614 18.7074C2.58268 18.7041 2.60557 18.7074 2.63499 18.7139C2.66441 18.7205 2.70037 18.7335 2.73307 18.7499C2.79846 18.7793 2.84423 18.8185 2.84096 18.8055C2.82789 18.7597 2.79192 18.7205 2.75596 18.6943C2.71999 18.6681 2.6873 18.6583 2.69711 18.6551C2.78538 18.6289 2.88346 18.6191 2.98155 18.6289C2.99789 18.6322 3.02732 18.6714 3.05021 18.7172C3.0731 18.7499 3.09271 18.7924 3.10578 18.7957Z" fill="white"/>
        <path d="M1.7687 22.405C1.75889 22.4116 1.79486 22.4312 1.83082 22.4541C1.86679 22.477 1.89948 22.4999 1.88967 22.5031C1.80793 22.5522 1.73602 22.6143 1.65755 22.6797C1.63467 22.6993 1.59544 22.7156 1.5562 22.732C1.5464 22.7353 1.53331 22.7418 1.5235 22.7451C1.51369 22.7483 1.50389 22.7516 1.49081 22.7549L1.42215 22.7843C1.33387 22.8203 1.25869 22.8497 1.27177 22.8562C1.33062 22.8824 1.39599 22.866 1.44504 22.8497C1.49408 22.8333 1.5235 22.817 1.51043 22.8366C1.40254 22.9608 1.31425 23.0818 1.23579 23.1897C1.22598 23.206 1.17368 23.2387 1.12137 23.2747C1.06906 23.3107 1.02001 23.3499 1.0102 23.3662C1.00039 23.3859 1.02655 23.3793 1.05598 23.3761C1.0854 23.3728 1.11483 23.3662 1.10502 23.3826C0.980788 23.5788 0.89904 23.7324 0.84673 23.8338C0.794419 23.9384 0.768267 23.9907 0.768267 23.9907C0.768267 23.9907 0.758457 23.9678 0.745379 23.9188C0.732302 23.8697 0.719238 23.788 0.719238 23.6768C0.719238 23.5657 0.729038 23.4186 0.77154 23.2453C0.814042 23.0687 0.889241 22.8628 1.02002 22.6372C1.03309 22.6143 1.02329 22.7124 1.02002 22.8072C1.01675 22.902 1.01674 22.9968 1.02982 22.9739C1.03962 22.951 1.06252 22.8104 1.09848 22.6699C1.10829 22.6339 1.1181 22.6012 1.12791 22.5652C1.13772 22.5325 1.14752 22.5031 1.15733 22.4704L1.17367 22.4279C1.18021 22.4149 1.18349 22.405 1.18676 22.3952C1.19657 22.3756 1.20311 22.3625 1.20638 22.356C1.25215 22.2972 1.30445 22.2416 1.3633 22.1893C1.38619 22.1664 1.33387 22.2743 1.30118 22.3822C1.28483 22.4345 1.27176 22.49 1.26522 22.526C1.25868 22.5652 1.25868 22.5849 1.26522 22.5718C1.26849 22.5685 1.27176 22.5554 1.28157 22.5391L1.30773 22.4704C1.33061 22.4149 1.3633 22.3462 1.40253 22.2775C1.44176 22.2089 1.48754 22.1402 1.52677 22.0912C1.566 22.0421 1.5987 22.0062 1.60851 22.0029C1.62812 21.9898 1.64774 21.98 1.67062 21.9669C1.76871 21.9146 1.86679 21.8754 1.96161 21.8492C1.9943 21.8394 1.92237 21.9081 1.86026 21.98C1.79814 22.0519 1.74582 22.1337 1.77198 22.1206C1.78178 22.1141 1.81448 22.0879 1.85698 22.0519C1.89948 22.016 1.95833 21.9735 2.02045 21.931C2.14142 21.8492 2.27873 21.7904 2.30162 21.7871C2.44547 21.7773 2.57624 21.7871 2.6874 21.8002C2.71356 21.8035 2.67761 21.8296 2.64165 21.8558C2.60568 21.8819 2.56971 21.9114 2.5926 21.9146C2.61221 21.9179 2.6874 21.895 2.76587 21.8754C2.84433 21.8558 2.91953 21.8394 2.93588 21.8427C3.01108 21.8591 3.07974 21.8754 3.14185 21.895C3.18109 21.9048 2.95223 21.9833 2.98493 21.9931C3.03724 22.0094 3.34455 21.9604 3.38379 21.9735C3.49495 22.0127 3.55053 22.0421 3.55053 22.0421C3.55053 22.0421 3.49822 22.0716 3.38706 22.1075C3.35763 22.1173 3.03396 22.0487 2.998 22.0585C2.97511 22.065 3.2432 22.15 3.22032 22.1566C3.14185 22.1762 3.05359 22.1958 2.94897 22.2154C2.93262 22.2187 2.83454 22.1827 2.73972 22.1533C2.64164 22.1206 2.54355 22.0944 2.52721 22.101C2.50759 22.1043 2.57298 22.1402 2.6351 22.1762C2.69722 22.2121 2.75607 22.2514 2.73645 22.2547L2.64817 22.271C2.63182 22.2743 2.52068 22.2383 2.41606 22.2121C2.31144 22.186 2.2068 22.1729 2.21661 22.1827C2.25257 22.222 2.32125 22.2481 2.37683 22.2677C2.43241 22.2873 2.47489 22.3004 2.46181 22.3037C2.33431 22.3298 2.20353 22.3658 2.07603 22.4181C2.05641 22.4279 1.99756 22.4116 1.93217 22.4018C1.86025 22.392 1.79159 22.3887 1.7687 22.405Z" fill="white"/>
        <path d="M0.843143 22.1174C0.836604 22.1304 0.882376 22.1239 0.924878 22.1206C0.96738 22.1174 1.00988 22.1141 1.00661 22.1239C0.954302 22.2318 0.915055 22.3495 0.869284 22.4639C0.843129 22.5326 0.76466 22.6209 0.702541 22.7026C0.640423 22.7843 0.588113 22.853 0.601191 22.853C0.663309 22.8464 0.715627 22.7941 0.75159 22.7549C0.787554 22.7157 0.807161 22.683 0.803892 22.7091C0.764659 22.8824 0.745051 23.0393 0.75159 23.1734C0.75159 23.193 0.731979 23.2486 0.715632 23.3107C0.699285 23.3728 0.696002 23.4382 0.702541 23.4545C0.70908 23.4774 0.725445 23.4513 0.741792 23.4251C0.758139 23.399 0.774485 23.3761 0.781024 23.3957C0.807179 23.5036 0.849679 23.5919 0.90199 23.6605C0.9543 23.7292 1.01315 23.7782 1.06219 23.8142C1.1145 23.8501 1.157 23.8763 1.18315 23.8927L1.22566 23.9155C1.22566 23.9155 1.1995 23.9253 1.14065 23.9286C1.11122 23.9319 1.07527 23.9319 1.02623 23.9286C0.980457 23.9253 0.924874 23.9155 0.859486 23.8927C0.794098 23.8698 0.722166 23.8338 0.65024 23.7782C0.578313 23.7226 0.506388 23.6442 0.447539 23.5428C0.388689 23.4447 0.339654 23.327 0.310229 23.1963C0.280805 23.0655 0.267729 22.9216 0.270998 22.768C0.270998 22.7386 0.306962 22.8432 0.352733 22.9413C0.398505 23.0393 0.454077 23.1309 0.447539 23.1015C0.444269 23.0851 0.427924 23.0426 0.408307 22.9805C0.388691 22.9184 0.365808 22.8399 0.349461 22.7582C0.316767 22.5947 0.303691 22.428 0.310229 22.3953C0.326576 22.3168 0.346194 22.2351 0.372349 22.1599C0.382157 22.1272 0.388691 22.2514 0.408307 22.3724C0.424654 22.4933 0.45407 22.6045 0.460609 22.5751C0.463878 22.5653 0.457353 22.5195 0.454084 22.4574C0.450814 22.392 0.447542 22.3103 0.450811 22.2253C0.454081 22.0552 0.480231 21.8852 0.48677 21.8656C0.496578 21.8427 0.506378 21.8231 0.519456 21.8002C0.571766 21.6989 0.627349 21.6041 0.686198 21.5191C0.705815 21.4896 0.689464 21.5943 0.682926 21.6956C0.673117 21.797 0.676393 21.895 0.689471 21.8689C0.702548 21.846 0.731966 21.6956 0.784276 21.5485C0.810431 21.4733 0.839859 21.3981 0.869284 21.3425C0.895439 21.2837 0.921595 21.2444 0.931403 21.2346C1.05237 21.1169 1.17989 21.0254 1.31394 20.9633C1.34336 20.9502 1.31719 20.996 1.2943 21.0417C1.27142 21.0875 1.25507 21.1365 1.27796 21.1235C1.29757 21.1137 1.35969 21.0417 1.43816 20.9796C1.47739 20.9502 1.51663 20.9208 1.5526 20.9012C1.58856 20.8815 1.61798 20.8685 1.62779 20.8652C1.73241 20.8521 1.82722 20.8554 1.90895 20.8717C1.93511 20.8783 1.86972 20.8979 1.81414 20.9273C1.7553 20.9567 1.70625 20.9927 1.72586 20.9927C1.74221 20.9927 1.77492 20.9862 1.81742 20.9796C1.85992 20.9731 1.91224 20.9665 1.96782 20.9665C2.02013 20.9665 2.07569 20.9698 2.1182 20.9796C2.1607 20.9894 2.19012 20.9992 2.19993 21.0058C2.25551 21.0483 2.29148 21.0875 2.3111 21.1137C2.33072 21.1398 2.34051 21.1562 2.34051 21.1562L2.29148 21.1496C2.25879 21.1431 2.213 21.1365 2.15415 21.1333C2.13781 21.1333 2.05936 21.0875 1.96454 21.0646C1.91877 21.0548 1.86972 21.0483 1.83049 21.0483C1.79125 21.0483 1.76183 21.0515 1.75203 21.0548C1.74222 21.0614 1.81088 21.0679 1.87626 21.0875C1.94165 21.1071 1.99396 21.1365 1.98089 21.1398C1.90569 21.1496 1.82396 21.1758 1.74223 21.2183C1.73569 21.2216 1.70952 21.2216 1.67029 21.2216C1.63106 21.2248 1.58202 21.2281 1.52971 21.2379C1.42836 21.2575 1.32047 21.3033 1.31066 21.3196C1.29759 21.336 1.37278 21.3196 1.44797 21.3164C1.52317 21.3098 1.58856 21.3196 1.57548 21.3294C1.5526 21.3458 1.53298 21.3654 1.51009 21.385C1.50355 21.3916 1.47413 21.4014 1.43163 21.4177C1.38913 21.4341 1.33354 21.4569 1.28123 21.4831C1.17661 21.5354 1.07853 21.6073 1.09487 21.6073C1.15045 21.6106 1.22566 21.5779 1.28778 21.555C1.34663 21.5321 1.39239 21.5125 1.37931 21.5256C1.29104 21.6302 1.19949 21.761 1.11449 21.9114C1.10141 21.9343 1.0393 21.9702 0.97718 22.0095C0.915061 22.0422 0.856221 22.0879 0.843143 22.1174Z" fill="white"/>
        <path d="M1.54292 25.2234C1.53311 25.2071 1.45464 25.3607 1.44156 25.3444L1.3631 25.2201L1.34349 25.1875L1.32387 25.1515L1.31407 25.1351L1.30426 25.1155C1.29772 25.1024 1.29445 25.0926 1.28791 25.0828C1.26503 25.0305 1.26503 24.9292 1.27157 24.8442C1.27484 24.7592 1.28138 24.6872 1.27157 24.697C1.1833 24.782 1.2127 24.939 1.19309 24.9063C1.1277 24.782 1.06885 24.6742 1.01 24.5826C1.00346 24.5695 0.996925 24.5172 0.990386 24.4649C0.983848 24.4126 0.970784 24.357 0.964246 24.3472C0.954437 24.3341 0.944624 24.3603 0.938085 24.3864C0.928277 24.4126 0.921732 24.4388 0.911924 24.4257C0.807303 24.272 0.715761 24.1674 0.647104 24.0955C0.578446 24.0268 0.54248 23.9909 0.54248 23.9909C0.54248 23.9909 0.562101 23.9843 0.607872 23.9843C0.653644 23.9843 0.719034 23.9843 0.813846 24.0072C0.908659 24.0301 1.02635 24.0759 1.15713 24.1609C1.2879 24.2459 1.42849 24.3734 1.5658 24.5368C1.57888 24.5532 1.50041 24.5205 1.42195 24.4943C1.34348 24.4649 1.26502 24.442 1.2781 24.4584C1.29444 24.4747 1.39906 24.5303 1.50368 24.5924C1.60831 24.6545 1.70967 24.7232 1.72275 24.7428L1.77178 24.8115L1.79139 24.8409L1.81428 24.8703C1.82082 24.8801 1.80447 24.8736 1.77505 24.8638L1.75216 24.854C1.74562 24.8507 1.73581 24.8474 1.726 24.8442L1.66715 24.8147C1.58542 24.7755 1.5037 24.7363 1.51677 24.7559C1.52004 24.7624 1.54946 24.782 1.58542 24.8082L1.65081 24.854L1.68677 24.8801L1.72275 24.903C1.74563 24.9161 1.77178 24.9357 1.79794 24.9521L1.86333 24.9978C1.90256 25.024 1.92871 25.0436 1.93197 25.0501L1.95814 25.0926C1.99737 25.158 2.03661 25.2201 2.0693 25.2823C2.08238 25.3052 2.01045 25.2725 1.93852 25.2398C1.86659 25.2103 1.79793 25.1776 1.80774 25.2005C1.81754 25.2169 1.90582 25.2823 1.99737 25.3509C2.08564 25.4196 2.17719 25.4882 2.18372 25.5046C2.2295 25.6059 2.26872 25.6975 2.29815 25.7858C2.31122 25.825 2.15103 25.7334 2.16411 25.7694C2.16738 25.7825 2.21642 25.8283 2.26219 25.8773C2.30796 25.9231 2.35372 25.9721 2.35699 25.9852C2.37334 26.0473 2.38643 26.1062 2.39297 26.1617C2.39624 26.1781 2.35699 26.1519 2.31776 26.129C2.27853 26.1029 2.2393 26.08 2.24257 26.0931C2.24584 26.116 2.28835 26.1781 2.33085 26.2402C2.37335 26.3023 2.41259 26.3612 2.41259 26.3808C2.41586 26.4821 2.40604 26.5344 2.40604 26.5344C2.40604 26.5344 2.36355 26.505 2.29162 26.4396C2.28181 26.4298 2.26546 26.3612 2.24257 26.2892C2.22296 26.2173 2.20007 26.1454 2.187 26.1356C2.18046 26.129 2.18373 26.1846 2.187 26.2402C2.19027 26.2958 2.19354 26.3481 2.187 26.3415C2.14123 26.2958 2.0889 26.2402 2.03005 26.1748C2.02024 26.165 2.01372 26.08 2.00064 25.9917C1.99083 25.9035 1.97776 25.8184 1.96795 25.8054C1.95815 25.7923 1.94833 25.8577 1.93852 25.9198C1.92871 25.9819 1.91889 26.044 1.90909 26.031L1.86006 25.9721C1.85025 25.959 1.84043 25.8577 1.82735 25.7629C1.81427 25.6648 1.8012 25.5765 1.79467 25.5863C1.73909 25.6746 1.77505 25.8609 1.75871 25.8381C1.68678 25.7432 1.61486 25.6386 1.53639 25.5209C1.52658 25.4752 1.57234 25.2659 1.54292 25.2234Z" fill="white"/>
        <path d="M1.77545 23.4545C1.76891 23.4545 1.78854 23.4905 1.80488 23.5265C1.82123 23.5624 1.83756 23.5951 1.83102 23.5984C1.77218 23.6082 1.71661 23.6245 1.65776 23.6311C1.62179 23.6343 1.55313 23.6049 1.48774 23.582C1.42235 23.5592 1.36351 23.5395 1.37332 23.5493C1.40928 23.5984 1.45832 23.6245 1.49429 23.6409C1.52698 23.6572 1.54987 23.6638 1.53679 23.667C1.45179 23.6965 1.37658 23.7292 1.30466 23.7619C1.29485 23.7651 1.25235 23.7619 1.20658 23.7619C1.16081 23.7619 1.11504 23.7619 1.10523 23.7684C1.09215 23.7749 1.1183 23.7847 1.14446 23.7978C1.17061 23.8076 1.1935 23.8207 1.18369 23.824C1.05945 23.8926 0.964639 23.9547 0.895982 23.994C0.827324 24.0332 0.791359 24.0496 0.791359 24.0496C0.791359 24.0496 0.788086 24.0332 0.788086 23.9973C0.788086 23.9613 0.794627 23.909 0.810974 23.8371C0.830591 23.7651 0.860024 23.6769 0.922142 23.5722C0.984261 23.4709 1.07907 23.3499 1.22619 23.242C1.24254 23.2322 1.20985 23.3009 1.19024 23.3695C1.16735 23.4382 1.15754 23.5068 1.16735 23.497C1.18042 23.4872 1.21639 23.3957 1.27197 23.3074C1.32755 23.2191 1.39948 23.1341 1.41582 23.1276C1.4616 23.1047 1.50736 23.0884 1.55313 23.072C1.57275 23.0655 1.51717 23.1309 1.47467 23.1995C1.4289 23.2682 1.39621 23.3368 1.41255 23.3303C1.42236 23.327 1.4812 23.242 1.56293 23.1701C1.6414 23.0949 1.73294 23.0295 1.74602 23.0262C1.75909 23.023 1.77544 23.023 1.78852 23.0197C1.85718 23.0099 1.92258 23.0066 1.9847 23.0099C2.00758 23.0099 1.952 23.0557 1.89969 23.1014C1.84738 23.1472 1.80488 23.1995 1.82123 23.1995C1.83757 23.1995 1.91604 23.1472 2.00431 23.108C2.09259 23.0655 2.18412 23.0328 2.20047 23.036C2.29201 23.0557 2.37374 23.0818 2.4424 23.1145C2.45875 23.1211 2.42932 23.1407 2.3999 23.1636C2.37047 23.1832 2.34432 23.2061 2.35739 23.2126C2.3672 23.2191 2.41953 23.2093 2.47511 23.2028C2.52742 23.1962 2.58299 23.1897 2.5928 23.1962C2.63857 23.2257 2.6778 23.2551 2.71049 23.2813C2.7203 23.2911 2.68434 23.3009 2.64837 23.3139C2.61241 23.327 2.57644 23.3401 2.58298 23.3466C2.59606 23.3597 2.65491 23.3663 2.71049 23.3728C2.76607 23.3826 2.82165 23.3924 2.83146 23.4022C2.88377 23.4643 2.90013 23.5068 2.9034 23.5068C2.9034 23.5068 2.8609 23.5167 2.7857 23.5265C2.77589 23.5265 2.7301 23.497 2.68433 23.4643C2.63529 23.4349 2.58627 23.4055 2.57646 23.4088C2.56992 23.4088 2.59933 23.4415 2.62876 23.4741C2.65818 23.5068 2.68435 23.5395 2.67781 23.5395C2.62877 23.5428 2.56991 23.5493 2.50779 23.5526C2.49798 23.5526 2.45221 23.5068 2.40317 23.4611C2.35413 23.4153 2.29856 23.3761 2.28875 23.3761C2.27567 23.3761 2.30835 23.4218 2.33778 23.4676C2.3672 23.5134 2.39009 23.5592 2.38028 23.5592L2.32798 23.5624C2.31817 23.5624 2.26259 23.5101 2.20374 23.4676C2.14489 23.4218 2.08605 23.3859 2.08932 23.399C2.10567 23.4447 2.14163 23.4872 2.17105 23.5167C2.20048 23.5461 2.22337 23.5657 2.21356 23.569C2.13509 23.5722 2.05009 23.5788 1.96508 23.5886C1.952 23.5886 1.91931 23.5559 1.88007 23.5232C1.83103 23.484 1.7918 23.4513 1.77545 23.4545Z" fill="white"/>
        <path d="M10.214 24.9618C10.2794 25.0272 9.90344 25.3051 9.43919 25.8511C9.08282 26.2729 9.19071 26.469 8.65452 27.015C8.16411 27.512 7.5462 27.8553 6.79751 28.6563C6.25152 29.2382 5.81343 29.5684 5.74477 29.4998C5.67938 29.4344 6.05208 29.1238 6.52614 28.5647C6.87924 28.1495 6.95772 27.8455 7.76526 27.0248C8.77223 26.0015 8.84743 26.0473 9.25937 25.6877C9.80863 25.2103 10.1486 24.8965 10.214 24.9618Z" fill="white"/>
        <path d="M8.96504 25.6223C8.96504 25.5405 8.96504 25.4719 8.96504 25.4196C8.96177 25.3705 8.9585 25.3378 8.9585 25.3378C8.9585 25.3378 8.98139 25.3607 9.00427 25.4098C9.02716 25.4588 9.04678 25.534 9.04678 25.619C9.04678 25.6778 9.0435 25.74 9.04023 25.7988C9.03696 25.8577 9.03696 25.9067 9.04023 25.9427C9.02061 25.9557 9.001 25.9557 9.001 25.9557C9.001 25.9557 8.98465 25.9132 8.97811 25.8511C8.96503 25.789 8.96504 25.704 8.96504 25.6223Z" fill="white"/>
        <path d="M7.95397 26.4952C7.84281 26.4593 7.76434 26.3971 7.71529 26.3514C7.66625 26.3023 7.6499 26.2664 7.6499 26.2664C7.6499 26.2664 7.68261 26.286 7.74146 26.3187C7.8003 26.3481 7.88203 26.3873 7.98011 26.42C8.0455 26.4429 8.12398 26.4593 8.19918 26.4691C8.27438 26.4789 8.34302 26.4821 8.38879 26.4821C8.40187 26.5018 8.3986 26.5214 8.39533 26.5214C8.39533 26.5214 8.34303 26.5344 8.2613 26.5377C8.17629 26.5377 8.06186 26.5312 7.95397 26.4952Z" fill="white"/>
        <path d="M8.66338 25.5666C8.63069 25.4358 8.63396 25.3214 8.6405 25.2429C8.64703 25.1644 8.65684 25.1187 8.65684 25.1187C8.65684 25.1187 8.66665 25.1644 8.67973 25.2396C8.6928 25.3148 8.71242 25.4227 8.74185 25.5437C8.76146 25.6254 8.79416 25.7137 8.84647 25.7791C8.87262 25.8118 8.90205 25.8379 8.93148 25.8575C8.9609 25.8772 8.99033 25.8902 9.01648 25.9C9.02302 25.9229 9.01321 25.9425 9.01321 25.9425C9.01321 25.9425 8.99686 25.9393 8.96744 25.9327C8.94128 25.9262 8.89877 25.9098 8.85627 25.8804C8.81376 25.851 8.77127 25.8052 8.73857 25.7496C8.70588 25.6941 8.683 25.6319 8.66338 25.5666Z" fill="white"/>
        <path d="M8.6403 25.8773C8.60434 25.825 8.57491 25.776 8.55529 25.74C8.53568 25.704 8.52588 25.6812 8.52588 25.6812C8.52588 25.6812 8.54876 25.691 8.58473 25.7138C8.62069 25.7367 8.66646 25.776 8.70569 25.8348C8.73185 25.874 8.758 25.9231 8.76781 25.9721C8.78089 26.0212 8.77762 26.0735 8.76781 26.1029C8.74493 26.1062 8.72858 26.0964 8.72858 26.0964C8.72858 26.0964 8.73184 26.0669 8.71876 26.0244C8.70568 25.9852 8.67626 25.9329 8.6403 25.8773Z" fill="white"/>
        <path d="M6.5097 28.2051C6.4672 28.1495 6.44431 28.0939 6.43124 28.0547C6.41816 28.0155 6.41162 27.9893 6.41162 27.9893C6.41162 27.9893 6.43452 28.0024 6.46394 28.0318C6.49337 28.0612 6.53259 28.1037 6.57182 28.1561C6.59797 28.192 6.6274 28.228 6.6601 28.2574C6.69279 28.2868 6.72549 28.3065 6.74838 28.3163C6.74838 28.3391 6.74183 28.3555 6.74183 28.3555C6.74183 28.3555 6.70586 28.3555 6.65355 28.3326C6.60778 28.3097 6.5522 28.2607 6.5097 28.2051Z" fill="white"/>
        <path d="M6.26395 28.3032C6.13644 28.3293 6.0351 28.3784 5.96644 28.4209C5.89778 28.4634 5.86509 28.4993 5.86182 28.4993C5.86182 28.4993 5.88143 28.4535 5.94028 28.3914C5.9697 28.362 6.00893 28.326 6.06124 28.2966C6.11356 28.2672 6.17568 28.241 6.2476 28.2247C6.34242 28.2051 6.45685 28.2051 6.55493 28.2378C6.60397 28.2541 6.64648 28.277 6.68244 28.3032C6.7184 28.3293 6.74456 28.3555 6.76417 28.3784C6.75763 28.4012 6.73801 28.411 6.73801 28.411C6.73801 28.411 6.69223 28.3653 6.60723 28.3293C6.56473 28.3097 6.50915 28.2966 6.4503 28.2933C6.39145 28.2868 6.32606 28.2901 6.26395 28.3032Z" fill="white"/>
        <path d="M7.38603 27.1131C7.36641 27.051 7.35008 26.9954 7.337 26.9562C7.32392 26.917 7.31738 26.8908 7.31738 26.8908C7.31738 26.8908 7.34026 26.9039 7.36968 26.9366C7.39911 26.9693 7.43835 27.0183 7.46124 27.0902C7.49393 27.1818 7.50374 27.3028 7.50374 27.3616C7.48412 27.3714 7.46451 27.3714 7.46451 27.3714C7.46451 27.3714 7.4547 27.3387 7.43835 27.2897C7.42527 27.2406 7.40891 27.1752 7.38603 27.1131Z" fill="white"/>
        <path d="M6.7783 27.8095C6.70964 27.7735 6.6606 27.7245 6.63445 27.6885C6.60829 27.6526 6.59521 27.6264 6.59521 27.6264C6.59521 27.6264 6.62137 27.6395 6.66061 27.6591L6.81753 27.7408C6.86003 27.7637 6.90909 27.7866 6.95486 27.8095L6.96139 27.8128L6.96466 27.816H6.96793L6.97448 27.8226L6.99082 27.8324C7.00063 27.8389 7.01042 27.8455 7.02023 27.852C7.03985 27.8651 7.0562 27.8781 7.06928 27.888C7.06274 27.9108 7.04639 27.9239 7.04639 27.9239C7.04639 27.9239 7.01697 27.9076 6.96793 27.888L6.94832 27.8814C6.94178 27.8781 6.93197 27.8749 6.9287 27.8749C6.91235 27.8716 6.89927 27.8651 6.88292 27.8585C6.84696 27.8422 6.81426 27.8258 6.7783 27.8095Z" fill="white"/>
        <path d="M6.63647 27.8784C6.52204 27.8817 6.42397 27.898 6.35531 27.9078L6.24414 27.9274C6.24414 27.9274 6.27683 27.9013 6.34549 27.8718C6.41088 27.8424 6.51224 27.8065 6.63647 27.7999C6.71821 27.7966 6.81629 27.8065 6.89802 27.8359C6.97976 27.862 7.04842 27.9045 7.09092 27.9372C7.08765 27.9601 7.07131 27.9732 7.07131 27.9732C7.07131 27.9732 7.02226 27.9438 6.9438 27.9176C6.90456 27.9045 6.85553 27.8947 6.80649 27.8849C6.75091 27.8784 6.69532 27.8751 6.63647 27.8784Z" fill="white"/>
        <path d="M9.71355 25.1612C9.72336 25.1252 9.74298 25.0958 9.75932 25.0795C9.77567 25.0631 9.79203 25.0566 9.79203 25.0566C9.79203 25.0566 9.79529 25.0729 9.79856 25.0958C9.80182 25.1187 9.80184 25.1514 9.79203 25.1841C9.77895 25.2299 9.75933 25.2854 9.74625 25.3149C9.72337 25.3149 9.70702 25.3116 9.70702 25.3116C9.70375 25.3083 9.69393 25.2331 9.71355 25.1612Z" fill="white"/>
    </g>
    <path d="M15.6115 4.79945C15.6083 4.79945 15.605 4.79945 15.605 4.79945C15.5985 4.79945 15.5919 4.79945 15.5854 4.79945C15.5069 4.79618 15.4284 4.79945 15.3532 4.80272C15.3369 4.80272 15.3238 4.80599 15.3075 4.80599C15.2846 4.80599 15.2617 4.80926 15.2388 4.80926C14.222 4.89426 13.4145 5.45333 13.1857 6.19221C13.1857 6.19548 13.1857 6.19548 13.1824 6.19875C13.1758 6.22491 13.1693 6.25106 13.1628 6.27722C13.1628 6.28376 13.1595 6.28703 13.1595 6.29356C13.153 6.31645 13.1497 6.33934 13.1464 6.36549C13.1464 6.37203 13.1432 6.37857 13.1432 6.38511C13.1399 6.40799 13.1366 6.43088 13.1333 6.45377C13.1333 6.4603 13.1301 6.47011 13.1301 6.47665C13.1268 6.50608 13.1235 6.53877 13.1235 6.56819C13.1235 6.59435 13.1235 6.61724 13.1235 6.64339C13.1399 7.17303 13.506 7.85307 13.967 8.39906C14.1861 8.66061 14.4247 8.88947 14.6601 9.05948L14.67 9.06601H14.683L14.6765 9.26218C14.6765 9.30468 14.7059 9.33737 14.7484 9.34064L14.7975 9.34391H14.7876L14.8759 10.1449H14.8694C14.8498 10.1449 14.8367 10.158 14.8367 10.1776C14.8367 10.1841 14.84 10.1907 14.8432 10.1972C14.8465 10.2005 14.8465 10.2038 14.8498 10.2038C14.8498 10.2038 14.853 10.2038 14.853 10.207C14.8563 10.207 14.8596 10.2103 14.8596 10.2103L14.8498 10.5242C14.8498 10.5503 14.853 10.5732 14.8596 10.5961C14.8596 10.6026 14.8628 10.6059 14.8661 10.6092C14.8694 10.6157 14.8694 10.619 14.8727 10.6255C14.8759 10.6353 14.8825 10.6451 14.8857 10.6517C14.889 10.6549 14.889 10.6582 14.8923 10.6648C14.8988 10.6778 14.9086 10.6876 14.9184 10.6974C14.9217 10.7007 14.925 10.704 14.9282 10.704C14.9348 10.7105 14.9446 10.7203 14.9511 10.7269C14.9544 10.7301 14.9609 10.7334 14.9642 10.7367C14.9707 10.7432 14.9805 10.7465 14.9903 10.7498C14.9936 10.753 15.0002 10.753 15.0034 10.7563C15.0132 10.7596 15.023 10.7628 15.0329 10.7661C15.0361 10.7661 15.0427 10.7694 15.0459 10.7694C15.0623 10.7726 15.0754 10.7759 15.0917 10.7759L15.7194 10.7988C15.7358 10.7988 15.7521 10.7988 15.7685 10.7955C15.8339 10.7857 15.8894 10.7465 15.9287 10.6974C15.9581 10.6582 15.9744 10.6124 15.9744 10.5601L15.9843 10.2463C16.0006 10.243 16.0104 10.2332 16.0104 10.2168C16.0104 10.2103 16.0071 10.2038 16.0071 10.2005C16.0071 10.2005 16.0071 10.1972 16.0039 10.1972C16.0006 10.194 15.9973 10.1874 15.9908 10.1874C15.9875 10.1841 15.9843 10.1841 15.9777 10.1841H15.9744L16.1183 9.39295L16.1085 9.38969L16.1575 9.39295C16.2 9.39295 16.2327 9.36353 16.236 9.32103L16.2425 9.12486H16.2556L16.2654 9.11832C16.272 9.11506 16.2785 9.10852 16.285 9.10525L16.4093 9.02678H16.4027C17.1482 8.50041 17.9426 7.48363 17.9688 6.74147C18.0113 5.71488 16.952 4.84522 15.6115 4.79945ZM15.2127 10.1547L15.1931 9.35372L15.7162 9.37334L15.641 10.1711L15.2127 10.1547ZM14.8073 9.34064L15.1833 9.35372H15.1734L15.1931 10.1515L14.8955 10.1416L14.8073 9.34064ZM15.9581 10.1809L15.6606 10.1711L15.7358 9.37661H15.726L16.102 9.38969L15.9581 10.1809Z" fill="white"/>
    <path d="M26.188 15.5623H26.1847C26.1814 15.5623 26.1782 15.5623 26.1749 15.5623C26.139 15.5656 26.1063 15.5689 26.0703 15.5721C26.0638 15.5721 26.0572 15.5754 26.0507 15.5754C26.0409 15.5754 26.0311 15.5787 26.0212 15.5787C25.5668 15.6539 25.2235 15.935 25.1483 16.2751V16.2783C25.1451 16.2914 25.145 16.3012 25.1418 16.3143C25.1418 16.3176 25.1418 16.3176 25.1418 16.3208C25.1418 16.3306 25.1385 16.3437 25.1385 16.3535C25.1385 16.3568 25.1385 16.3601 25.1385 16.3633C25.1385 16.3731 25.1385 16.383 25.1353 16.396C25.1353 16.3993 25.1353 16.4026 25.1353 16.4058C25.1353 16.4189 25.1353 16.432 25.1353 16.4483C25.1353 16.4582 25.1353 16.4712 25.1385 16.481C25.1647 16.7197 25.3543 17.0107 25.5799 17.2395C25.6878 17.3474 25.8022 17.4422 25.9134 17.5109L25.9199 17.5142H25.9264L25.9297 17.6024C25.9297 17.6221 25.9461 17.6351 25.9657 17.6351H25.9886H25.9853L26.054 17.9915H26.0507C26.0441 17.9915 26.0376 17.998 26.0376 18.0078C26.0376 18.0111 26.0376 18.0144 26.0409 18.0177L26.0441 18.0209H26.0474L26.054 18.1615C26.054 18.1746 26.0572 18.1844 26.0605 18.1942C26.0605 18.1975 26.0638 18.1975 26.0638 18.2007C26.0638 18.204 26.067 18.204 26.067 18.2073C26.0703 18.2106 26.0703 18.2138 26.0736 18.2204C26.0736 18.2236 26.0768 18.2236 26.0768 18.2269C26.0801 18.2334 26.0866 18.2367 26.0899 18.24L26.0932 18.2432C26.0965 18.2465 26.0997 18.2498 26.1063 18.2531C26.1095 18.2531 26.1095 18.2563 26.1128 18.2563C26.1161 18.2596 26.1193 18.2596 26.1259 18.2629C26.1291 18.2629 26.1291 18.2661 26.1324 18.2661C26.1357 18.2661 26.1422 18.2694 26.1455 18.2694C26.1488 18.2694 26.1488 18.2694 26.152 18.2694C26.1586 18.2694 26.1651 18.2694 26.1716 18.2694L26.4528 18.2563C26.4593 18.2563 26.4692 18.2563 26.4757 18.2531C26.5051 18.2465 26.528 18.2269 26.5444 18.204C26.5542 18.1844 26.5607 18.1648 26.5607 18.1419L26.5542 18.0013C26.5607 17.998 26.5672 17.9948 26.564 17.9882C26.564 17.985 26.564 17.9817 26.5607 17.9817C26.5574 17.9784 26.5574 17.9784 26.5542 17.9784C26.5509 17.9784 26.5509 17.9784 26.5476 17.9784L26.5836 17.6188H26.5803H26.6032C26.6228 17.6188 26.6359 17.6024 26.6359 17.5828L26.6326 17.4946H26.6392L26.6424 17.4913C26.6457 17.488 26.649 17.488 26.6523 17.4847L26.7046 17.4455H26.7013C27.0184 17.1807 27.3356 16.6968 27.3225 16.3633C27.2963 15.8893 26.7896 15.5362 26.188 15.5623ZM26.2011 17.9817L26.1618 17.6221L26.3972 17.6123L26.3907 17.9719L26.2011 17.9817ZM25.9918 17.6319L26.1618 17.6253H26.1586L26.1978 17.985L26.0638 17.9915L25.9918 17.6319ZM26.5378 17.9686L26.4038 17.9752L26.4103 17.6155H26.4071L26.577 17.609L26.5378 17.9686Z" fill="white"/>
    <mask id="mask1_2462_8271" style="mask-type:luminance" maskUnits="userSpaceOnUse" x="1" y="1" width="28" height="28">
        <path d="M14.9996 28.4405C22.4226 28.4405 28.4401 22.423 28.4401 15C28.4401 7.57702 22.4226 1.55951 14.9996 1.55951C7.57659 1.55951 1.55908 7.57702 1.55908 15C1.55908 22.423 7.57659 28.4405 14.9996 28.4405Z" fill="white"/>
    </mask>
    <g mask="url(#mask1_2462_8271)">
        <path d="M18.4554 13.8066L11.8643 31.1606L20.8943 31.1214L31.5755 30.8435L18.4554 13.8066Z" fill="white"/>
        <path d="M18.4559 13.7642L11.8648 31.1606L9.6416 26.0898L18.4559 13.7642Z" fill="white"/>
    </g>
    <path d="M11.7629 28.6236L13.633 28.8165V26.8091H12.3612V23.6737C12.3612 23.5299 12.2403 23.4089 12.0768 23.386L11.7237 23.3337V18.6585C11.7237 18.5212 11.6126 18.4035 11.4556 18.374L10.9816 18.2825V12.463C10.9816 12.3387 10.89 12.2276 10.7527 12.1851L10.2721 12.0412V6.33283L9.79803 6.11705L9.76207 3.74347H9.5136V8.92547H9.41879C9.24551 8.92547 9.10492 9.06605 9.10492 9.23933V15.0916H8.70934C8.53606 15.0916 8.39547 15.2321 8.39547 15.4054V18.1746V21.2119H7.96718C7.7939 21.2119 7.65331 21.3524 7.65331 21.5257V26.0081L7.48331 26.3612L7.01904 26.4396L11.7629 28.6236Z" fill="#29ABE2"/>
    <mask id="mask2_2462_8271" style="mask-type:luminance" maskUnits="userSpaceOnUse" x="1" y="1" width="28" height="28">
        <path d="M14.9996 28.4405C22.4226 28.4405 28.4401 22.423 28.4401 15C28.4401 7.57702 22.4226 1.55951 14.9996 1.55951C7.57659 1.55951 1.55908 7.57702 1.55908 15C1.55908 22.423 7.57659 28.4405 14.9996 28.4405Z" fill="white"/>
    </mask>
    <g mask="url(#mask2_2462_8271)">
        <path d="M12.191 26.9791V23.8437C12.191 23.6999 12.07 23.5789 11.9066 23.556L11.5535 23.5037V18.8284C11.5535 18.6911 11.4423 18.5734 11.2854 18.544L10.8113 18.4525V12.6329C10.8113 12.5087 10.7198 12.3975 10.5825 12.355L10.1018 12.2112V6.50282L9.62779 6.28703L9.59181 3.91345H9.34336V9.09545H9.24853C9.07525 9.09545 8.93468 9.23603 8.93468 9.40931V15.2615H8.53908C8.3658 15.2615 8.22521 15.4021 8.22521 15.5754V18.3446V21.3818H7.79692C7.62364 21.3818 7.48307 21.5224 7.48307 21.6957V26.1781H6.84553V26.9791H5.57373V30.2844H6.84553H9.51662H12.1877H13.4595V26.9791H12.191Z" fill="white"/>
    </g>
    <path d="M24.2454 21.0255V11.0048H21.4141V17.3475L24.2454 21.0255ZM23.8825 11.3383L23.4542 12.8716C23.3888 13.107 23.1305 13.4438 22.8297 13.4438C22.5322 13.4438 22.2706 13.107 22.2053 12.8716L21.777 11.3383H23.8825Z" fill="white"/>
    <path d="M15 0C6.71535 0 0 6.71534 0 15C0 23.2847 6.71535 30 15 30C23.2847 30 30 23.2847 30 15C30 6.71534 23.2847 0 15 0ZM15 28.4405C7.57847 28.4405 1.55951 22.4248 1.55951 15C1.55951 7.57846 7.5752 1.5595 15 1.5595C22.4215 1.5595 28.4405 7.57519 28.4405 15C28.4405 22.4215 22.4248 28.4405 15 28.4405Z" fill="#F6C220"/>
    <path d="M59.7957 0.842285V6.71647H49.9932V29.3601H43.7617V6.71285H34V0.842285H59.7957Z" fill="#29ABE2"/>
    <path d="M75.5707 8.16241V13.9101H70.6899C67.859 13.9101 65.8534 15.8693 65.8534 18.8046V29.3601H59.9697V8.16241H65.5463V11.4809H65.7646C66.5491 9.39509 68.4659 8.16241 70.9933 8.16241H75.5707Z" fill="#29ABE2"/>
    <path d="M94.2619 8.16251H100.101V29.3602H94.2619V26.5514H94.0436C92.693 28.5107 90.21 29.9566 87.0276 30C81.1439 30 76.6997 25.4886 76.6997 18.8047C76.6997 12.2509 80.9256 7.48292 87.0683 7.52629C90.2063 7.52629 92.6893 8.97225 94.0399 10.8881H94.2582V8.16251H94.2619ZM94.2619 18.7613C94.2619 15.4826 91.8641 12.9739 88.4671 12.9739C85.0257 12.9739 82.6278 15.4429 82.6278 18.7613C82.6278 22.0798 85.0257 24.5488 88.4671 24.5488C91.9529 24.5488 94.2619 21.9099 94.2619 18.7613Z" fill="#29ABE2"/>
    <path d="M120.668 8.16241H126.681L117.401 29.3601H111.517L102.236 8.16241H108.553L114.74 22.4629L120.668 8.16241Z" fill="#29ABE2"/>
    <path d="M135.052 8.16241H129.168V29.3601H135.052V8.16241Z" fill="#29ABE2"/>
    <path d="M145.052 8.16241H139.168V29.3601H145.052V8.16241Z" fill="#29ABE2"/>
    <path d="M148.643 18.7609C148.643 12.4601 153.217 7.52222 160.322 7.52222C167.423 7.52222 172 12.4601 172 18.7609C172 25.105 167.382 29.9995 160.322 29.9995C153.261 29.9959 148.643 25.1014 148.643 18.7609ZM166.116 18.7609C166.116 15.6123 163.807 13.0566 160.322 13.0566C156.836 13.0566 154.527 15.6087 154.527 18.7609C154.527 21.9094 156.836 24.4218 160.322 24.4218C163.763 24.4218 166.116 21.9094 166.116 18.7609Z" fill="#29ABE2"/>
    <path d="M132.29 6.18145C134.038 6.18145 135.454 4.79768 135.454 3.09072C135.454 1.38376 134.038 0 132.29 0C130.543 0 129.126 1.38376 129.126 3.09072C129.126 4.79768 130.543 6.18145 132.29 6.18145Z" fill="#F6C220"/>
    <path d="M142.515 6.18145C144.263 6.18145 145.679 4.79768 145.679 3.09072C145.679 1.38376 144.263 0 142.515 0C140.768 0 139.352 1.38376 139.352 3.09072C139.352 4.79768 140.768 6.18145 142.515 6.18145Z" fill="#F6C220"/>
    <path d="M140.437 34.1271V35.3047H138.751V39.843H137.68V35.3047H136V34.1271H140.437Z" fill="#F6C220"/>
    <path d="M143.241 36.9944C143.241 35.3645 144.276 34 145.887 34C147.49 34 148.532 35.3645 148.532 36.9944C148.532 38.6243 147.497 39.9626 145.887 39.9626C144.276 39.9626 143.241 38.6243 143.241 36.9944ZM147.448 36.9869C147.448 36.015 146.856 35.1963 145.887 35.1963C144.92 35.1963 144.325 36.015 144.325 36.9869C144.325 37.9439 144.91 38.7776 145.887 38.7776C146.856 38.7776 147.448 37.9477 147.448 36.9869Z" fill="#F6C220"/>
    <path d="M151.855 34.1271H152.927V37.3794C152.927 38.2056 153.361 38.8224 154.08 38.8224C154.817 38.8224 155.244 38.1981 155.244 37.3794V34.1308H156.309V37.3981C156.309 38.9832 155.438 40 154.08 40C152.739 40 151.852 38.9832 151.852 37.3981V34.1271H151.855Z" fill="#F6C220"/>
    <path d="M159.895 39.843V34.1271H162.468C163.48 34.1271 164.2 34.6916 164.2 35.7233C164.2 36.2691 164.013 36.6691 163.704 36.9271V36.9532C164.108 37.0729 164.318 37.4205 164.318 38.0187V39.843H163.254V38.2392C163.254 38.0075 163.132 37.899 162.938 37.899H160.959V39.843H159.895ZM160.959 36.7962H162.386C162.82 36.7962 163.135 36.5233 163.135 36.0448C163.135 35.585 162.813 35.3009 162.392 35.3009H160.959V36.7962Z" fill="#F6C220"/>
    <path d="M171.668 34.1271V35.3046H169.157C168.887 35.3046 168.753 35.499 168.753 35.7159C168.753 35.8953 168.858 36.0822 169.068 36.142L170.859 36.6205C171.638 36.8261 172 37.5177 172 38.1906C172 39.028 171.484 39.8467 170.485 39.8467H167.793V38.6617H170.449C170.712 38.6617 170.869 38.4411 170.869 38.2093C170.869 38.0224 170.764 37.8355 170.531 37.7757L168.73 37.2897C167.957 37.0766 167.596 36.4037 167.596 35.7458C167.596 34.9271 168.105 34.1346 169.081 34.1346H171.668V34.1271Z" fill="#F6C220"/>
</svg>
