<svg width="48" height="48" viewBox="0 0 48 48" fill="none" xmlns="http://www.w3.org/2000/svg">
<path d="M44 15.5139H4V21.8719H44V15.5139Z" stroke="#3FA9F5" stroke-width="2" stroke-miterlimit="10" stroke-linecap="round" stroke-linejoin="round"/>
<path d="M40.0571 38.5848H7.94292C5.76528 38.5848 4 36.8195 4 34.6419V13.9429C4 11.7653 5.76528 10 7.94292 10H40.0571C42.2347 10 44 11.7653 44 13.9429V34.6419C44 36.8195 42.2346 38.5848 40.0571 38.5848Z" stroke="#3FA9F5" stroke-width="2" stroke-miterlimit="10" stroke-linecap="round" stroke-linejoin="round"/>
<path d="M13.3042 34.0093C15.3372 34.0093 16.9853 32.3507 16.9853 30.3048C16.9853 28.2589 15.3372 26.6003 13.3042 26.6003C11.2712 26.6003 9.62305 28.2589 9.62305 30.3048C9.62305 32.3507 11.2712 34.0093 13.3042 34.0093Z" stroke="#FFBB0B" stroke-width="2" stroke-miterlimit="10" stroke-linecap="round" stroke-linejoin="round"/>
<path d="M23.1885 34.0093H38.378" stroke="#FFBB0B" stroke-width="2" stroke-miterlimit="10" stroke-linecap="round" stroke-linejoin="round"/>
<path d="M31.3467 29.9852H38.3779" stroke="#FFBB0B" stroke-width="2" stroke-miterlimit="10" stroke-linecap="round" stroke-linejoin="round"/>
</svg>
