<svg width="16" height="16" viewBox="0 0 16 16" fill="none" xmlns="http://www.w3.org/2000/svg">
    <path d="M7.99996 10.6667C7.91222 10.6672 7.82525 10.6504 7.74402 10.6172C7.6628 10.584 7.58892 10.5351 7.52663 10.4734L3.52663 6.47336C3.40109 6.34782 3.33057 6.17756 3.33057 6.00002C3.33057 5.82249 3.40109 5.65222 3.52663 5.52669C3.65216 5.40115 3.82243 5.33063 3.99996 5.33063C4.1775 5.33063 4.34776 5.40115 4.47329 5.52669L7.99996 9.06002L11.5266 5.53336C11.6542 5.42414 11.8182 5.36707 11.986 5.37355C12.1538 5.38003 12.3129 5.44958 12.4317 5.56831C12.5504 5.68704 12.62 5.8462 12.6264 6.01399C12.6329 6.18177 12.5758 6.34582 12.4666 6.47336L8.46663 10.4734C8.34245 10.5965 8.17485 10.666 7.99996 10.6667Z" fill="#140D31"/>
</svg>
