<svg width="16" height="16" viewBox="0 0 16 16" fill="none" xmlns="http://www.w3.org/2000/svg">
<g id="down (3) 1">
<g id="16">
<path id="Vector" d="M7.99996 12.6667C7.91222 12.6672 7.82525 12.6504 7.74402 12.6172C7.6628 12.584 7.58892 12.5351 7.52663 12.4733L3.52663 8.47334C3.40109 8.3478 3.33057 8.17754 3.33057 8.00001C3.33057 7.82247 3.40109 7.65221 3.52663 7.52667C3.65216 7.40114 3.82243 7.33061 3.99996 7.33061C4.1775 7.33061 4.34776 7.40114 4.47329 7.52667L7.99996 11.06L11.5266 7.53334C11.6542 7.42412 11.8182 7.36705 11.986 7.37353C12.1538 7.38001 12.3129 7.44957 12.4317 7.5683C12.5504 7.68703 12.62 7.84619 12.6264 8.01397C12.6329 8.18176 12.5758 8.34581 12.4666 8.47334L8.46663 12.4733C8.34245 12.5965 8.17485 12.6659 7.99996 12.6667Z" fill="#140D31"/>
</g>
</g>
</svg>
