<svg width="20" height="20" viewBox="0 0 20 20" xmlns="http://www.w3.org/2000/svg">
<g id="Frame">
<path id="Vector" d="M17.499 6.68923V13.6615C17.5003 13.6814 17.5003 13.7013 17.499 13.7212L13.2306 9.91719L17.499 6.68923ZM7.61536 9.58505L9.06327 10.6801C9.33323 10.8834 9.66202 10.9934 10 10.9934C10.338 10.9934 10.6668 10.8834 10.9367 10.6801L12.3846 9.58505L17.3278 5.84851C17.1975 5.5936 16.9995 5.37953 16.7555 5.22984C16.5115 5.08014 16.231 5.00062 15.9447 5H4.05526C3.769 5.00062 3.48846 5.08014 3.24446 5.22984C3.00047 5.37953 2.80246 5.5936 2.67222 5.84851L7.61536 9.58505ZM2.50096 6.68923V13.6615C2.49968 13.6814 2.49968 13.7013 2.50096 13.7212L6.76944 9.91719L2.50096 6.68923ZM11.4064 11.295C11.0012 11.6007 10.5075 11.766 10 11.766C9.49248 11.766 8.99877 11.6007 8.59361 11.295L7.40518 10.3946L2.76823 14.5282C2.91153 14.7402 3.10488 14.9136 3.33118 15.0331C3.55748 15.1526 3.80974 15.2145 4.06564 15.2132H15.9447C16.2006 15.2145 16.4529 15.1526 16.6792 15.0331C16.9055 14.9136 17.0988 14.7402 17.2422 14.5282L12.5948 10.3946L11.4064 11.295Z" fill="#726E83"/>
</g>
</svg>
