<svg width="20" height="20" viewBox="0 0 20 20" fill="none" xmlns="http://www.w3.org/2000/svg">
<g id="Facebook">
<path id="Vector" d="M14.2287 8.2H12.5239H11.915V7.61935V5.81936V5.23871H12.5239H13.8025C14.1373 5.23871 14.4113 5.00645 14.4113 4.65806V1.58065C14.4113 1.26129 14.1678 1 13.8025 1H11.5802C9.17521 1 8.50088 2.62581 8.50088 5.03548V7.56129V8.14194H7.89203H5.82195C5.39575 8.14194 5 8.46129 5 8.92581V11.0161C5 11.4226 5.33487 11.8 5.82195 11.8H7.83115H8.43999V12.3806V18.2161C8.43999 18.6226 8.77486 19 9.26194 19H11.1235C11.3062 19 11.4584 18.9129 11.5802 18.7968C11.7019 18.6806 11.7933 18.4774 11.7933 18.3032V12.4097V11.829H12.4326H13.8025C14.1982 11.829 14.5026 11.5968 14.5635 11.2484V11.2194V11.1903L14.9897 9.1871C15.0202 8.98387 14.9897 8.75161 14.8071 8.51935C14.7462 8.37419 14.4722 8.22903 14.2287 8.2Z" fill="#726E83"/>
</g>
</svg>
