<svg width="18" height="18" viewBox="0 0 18 18" fill="none" xmlns="http://www.w3.org/2000/svg">
<g clip-path="url(#clip0_2462_6336)">
<path fill-rule="evenodd" clip-rule="evenodd" d="M15.36 6.22575C15.7312 7.0755 15.9375 8.01375 15.9375 9C15.9375 12.8287 12.8287 15.9375 9 15.9375C5.17125 15.9375 2.0625 12.8287 2.0625 9C2.0625 5.17125 5.17125 2.0625 9 2.0625C9.3105 2.0625 9.5625 1.8105 9.5625 1.5C9.5625 1.1895 9.3105 0.9375 9 0.9375C4.55025 0.9375 0.9375 4.55025 0.9375 9C0.9375 13.4497 4.55025 17.0625 9 17.0625C13.4497 17.0625 17.0625 13.4497 17.0625 9C17.0625 7.85325 16.8225 6.76275 16.3905 5.77425C16.266 5.49 15.9337 5.36025 15.6495 5.48475C15.3652 5.60925 15.2355 5.94075 15.36 6.22575Z" fill="#726E83"/>
<path fill-rule="evenodd" clip-rule="evenodd" d="M12.75 0.9375C11.325 0.9375 10.1685 2.094 10.1685 3.519C10.1685 3.9645 10.3702 4.50675 10.6822 5.03625C11.3085 6.102 12.3525 7.1475 12.3525 7.1475C12.5722 7.36725 12.9277 7.36725 13.1475 7.1475C13.1475 7.1475 14.1915 6.102 14.8177 5.03625C15.1297 4.50675 15.3315 3.9645 15.3315 3.519C15.3315 2.094 14.175 0.9375 12.75 0.9375ZM12.75 2.0625C13.554 2.0625 14.2065 2.715 14.2065 3.519C14.2065 3.915 13.9117 4.40175 13.5952 4.86075C13.3125 5.27025 12.9937 5.65125 12.75 5.92575C12.5062 5.65125 12.1875 5.27025 11.9047 4.86075C11.5882 4.40175 11.2935 3.915 11.2935 3.519C11.2935 2.715 11.946 2.0625 12.75 2.0625Z" fill="#726E83"/>
<path fill-rule="evenodd" clip-rule="evenodd" d="M1.20218 9.47693L3.65468 11.0099C4.10168 11.2889 4.61843 11.4374 5.14493 11.4374H5.71493C6.20768 11.4374 6.67568 11.6527 6.99668 12.0269L7.78493 12.9472C8.15393 13.3777 8.28218 13.9642 8.12693 14.5087C7.92593 15.2107 7.70918 15.9704 7.70918 15.9704C7.62368 16.2689 7.79693 16.5802 8.09543 16.6657C8.39393 16.7512 8.70518 16.5779 8.79068 16.2794C8.79068 16.2794 9.00743 15.5197 9.20843 14.8177C9.46793 13.9102 9.25418 12.9322 8.63918 12.2152C8.38193 11.9144 8.09843 11.5844 7.85018 11.2949C7.31618 10.6709 6.53618 10.3124 5.71493 10.3124H5.14493C4.82918 10.3124 4.51943 10.2239 4.25093 10.0559L1.79768 8.52293C1.53443 8.35868 1.18718 8.43818 1.02293 8.70218C0.858677 8.96543 0.938177 9.31268 1.20218 9.47693Z" fill="#726E83"/>
<path fill-rule="evenodd" clip-rule="evenodd" d="M3.99691 3.25116C3.99691 3.25116 4.75591 4.76916 5.19391 5.64516C5.45866 6.17541 5.93866 6.56541 6.51166 6.71691L7.83016 7.06566C8.16241 7.15341 8.41966 7.41591 8.50066 7.74966L9.06541 10.0649C9.18766 10.5674 9.49441 11.0054 9.92491 11.2927L10.2744 11.5252C10.7664 11.8537 11.3762 11.9549 11.9477 11.8027C12.5199 11.6512 12.9984 11.2612 13.2632 10.7317L13.6944 9.86841C13.8174 9.62391 14.0402 9.44466 14.3057 9.37866C14.3057 9.37791 16.3989 8.85516 16.3989 8.85516C16.6997 8.77941 16.8834 8.47416 16.8077 8.17266C16.7327 7.87191 16.4274 7.68816 16.1259 7.76391L14.0327 8.28666C13.4492 8.43291 12.9579 8.82666 12.6887 9.36516L12.2567 10.2284C12.1367 10.4692 11.9192 10.6462 11.6589 10.7152C11.3994 10.7842 11.1219 10.7384 10.8984 10.5892L10.5489 10.3567C10.3532 10.2262 10.2137 10.0267 10.1582 9.79866L9.59416 7.48341C9.41491 6.74916 8.84866 6.17166 8.11741 5.97816L6.79891 5.62941C6.53866 5.56041 6.32041 5.38341 6.20041 5.14191C5.76166 4.26591 5.00341 2.74866 5.00341 2.74866C4.86466 2.47041 4.52641 2.35791 4.24891 2.49666C3.97066 2.63541 3.85816 2.97366 3.99691 3.25116Z" fill="#726E83"/>
</g>
<defs>
<clipPath id="clip0_2462_6336">
<rect width="18" height="18" fill="white"/>
</clipPath>
</defs>
</svg>
