<svg xmlns="http://www.w3.org/2000/svg" width="20" height="20" viewBox="0 0 20 20" fill="none">
    <path d="M14.3636 2H5.63636C4.67206 2.00039 3.74736 2.38363 3.06549 3.06549C2.38363 3.74736 2.00039 4.67206 2 5.63636V14.3636C2.00039 15.3279 2.38363 16.2526 3.06549 16.9345C3.74736 17.6164 4.67206 17.9996 5.63636 18H14.3636C15.3279 17.9996 16.2526 17.6164 16.9345 16.9345C17.6164 16.2526 17.9996 15.3279 18 14.3636V5.63636C17.9996 4.67206 17.6164 3.74736 16.9345 3.06549C16.2526 2.38363 15.3279 2.00039 14.3636 2ZM10 14.3636C9.13695 14.3636 8.29329 14.1077 7.57569 13.6282C6.8581 13.1487 6.2988 12.4672 5.96853 11.6699C5.63825 10.8725 5.55184 9.99516 5.72021 9.1487C5.88858 8.30223 6.30418 7.52471 6.91444 6.91444C7.52471 6.30418 8.30223 5.88858 9.1487 5.72021C9.99516 5.55184 10.8725 5.63825 11.6699 5.96853C12.4672 6.2988 13.1487 6.8581 13.6282 7.57569C14.1077 8.29329 14.3636 9.13695 14.3636 10C14.3627 11.157 13.9026 12.2664 13.0845 13.0845C12.2664 13.9026 11.157 14.3627 10 14.3636ZM14.3636 6.72727C14.1479 6.72727 13.937 6.66329 13.7576 6.54342C13.5782 6.42355 13.4383 6.25317 13.3558 6.05384C13.2732 5.8545 13.2516 5.63515 13.2937 5.42354C13.3358 5.21192 13.4397 5.01754 13.5922 4.86497C13.7448 4.71241 13.9392 4.60851 14.1508 4.56642C14.3624 4.52432 14.5818 4.54593 14.7811 4.6285C14.9804 4.71106 15.1508 4.85089 15.2707 5.03029C15.3906 5.20969 15.4545 5.4206 15.4545 5.63636C15.4547 5.77968 15.4267 5.92162 15.3719 6.05406C15.3171 6.1865 15.2368 6.30684 15.1355 6.40818C15.0341 6.50952 14.9138 6.58987 14.7813 6.64462C14.6489 6.69938 14.507 6.72746 14.3636 6.72727Z" fill="#726E83"/>
    <path d="M10.0004 12.909C11.607 12.909 12.9095 11.6066 12.9095 9.99991C12.9095 8.39326 11.607 7.09082 10.0004 7.09082C8.39375 7.09082 7.09131 8.39326 7.09131 9.99991C7.09131 11.6066 8.39375 12.909 10.0004 12.909Z" fill="#726E83"/>
  </svg>