<svg width="20" height="20" viewBox="0 0 20 20" fill="none" xmlns="http://www.w3.org/2000/svg">
<g clip-path="url(#clip0_2229_2245)">
<path d="M17.2727 0H2.72727C1.22104 0 0 1.22104 0 2.72727V17.2727C0 18.779 1.22104 20 2.72727 20H17.2727C18.779 20 20 18.779 20 17.2727V2.72727C20 1.22104 18.779 0 17.2727 0Z" fill="#0077B5"/>
<path d="M7.20499 5.45455C7.20499 5.79167 7.10502 6.12123 6.91772 6.40154C6.73042 6.68185 6.46421 6.90033 6.15275 7.02934C5.84128 7.15835 5.49855 7.19211 5.1679 7.12634C4.83725 7.06057 4.53353 6.89823 4.29515 6.65984C4.05676 6.42146 3.89442 6.11774 3.82865 5.78709C3.76288 5.45644 3.79664 5.11371 3.92565 4.80224C4.05466 4.49078 4.27314 4.22457 4.55345 4.03727C4.83376 3.84997 5.16332 3.75 5.50044 3.75C5.95252 3.75 6.38608 3.92959 6.70574 4.24925C7.0254 4.56891 7.20499 5.00247 7.20499 5.45455Z" fill="white"/>
<path d="M6.81865 8.29577V15.8265C6.81894 15.882 6.80826 15.9371 6.78721 15.9885C6.76616 16.0399 6.73515 16.0866 6.69597 16.126C6.65679 16.1654 6.61022 16.1967 6.55892 16.218C6.50762 16.2393 6.45261 16.2503 6.39705 16.2503H4.60046C4.54491 16.2505 4.48987 16.2396 4.43852 16.2184C4.38716 16.1973 4.3405 16.1661 4.30122 16.1268C4.26193 16.0876 4.2308 16.0409 4.20961 15.9895C4.18842 15.9382 4.17759 15.8831 4.17774 15.8276V8.29577C4.17774 8.18366 4.22227 8.07614 4.30155 7.99686C4.38083 7.91758 4.48835 7.87305 4.60046 7.87305H6.39705C6.50897 7.87335 6.6162 7.91802 6.69523 7.99726C6.77426 8.07651 6.81865 8.18386 6.81865 8.29577Z" fill="white"/>
<path d="M16.2099 12.2162V15.8617C16.2101 15.9128 16.2001 15.9634 16.1806 16.0106C16.1612 16.0578 16.1326 16.1007 16.0964 16.1368C16.0603 16.1729 16.0174 16.2016 15.9702 16.221C15.923 16.2405 15.8724 16.2505 15.8213 16.2503H13.8895C13.8384 16.2505 13.7878 16.2405 13.7406 16.221C13.6934 16.2016 13.6504 16.1729 13.6143 16.1368C13.5782 16.1007 13.5496 16.0578 13.5301 16.0106C13.5106 15.9634 13.5007 15.9128 13.5008 15.8617V12.3287C13.5008 11.8015 13.6554 10.0196 12.1224 10.0196C10.9349 10.0196 10.6929 11.239 10.6452 11.7867V15.8617C10.6452 15.9638 10.605 16.0618 10.5333 16.1345C10.4617 16.2072 10.3643 16.2488 10.2622 16.2503H8.39629C8.34531 16.2503 8.29483 16.2403 8.24774 16.2207C8.20065 16.2012 8.15788 16.1725 8.12188 16.1364C8.08589 16.1003 8.05737 16.0575 8.03796 16.0103C8.01855 15.9632 8.00864 15.9127 8.00879 15.8617V8.26282C8.00864 8.21184 8.01855 8.16133 8.03796 8.11418C8.05737 8.06704 8.08589 8.02418 8.12188 7.98808C8.15788 7.95198 8.20065 7.92333 8.24774 7.90379C8.29483 7.88424 8.34531 7.87418 8.39629 7.87418H10.2622C10.3653 7.87418 10.4641 7.91513 10.537 7.98801C10.6099 8.0609 10.6508 8.15975 10.6508 8.26282V8.91964C11.0917 8.25827 11.7452 7.74805 13.1395 7.74805C16.2281 7.74805 16.2099 10.6321 16.2099 12.2162Z" fill="white"/>
</g>
<defs>
<clipPath id="clip0_2229_2245">
<rect width="20" height="20" rx="10" fill="white"/>
</clipPath>
</defs>
</svg>
