<svg width="24" height="24" viewBox="0 0 24 24" fill="none" xmlns="http://www.w3.org/2000/svg">
<path d="M12 24C18.6274 24 24 18.6274 24 12C24 5.37258 18.6274 0 12 0C5.37258 0 0 5.37258 0 12C0 18.6274 5.37258 24 12 24Z" fill="#3FA9F5"/>
<path d="M15.7676 10.9219V9.20531C15.7676 8.71052 15.6701 8.22057 15.4808 7.76343C15.2914 7.3063 15.0139 6.89094 14.664 6.54107C14.3141 6.19119 13.8988 5.91366 13.4416 5.72431C12.9845 5.53496 12.4946 5.4375 11.9998 5.4375C11.0005 5.4375 10.0421 5.83446 9.33552 6.54107C8.62892 7.24767 8.23195 8.20603 8.23195 9.20531V10.9219C7.81067 11.0262 7.43645 11.2686 7.16893 11.6104C6.90142 11.9522 6.756 12.3736 6.75586 12.8077V16.6223C6.75648 17.1371 6.96141 17.6306 7.32563 17.9944C7.68985 18.3582 8.18358 18.5625 8.69836 18.5625H15.3012C15.8164 18.5625 16.3104 18.3578 16.6747 17.9936C17.039 17.6293 17.2437 17.1352 17.2437 16.62V12.8053C17.243 12.3717 17.0974 11.9508 16.8299 11.6095C16.5624 11.2682 16.1885 11.0261 15.7676 10.9219ZM11.9998 7.14188C12.5465 7.14274 13.0706 7.36032 13.4572 7.74693C13.8438 8.13353 14.0614 8.65763 14.0623 9.20438V10.8619H9.93727V9.20531C9.93789 8.65841 10.1554 8.13407 10.542 7.74726C10.9286 7.36045 11.4529 7.14274 11.9998 7.14188Z" fill="white"/>
</svg>
