<svg width="20" height="20" viewBox="0 0 20 20" fill="none" xmlns="http://www.w3.org/2000/svg">
<g clip-path="url(#clip0_2462_7379)">
<path d="M10.0002 3.3335C6.3335 3.3335 3.3335 6.3335 3.3335 10.0002C3.3335 14.5002 9.16683 19.5835 9.41683 19.8335C9.75016 20.0835 10.1668 20.0835 10.5002 19.8335C10.8335 19.5835 16.6668 14.5002 16.6668 10.0002C16.6668 6.3335 13.6668 3.3335 10.0002 3.3335ZM10.0002 13.3335C8.16683 13.3335 6.66683 11.8335 6.66683 10.0002C6.66683 8.16683 8.16683 6.66683 10.0002 6.66683C11.8335 6.66683 13.3335 8.16683 13.3335 10.0002C13.3335 11.8335 11.8335 13.3335 10.0002 13.3335Z" fill="#726E83"/>
</g>
<defs>
<clipPath id="clip0_2462_7379">
<rect width="20" height="20" fill="white"/>
</clipPath>
</defs>
</svg>
