<svg width="18" height="14" viewBox="0 0 18 14" fill="none" xmlns="http://www.w3.org/2000/svg">
<path d="M1 1.99997H17C17.2652 1.99997 17.5196 1.89461 17.7071 1.70708C17.8946 1.51954 18 1.26519 18 0.99997C18 0.734753 17.8946 0.480399 17.7071 0.292863C17.5196 0.105327 17.2652 -3.05176e-05 17 -3.05176e-05H1C0.734784 -3.05176e-05 0.48043 0.105327 0.292893 0.292863C0.105357 0.480399 0 0.734753 0 0.99997C0 1.26519 0.105357 1.51954 0.292893 1.70708C0.48043 1.89461 0.734784 1.99997 1 1.99997ZM17 12H10C9.73478 12 9.48043 12.1053 9.29289 12.2929C9.10536 12.4804 9 12.7348 9 13C9 13.2652 9.10536 13.5195 9.29289 13.7071C9.48043 13.8946 9.73478 14 10 14H17C17.2652 14 17.5196 13.8946 17.7071 13.7071C17.8946 13.5195 18 13.2652 18 13C18 12.7348 17.8946 12.4804 17.7071 12.2929C17.5196 12.1053 17.2652 12 17 12ZM17 5.99997H1C0.734784 5.99997 0.48043 6.10533 0.292893 6.29286C0.105357 6.4804 0 6.73475 0 6.99997C0 7.26519 0.105357 7.51954 0.292893 7.70708C0.48043 7.89461 0.734784 7.99997 1 7.99997H17C17.2652 7.99997 17.5196 7.89461 17.7071 7.70708C17.8946 7.51954 18 7.26519 18 6.99997C18 6.73475 17.8946 6.4804 17.7071 6.29286C17.5196 6.10533 17.2652 5.99997 17 5.99997Z" fill="#726E83"/>
</svg>
