<svg width="440" height="575" viewBox="0 0 440 575" fill="none" xmlns="http://www.w3.org/2000/svg">
<g opacity="0.15">
<path d="M408.848 560.695V573.686" stroke="#65BAF7" stroke-width="1.99478" stroke-miterlimit="10" stroke-linejoin="round"/>
<path d="M408.846 560.695C408.846 560.695 409.34 563.376 412.137 563.623C412.137 563.623 411.89 561.355 408.846 560.695Z" stroke="#65BAF7" stroke-width="1.99478" stroke-miterlimit="10" stroke-linejoin="round"/>
<path d="M408.848 560.695C408.848 560.695 408.354 563.376 405.598 563.623C405.598 563.623 405.804 561.355 408.848 560.695Z" stroke="#65BAF7" stroke-width="1.99478" stroke-miterlimit="10" stroke-linejoin="round"/>
<path d="M408.847 560.693H412.961C412.961 560.693 412.303 559.207 410.904 559.207C409.547 559.207 408.847 560.693 408.847 560.693Z" stroke="#65BAF7" stroke-width="1.99478" stroke-miterlimit="10" stroke-linejoin="round"/>
<path d="M404.734 560.693H408.848C408.848 560.693 408.19 559.207 406.791 559.207C405.433 559.207 404.734 560.693 404.734 560.693Z" stroke="#65BAF7" stroke-width="1.99478" stroke-miterlimit="10" stroke-linejoin="round"/>
<path d="M382.557 570.352H404.734V573.68H382.557V570.352Z" stroke="#65BAF7" stroke-width="1.99478" stroke-miterlimit="10" stroke-linejoin="round"/>
<path d="M383.968 568.934H403.32V570.351H383.968V568.934Z" stroke="#65BAF7" stroke-width="1.99478" stroke-miterlimit="10" stroke-linejoin="round"/>
<path d="M396.825 548.508H400.992V568.936H395.978" stroke="#65BAF7" stroke-width="1.99478" stroke-miterlimit="10" stroke-linejoin="round"/>
<path d="M394.952 556.613V530.945H399.613V548.506" stroke="#65BAF7" stroke-width="1.99478" stroke-miterlimit="10" stroke-linejoin="round"/>
<path d="M393.857 519.758V513.562H398.695V531.123" stroke="#65BAF7" stroke-width="1.99478" stroke-miterlimit="10" stroke-linejoin="round"/>
<path d="M391.102 568.937H386.087V558.988H391.102V563.343" stroke="#65BAF7" stroke-width="1.99478" stroke-miterlimit="10" stroke-linejoin="round"/>
<path d="M390.5 541.781H386.969V558.988" stroke="#65BAF7" stroke-width="1.99478" stroke-miterlimit="10" stroke-linejoin="round"/>
<path d="M392.48 543.798V524.68H387.995V541.886" stroke="#65BAF7" stroke-width="1.99478" stroke-miterlimit="10" stroke-linejoin="round"/>
<path d="M393.855 507.191V500.605H397.422V513.528" stroke="#65BAF7" stroke-width="1.99478" stroke-miterlimit="10" stroke-linejoin="round"/>
<path d="M389.763 524.679V504.215H393.859" stroke="#65BAF7" stroke-width="1.99478" stroke-miterlimit="10" stroke-linejoin="round"/>
<path d="M395.73 500.603V485.84H391.21V504.215" stroke="#65BAF7" stroke-width="1.99478" stroke-miterlimit="10" stroke-linejoin="round"/>
<path d="M392.48 462.652V488.32" stroke="#65BAF7" stroke-width="1.99478" stroke-miterlimit="10" stroke-linejoin="round"/>
<path d="M394.457 485.842V474.406H392.479" stroke="#65BAF7" stroke-width="1.99478" stroke-miterlimit="10" stroke-linejoin="round"/>
<path d="M386.972 549.887H400.992V551.268H386.972V549.887Z" stroke="#65BAF7" stroke-width="0.997392" stroke-miterlimit="10" stroke-linejoin="round"/>
<path d="M387.995 532.363H399.613V533.745H387.995V532.363Z" stroke="#65BAF7" stroke-width="0.997392" stroke-miterlimit="10" stroke-linejoin="round"/>
<path d="M393.857 514.91H398.695V516.292H393.857V514.91Z" stroke="#65BAF7" stroke-width="0.997392" stroke-miterlimit="10" stroke-linejoin="round"/>
<path d="M391.175 488.32H395.73V489.702H391.175V488.32Z" stroke="#65BAF7" stroke-width="1.99478" stroke-miterlimit="10" stroke-linejoin="round"/>
<path d="M389.691 544.719V549.959" stroke="#65BAF7" stroke-width="1.99478" stroke-miterlimit="10" stroke-linejoin="round"/>
<path d="M398.941 553.57V568.936" stroke="#65BAF7" stroke-width="1.99478" stroke-miterlimit="10" stroke-linejoin="round"/>
<path d="M396.859 553.57V568.936" stroke="#65BAF7" stroke-width="1.99478" stroke-miterlimit="10" stroke-linejoin="round"/>
<path d="M386.086 561.078H388.594" stroke="#65BAF7" stroke-width="1.99478" stroke-miterlimit="10" stroke-linejoin="round"/>
<path d="M386.086 563.02H388.594" stroke="#65BAF7" stroke-width="0.997392" stroke-miterlimit="10" stroke-linejoin="round"/>
<path d="M386.086 564.367H388.594" stroke="#65BAF7" stroke-width="1.99478" stroke-miterlimit="10" stroke-linejoin="round"/>
<path d="M386.086 566.316H388.594" stroke="#65BAF7" stroke-width="0.997392" stroke-miterlimit="10" stroke-linejoin="round"/>
<path d="M399.613 535.48H396.859" stroke="#65BAF7" stroke-width="1.99478" stroke-miterlimit="10" stroke-linejoin="round"/>
<path d="M399.613 537.461H396.859" stroke="#65BAF7" stroke-width="1.99478" stroke-miterlimit="10" stroke-linejoin="round"/>
<path d="M399.613 539.441H396.859" stroke="#65BAF7" stroke-width="1.99478" stroke-miterlimit="10" stroke-linejoin="round"/>
<path d="M390.5 526.449V530.521" stroke="#65BAF7" stroke-width="0.997392" stroke-miterlimit="10" stroke-linejoin="round"/>
<path d="M398.695 518.023H396.082" stroke="#65BAF7" stroke-width="0.997392" stroke-miterlimit="10" stroke-linejoin="round"/>
<path d="M398.695 519.758H396.082" stroke="#65BAF7" stroke-width="1.99478" stroke-miterlimit="10" stroke-linejoin="round"/>
<path d="M398.695 521.457H396.082" stroke="#65BAF7" stroke-width="0.997392" stroke-miterlimit="10" stroke-linejoin="round"/>
<path d="M398.695 522.945H396.082" stroke="#65BAF7" stroke-width="1.99478" stroke-miterlimit="10" stroke-linejoin="round"/>
<path d="M398.695 524.645H396.082" stroke="#65BAF7" stroke-width="0.997392" stroke-miterlimit="10" stroke-linejoin="round"/>
<path d="M398.695 526.133H396.082" stroke="#65BAF7" stroke-width="1.99478" stroke-miterlimit="10" stroke-linejoin="round"/>
<path d="M398.695 527.867H396.082" stroke="#65BAF7" stroke-width="0.997392" stroke-miterlimit="10" stroke-linejoin="round"/>
<path d="M395.73 502.625V511.228" stroke="#65BAF7" stroke-width="0.997392" stroke-miterlimit="10" stroke-linejoin="round"/>
<path d="M389.763 507.652H391.211" stroke="#65BAF7" stroke-width="0.997392" stroke-miterlimit="10" stroke-linejoin="round"/>
<path d="M389.763 509.566H391.211" stroke="#65BAF7" stroke-width="1.99478" stroke-miterlimit="10" stroke-linejoin="round"/>
<path d="M389.763 511.438H391.211" stroke="#65BAF7" stroke-width="0.997392" stroke-miterlimit="10" stroke-linejoin="round"/>
<path d="M389.759 513.352H391.207" stroke="#65BAF7" stroke-width="1.99478" stroke-miterlimit="10" stroke-linejoin="round"/>
<path d="M386.97 543.09H388.383" stroke="#65BAF7" stroke-width="0.997392" stroke-miterlimit="10" stroke-linejoin="round"/>
<path d="M386.97 545.004H388.383" stroke="#65BAF7" stroke-width="1.99478" stroke-miterlimit="10" stroke-linejoin="round"/>
<path d="M386.97 546.879H388.383" stroke="#65BAF7" stroke-width="0.997392" stroke-miterlimit="10" stroke-linejoin="round"/>
<path d="M386.97 548.793H388.383" stroke="#65BAF7" stroke-width="1.99478" stroke-miterlimit="10" stroke-linejoin="round"/>
<path d="M389.763 515.23H391.211" stroke="#65BAF7" stroke-width="0.997392" stroke-miterlimit="10" stroke-linejoin="round"/>
<path d="M389.763 517.137H391.211" stroke="#65BAF7" stroke-width="1.99478" stroke-miterlimit="10" stroke-linejoin="round"/>
<path d="M389.763 518.98H391.211" stroke="#65BAF7" stroke-width="0.997392" stroke-miterlimit="10" stroke-linejoin="round"/>
<path d="M389.763 520.895H391.211" stroke="#65BAF7" stroke-width="1.99478" stroke-miterlimit="10" stroke-linejoin="round"/>
<path d="M394.352 491.434H392.586" stroke="#65BAF7" stroke-width="1.99478" stroke-miterlimit="10" stroke-linejoin="round"/>
<path d="M394.352 493.098H392.586" stroke="#65BAF7" stroke-width="0.997392" stroke-miterlimit="10" stroke-linejoin="round"/>
<path d="M394.352 494.766H392.586" stroke="#65BAF7" stroke-width="1.99478" stroke-miterlimit="10" stroke-linejoin="round"/>
<path d="M389.691 551.266V556.612" stroke="#65BAF7" stroke-width="1.99478" stroke-miterlimit="10" stroke-linejoin="round"/>
<path d="M393.859 520.574V527.018" stroke="#65BAF7" stroke-width="0.997392" stroke-miterlimit="10" stroke-linejoin="round"/>
<path d="M393.859 507.652V509.105" stroke="#65BAF7" stroke-width="0.997392" stroke-miterlimit="10" stroke-linejoin="round"/>
<path d="M396.258 502.625V511.228" stroke="#65BAF7" stroke-width="0.997392" stroke-miterlimit="10" stroke-linejoin="round"/>
<path d="M394.352 496.25H392.586" stroke="#65BAF7" stroke-width="0.997392" stroke-miterlimit="10" stroke-linejoin="round"/>
<path d="M393.293 474.406V485.842" stroke="#65BAF7" stroke-width="0.997392" stroke-miterlimit="10"/>
<path d="M392.48 461.696V460.031" stroke="#65BAF7" stroke-width="0.997392" stroke-miterlimit="10"/>
<path d="M389.762 526.449V530.521" stroke="#65BAF7" stroke-width="0.997392" stroke-miterlimit="10" stroke-linejoin="round"/>
<path d="M392.48 544.719V547.162" stroke="#65BAF7" stroke-width="0.997392" stroke-miterlimit="10" stroke-linejoin="round"/>
<path d="M397.953 558.703V568.793" stroke="#65BAF7" stroke-width="0.997392" stroke-miterlimit="10" stroke-linejoin="round"/>
<path d="M400.07 558.703V568.793" stroke="#65BAF7" stroke-width="0.997392" stroke-miterlimit="10" stroke-linejoin="round"/>
<path d="M394.953 558.703V568.793" stroke="#65BAF7" stroke-width="0.997392" stroke-miterlimit="10" stroke-linejoin="round"/>
<path d="M393.645 564.367V568.793" stroke="#65BAF7" stroke-width="0.997392" stroke-miterlimit="10" stroke-linejoin="round"/>
<path d="M392.27 566.316V568.795" stroke="#65BAF7" stroke-width="0.997392" stroke-miterlimit="10" stroke-linejoin="round"/>
<path d="M404.734 571.449H382.557" stroke="#65BAF7" stroke-width="0.997392" stroke-miterlimit="10" stroke-linejoin="round"/>
<path d="M286 573.643C298.542 552.249 319.338 548.258 328.664 548.258C337.99 548.258 358.786 552.249 371.328 573.643H366.504C357.678 556.24 337.776 549.616 328.664 549.616C319.552 549.616 299.649 556.24 290.824 573.643H286Z" stroke="#65BAF7" stroke-width="1.99017" stroke-miterlimit="10" stroke-linejoin="round"/>
<path d="M365.359 571.548C340.74 568.215 315.942 568.379 291.966 571.548" stroke="#65BAF7" stroke-width="1.99017" stroke-miterlimit="10" stroke-linejoin="round"/>
<path d="M364.754 570.514C340.528 566.523 316.158 566.687 292.575 570.514" stroke="#65BAF7" stroke-width="1.99017" stroke-miterlimit="10" stroke-linejoin="round"/>
<path d="M329.164 549.617V567.597" stroke="#65BAF7" stroke-width="1.99017" stroke-miterlimit="10" stroke-linejoin="round"/>
<path d="M332.881 549.988L333.988 567.598" stroke="#65BAF7" stroke-width="1.99017" stroke-miterlimit="10" stroke-linejoin="round"/>
<path d="M336.74 550.812L339.527 567.599" stroke="#65BAF7" stroke-width="1.99017" stroke-miterlimit="10" stroke-linejoin="round"/>
<path d="M340.348 551.879L345.637 568.295" stroke="#65BAF7" stroke-width="1.99017" stroke-miterlimit="10" stroke-linejoin="round"/>
<path d="M344.386 553.484L351.711 568.79" stroke="#65BAF7" stroke-width="1.99017" stroke-miterlimit="10" stroke-linejoin="round"/>
<path d="M325.27 549.988L324.162 567.598" stroke="#65BAF7" stroke-width="1.99017" stroke-miterlimit="10" stroke-linejoin="round"/>
<path d="M321.445 550.812L318.622 567.599" stroke="#65BAF7" stroke-width="1.99017" stroke-miterlimit="10" stroke-linejoin="round"/>
<path d="M317.836 551.629L312.512 568.292" stroke="#65BAF7" stroke-width="1.99017" stroke-miterlimit="10" stroke-linejoin="round"/>
<path d="M314.016 553.027L306.44 568.785" stroke="#65BAF7" stroke-width="1.99017" stroke-miterlimit="10" stroke-linejoin="round"/>
<path d="M343.387 553.07L350.426 568.664" stroke="#65BAF7" stroke-width="0.995083" stroke-miterlimit="10" stroke-linejoin="round"/>
<path d="M339.527 551.629L344.387 568.127" stroke="#65BAF7" stroke-width="0.995083" stroke-miterlimit="10" stroke-linejoin="round"/>
<path d="M336.061 550.645L338.598 567.596" stroke="#65BAF7" stroke-width="0.995083" stroke-miterlimit="10" stroke-linejoin="round"/>
<path d="M332.204 549.988L333.133 567.598" stroke="#65BAF7" stroke-width="0.995083" stroke-miterlimit="10" stroke-linejoin="round"/>
<path d="M328.379 549.41V567.596" stroke="#65BAF7" stroke-width="0.995083" stroke-miterlimit="10" stroke-linejoin="round"/>
<path d="M324.449 549.988L323.306 567.598" stroke="#65BAF7" stroke-width="0.995083" stroke-miterlimit="10" stroke-linejoin="round"/>
<path d="M320.625 550.812L317.659 567.887" stroke="#65BAF7" stroke-width="0.995083" stroke-miterlimit="10" stroke-linejoin="round"/>
<path d="M317.016 551.879L311.584 568.254" stroke="#65BAF7" stroke-width="0.995083" stroke-miterlimit="10" stroke-linejoin="round"/>
<path d="M313.086 553.441L305.511 568.829" stroke="#65BAF7" stroke-width="0.995083" stroke-miterlimit="10" stroke-linejoin="round"/>
<path d="M368.969 573.644C361.143 560.437 346.708 549.164 328.663 549.164" stroke="#65BAF7" stroke-width="0.995083" stroke-miterlimit="10" stroke-linejoin="round"/>
<path d="M288.073 573.644C295.898 560.437 310.334 549.164 328.379 549.164" stroke="#65BAF7" stroke-width="0.995083" stroke-miterlimit="10" stroke-linejoin="round"/>
<path d="M155.933 543.68L128.332 573.784H183.493L155.933 543.68Z" stroke="#65BAF7" stroke-width="1.99478" stroke-miterlimit="10" stroke-linejoin="round"/>
<path d="M155.934 543.68L166.67 573.784" stroke="#65BAF7" stroke-width="1.99478" stroke-miterlimit="10" stroke-linejoin="round"/>
<path d="M152.891 571.602H175.227" stroke="#65BAF7" stroke-width="1.99478" stroke-miterlimit="10" stroke-linejoin="round"/>
<path d="M139.48 571.602H149.188" stroke="#65BAF7" stroke-width="1.99478" stroke-miterlimit="10" stroke-linejoin="round"/>
<path d="M163.336 569.414H171.151" stroke="#65BAF7" stroke-width="1.99478" stroke-miterlimit="10" stroke-linejoin="round"/>
<path d="M176.746 569.414H179.502" stroke="#65BAF7" stroke-width="1.99478" stroke-miterlimit="10" stroke-linejoin="round"/>
<path d="M155.931 569.414H132.32" stroke="#65BAF7" stroke-width="1.99478" stroke-miterlimit="10" stroke-linejoin="round"/>
<path d="M134.422 567.145H151.986" stroke="#65BAF7" stroke-width="1.99478" stroke-miterlimit="10" stroke-linejoin="round"/>
<path d="M160.375 567.145H167.244" stroke="#65BAF7" stroke-width="1.99478" stroke-miterlimit="10" stroke-linejoin="round"/>
<path d="M174.73 566.898H177.404" stroke="#65BAF7" stroke-width="1.99478" stroke-miterlimit="10" stroke-linejoin="round"/>
<path d="M145.527 561.246H139.645" stroke="#65BAF7" stroke-width="1.99478" stroke-miterlimit="10" stroke-linejoin="round"/>
<path d="M151.984 561.246H157.908" stroke="#65BAF7" stroke-width="1.99478" stroke-miterlimit="10" stroke-linejoin="round"/>
<path d="M162.188 561.246H167.905" stroke="#65BAF7" stroke-width="1.99478" stroke-miterlimit="10" stroke-linejoin="round"/>
<path d="M164.734 556.258H167.244" stroke="#65BAF7" stroke-width="1.99478" stroke-miterlimit="10" stroke-linejoin="round"/>
<path d="M160.416 556.258H154.945" stroke="#65BAF7" stroke-width="1.99478" stroke-miterlimit="10" stroke-linejoin="round"/>
<path d="M148.942 556.258H144.129" stroke="#65BAF7" stroke-width="1.99478" stroke-miterlimit="10" stroke-linejoin="round"/>
<path d="M152.602 553.25H159.183" stroke="#65BAF7" stroke-width="1.99478" stroke-miterlimit="10" stroke-linejoin="round"/>
<path d="M162.883 553.25H164.652" stroke="#65BAF7" stroke-width="1.99478" stroke-miterlimit="10" stroke-linejoin="round"/>
<path d="M154.945 549.496H159.182" stroke="#65BAF7" stroke-width="1.99478" stroke-miterlimit="10" stroke-linejoin="round"/>
<path d="M147.418 566.113H155.234" stroke="#65BAF7" stroke-width="1.99478" stroke-miterlimit="10" stroke-linejoin="round"/>
<path d="M150.793 562.234H153.508" stroke="#65BAF7" stroke-width="1.99478" stroke-miterlimit="10" stroke-linejoin="round"/>
<path d="M153.508 557.41H155.894" stroke="#65BAF7" stroke-width="1.99478" stroke-miterlimit="10" stroke-linejoin="round"/>
<path d="M151.328 552.301H153.508" stroke="#65BAF7" stroke-width="1.99478" stroke-miterlimit="10" stroke-linejoin="round"/>
<path d="M138.616 571.602H136.312" stroke="#65BAF7" stroke-width="1.99478" stroke-miterlimit="10" stroke-linejoin="round"/>
<path d="M157.086 569.414H158.238" stroke="#65BAF7" stroke-width="1.99478" stroke-miterlimit="10" stroke-linejoin="round"/>
<path d="M166.668 562.234H169.753" stroke="#65BAF7" stroke-width="1.99478" stroke-miterlimit="10" stroke-linejoin="round"/>
<path d="M165.477 560.383H166.669" stroke="#65BAF7" stroke-width="1.99478" stroke-miterlimit="10" stroke-linejoin="round"/>
<path d="M176.746 570.527H178.104" stroke="#65BAF7" stroke-width="1.99478" stroke-miterlimit="10" stroke-linejoin="round"/>
<path d="M162.555 554.195H163.789" stroke="#65BAF7" stroke-width="1.99478" stroke-miterlimit="10" stroke-linejoin="round"/>
<path d="M145.527 557.41H147.049" stroke="#65BAF7" stroke-width="1.99478" stroke-miterlimit="10" stroke-linejoin="round"/>
<path d="M140.426 562.234H141.29" stroke="#65BAF7" stroke-width="1.99478" stroke-miterlimit="10" stroke-linejoin="round"/>
<path d="M163.789 565.785H172.098" stroke="#65BAF7" stroke-width="0.997392" stroke-miterlimit="10" stroke-linejoin="round"/>
<path d="M174.156 565.785H176.09" stroke="#65BAF7" stroke-width="0.997392" stroke-miterlimit="10" stroke-linejoin="round"/>
<path d="M167.902 563.145H173.743" stroke="#65BAF7" stroke-width="0.997392" stroke-miterlimit="10" stroke-linejoin="round"/>
<path d="M166.668 557.824H168.848" stroke="#65BAF7" stroke-width="0.997392" stroke-miterlimit="10" stroke-linejoin="round"/>
<path d="M161.035 553.25H159.184" stroke="#65BAF7" stroke-width="0.997392" stroke-miterlimit="10" stroke-linejoin="round"/>
<path d="M151.985 554.977H145.527" stroke="#65BAF7" stroke-width="0.997392" stroke-miterlimit="10" stroke-linejoin="round"/>
<path d="M155.809 554.977H160.004" stroke="#65BAF7" stroke-width="0.997392" stroke-miterlimit="10" stroke-linejoin="round"/>
<path d="M153.26 550.527H149.969" stroke="#65BAF7" stroke-width="0.997392" stroke-miterlimit="10" stroke-linejoin="round"/>
<path d="M144.129 566.113H135.367" stroke="#65BAF7" stroke-width="0.997392" stroke-miterlimit="10" stroke-linejoin="round"/>
<path d="M134.994 572.055H129.523" stroke="#65BAF7" stroke-width="0.997392" stroke-miterlimit="10" stroke-linejoin="round"/>
<path d="M161.281 565.785H164.737" stroke="#65BAF7" stroke-width="0.997392" stroke-miterlimit="10" stroke-linejoin="round"/>
<path d="M160.789 563.473H164.738" stroke="#65BAF7" stroke-width="0.997392" stroke-miterlimit="10" stroke-linejoin="round"/>
<path d="M161.406 558.98H164.327" stroke="#65BAF7" stroke-width="0.997392" stroke-miterlimit="10" stroke-linejoin="round"/>
<path d="M150.793 563.969H154.536" stroke="#65BAF7" stroke-width="0.997392" stroke-miterlimit="10" stroke-linejoin="round"/>
<path d="M102.907 529.895L98.835 535.544L97.7244 535.585L62.6367 573.814H143.178L108.008 535.462L106.733 535.421L102.907 529.895Z" stroke="#65BAF7" stroke-width="1.99478" stroke-miterlimit="10" stroke-linejoin="round"/>
<path d="M102.906 529.895L118.62 573.814" stroke="#65BAF7" stroke-width="1.99478" stroke-miterlimit="10" stroke-linejoin="round"/>
<path d="M98.4648 570.641H131.043" stroke="#65BAF7" stroke-width="1.99478" stroke-miterlimit="10" stroke-linejoin="round"/>
<path d="M78.9688 570.641H93.119" stroke="#65BAF7" stroke-width="1.99478" stroke-miterlimit="10" stroke-linejoin="round"/>
<path d="M113.766 567.422H125.16" stroke="#65BAF7" stroke-width="1.99478" stroke-miterlimit="10" stroke-linejoin="round"/>
<path d="M133.266 567.422H137.338" stroke="#65BAF7" stroke-width="1.99478" stroke-miterlimit="10" stroke-linejoin="round"/>
<path d="M102.908 567.422H68.5195" stroke="#65BAF7" stroke-width="1.99478" stroke-miterlimit="10" stroke-linejoin="round"/>
<path d="M71.5625 564.125H97.1893" stroke="#65BAF7" stroke-width="1.99478" stroke-miterlimit="10" stroke-linejoin="round"/>
<path d="M109.406 564.125H119.443" stroke="#65BAF7" stroke-width="1.99478" stroke-miterlimit="10" stroke-linejoin="round"/>
<path d="M130.387 563.75H133.924" stroke="#65BAF7" stroke-width="1.99478" stroke-miterlimit="10" stroke-linejoin="round"/>
<path d="M87.7278 555.543H79.1719" stroke="#65BAF7" stroke-width="1.99478" stroke-miterlimit="10" stroke-linejoin="round"/>
<path d="M97.1914 555.543H105.83" stroke="#65BAF7" stroke-width="1.99478" stroke-miterlimit="10" stroke-linejoin="round"/>
<path d="M112.082 555.543H120.391" stroke="#65BAF7" stroke-width="1.99478" stroke-miterlimit="10" stroke-linejoin="round"/>
<path d="M115.781 548.289H119.442" stroke="#65BAF7" stroke-width="1.99478" stroke-miterlimit="10" stroke-linejoin="round"/>
<path d="M109.488 548.289H101.508" stroke="#65BAF7" stroke-width="1.99478" stroke-miterlimit="10" stroke-linejoin="round"/>
<path d="M92.7458 548.289H86.082" stroke="#65BAF7" stroke-width="1.99478" stroke-miterlimit="10" stroke-linejoin="round"/>
<path d="M98.0547 543.832H107.721" stroke="#65BAF7" stroke-width="1.99478" stroke-miterlimit="10" stroke-linejoin="round"/>
<path d="M113.066 543.832H115.658" stroke="#65BAF7" stroke-width="1.99478" stroke-miterlimit="10" stroke-linejoin="round"/>
<path d="M90.4844 562.641H101.879" stroke="#65BAF7" stroke-width="1.99478" stroke-miterlimit="10" stroke-linejoin="round"/>
<path d="M95.4219 556.988H99.3708" stroke="#65BAF7" stroke-width="1.99478" stroke-miterlimit="10" stroke-linejoin="round"/>
<path d="M99.3711 549.938H102.868" stroke="#65BAF7" stroke-width="1.99478" stroke-miterlimit="10" stroke-linejoin="round"/>
<path d="M96.2031 542.473H99.3705" stroke="#65BAF7" stroke-width="1.99478" stroke-miterlimit="10" stroke-linejoin="round"/>
<path d="M77.6522 570.641H74.3203" stroke="#65BAF7" stroke-width="1.99478" stroke-miterlimit="10" stroke-linejoin="round"/>
<path d="M104.594 567.422H106.28" stroke="#65BAF7" stroke-width="1.99478" stroke-miterlimit="10" stroke-linejoin="round"/>
<path d="M118.621 556.988H123.105" stroke="#65BAF7" stroke-width="1.99478" stroke-miterlimit="10" stroke-linejoin="round"/>
<path d="M116.895 554.266H118.622" stroke="#65BAF7" stroke-width="1.99478" stroke-miterlimit="10" stroke-linejoin="round"/>
<path d="M133.266 569.031H135.281" stroke="#65BAF7" stroke-width="1.99478" stroke-miterlimit="10" stroke-linejoin="round"/>
<path d="M112.574 545.277H114.425" stroke="#65BAF7" stroke-width="1.99478" stroke-miterlimit="10" stroke-linejoin="round"/>
<path d="M87.7266 549.938H89.9478" stroke="#65BAF7" stroke-width="1.99478" stroke-miterlimit="10" stroke-linejoin="round"/>
<path d="M80.3672 556.988H81.6012" stroke="#65BAF7" stroke-width="1.99478" stroke-miterlimit="10" stroke-linejoin="round"/>
<path d="M98.8359 535.547L105.705 537.691" stroke="#65BAF7" stroke-width="1.99478" stroke-miterlimit="10" stroke-linejoin="round"/>
<path d="M105.703 537.688L108.007 535.461" stroke="#65BAF7" stroke-width="1.99478" stroke-miterlimit="10" stroke-linejoin="round"/>
<path d="M107.391 542.473H104.43" stroke="#65BAF7" stroke-width="0.997392" stroke-miterlimit="10" stroke-linejoin="round"/>
<path d="M106.693 540.488H98.8359" stroke="#65BAF7" stroke-width="0.997392" stroke-miterlimit="10" stroke-linejoin="round"/>
<path d="M113.521 548.289H109.078" stroke="#65BAF7" stroke-width="0.997392" stroke-miterlimit="10" stroke-linejoin="round"/>
<path d="M112.08 555.543H109.488" stroke="#65BAF7" stroke-width="0.997392" stroke-miterlimit="10" stroke-linejoin="round"/>
<path d="M114.137 561.277H120.636" stroke="#65BAF7" stroke-width="0.997392" stroke-miterlimit="10" stroke-linejoin="round"/>
<path d="M113.766 560.203H116.892" stroke="#65BAF7" stroke-width="0.997392" stroke-miterlimit="10" stroke-linejoin="round"/>
<path d="M113.069 557.938H102.785" stroke="#65BAF7" stroke-width="0.997392" stroke-miterlimit="10" stroke-linejoin="round"/>
<path d="M75.6758 559.586H84.8488" stroke="#65BAF7" stroke-width="0.997392" stroke-miterlimit="10" stroke-linejoin="round"/>
<path d="M74.6484 560.738H78.3917" stroke="#65BAF7" stroke-width="0.997392" stroke-miterlimit="10" stroke-linejoin="round"/>
<path d="M92.7461 552.945H96.2014" stroke="#65BAF7" stroke-width="0.997392" stroke-miterlimit="10" stroke-linejoin="round"/>
<path d="M115.907 566.266H111.711" stroke="#65BAF7" stroke-width="0.997392" stroke-miterlimit="10" stroke-linejoin="round"/>
<path d="M71.194 570.641H65.5586" stroke="#65BAF7" stroke-width="0.997392" stroke-miterlimit="10" stroke-linejoin="round"/>
<path d="M118.004 572.125H125.984" stroke="#65BAF7" stroke-width="0.997392" stroke-miterlimit="10" stroke-linejoin="round"/>
<path d="M125.984 562.352H132.895" stroke="#65BAF7" stroke-width="0.997392" stroke-miterlimit="10" stroke-linejoin="round"/>
<path d="M119.445 550.309H121.584" stroke="#65BAF7" stroke-width="0.997392" stroke-miterlimit="10" stroke-linejoin="round"/>
<path d="M121.582 551.258H122.364" stroke="#65BAF7" stroke-width="0.997392" stroke-miterlimit="10" stroke-linejoin="round"/>
<path d="M125.738 557.195H127.795" stroke="#65BAF7" stroke-width="0.997392" stroke-miterlimit="10" stroke-linejoin="round"/>
<path d="M94.0613 546.184H87.7266" stroke="#65BAF7" stroke-width="0.997392" stroke-miterlimit="10" stroke-linejoin="round"/>
<path d="M99.3708 538.473H95.4219" stroke="#65BAF7" stroke-width="0.997392" stroke-miterlimit="10" stroke-linejoin="round"/>
<path d="M55.0521 573.681C55.0521 573.681 53.2422 564.114 46.7841 564.114C40.326 564.114 37.3643 564.114 37.3643 564.114C37.3643 564.114 37.9402 558.753 34.8551 556.897C31.6055 554.959 29.1785 557.515 30.0012 561.433C30.4126 563.454 31.8111 563.949 32.1813 563.041C32.1813 563.041 32.9629 564.485 31.7289 565.186C29.0963 566.712 27.9856 569.268 27.8211 571.289H19.9644C19.9644 571.289 17.4141 571.124 17.4141 573.64H55.0521V573.681Z" stroke="#65BAF7" stroke-width="1.99478" stroke-miterlimit="10" stroke-linejoin="round"/>
<path d="M49.9522 571.207H42.7126C42.7126 571.207 40.1211 571.166 40.1211 573.681" stroke="#65BAF7" stroke-width="1.99478" stroke-miterlimit="10" stroke-linejoin="round"/>
<path d="M33.7847 571.332H26.9563C26.9563 571.332 24.4883 571.291 24.4883 573.683" stroke="#65BAF7" stroke-width="1.99478" stroke-miterlimit="10" stroke-linejoin="round"/>
<path d="M32.7969 556.277C34.6068 556.277 34.6891 563.041 34.6891 566.546L37.3628 564.113" stroke="#65BAF7" stroke-width="0.997392" stroke-miterlimit="10" stroke-linejoin="round"/>
<path d="M43.9055 571.207C42.9594 571.207 42.1367 572.156 42.1367 573.681" stroke="#65BAF7" stroke-width="0.997392" stroke-miterlimit="10" stroke-linejoin="round"/>
<path d="M28.3977 571.207C27.4516 571.207 26.6289 572.156 26.6289 573.681" stroke="#65BAF7" stroke-width="0.997392" stroke-miterlimit="10" stroke-linejoin="round"/>
<path d="M20.8704 571.207C19.9243 571.207 19.1016 572.156 19.1016 573.681" stroke="#65BAF7" stroke-width="0.997392" stroke-miterlimit="10" stroke-linejoin="round"/>
<path d="M32.1406 569.145H49.4994" stroke="#65BAF7" stroke-width="0.997392" stroke-miterlimit="10" stroke-linejoin="round"/>
<path d="M51.0195 569.145H53.4465" stroke="#65BAF7" stroke-width="0.997392" stroke-miterlimit="10" stroke-linejoin="round"/>
<path d="M47.3594 567.988H52.9125" stroke="#65BAF7" stroke-width="0.997392" stroke-miterlimit="10" stroke-linejoin="round"/>
<path d="M45.0143 567.988H39.3789" stroke="#65BAF7" stroke-width="0.997392" stroke-miterlimit="10" stroke-linejoin="round"/>
<path d="M42.793 566.711H51.8837" stroke="#65BAF7" stroke-width="0.997392" stroke-miterlimit="10" stroke-linejoin="round"/>
<path d="M46.207 565.477H50.8141" stroke="#65BAF7" stroke-width="0.997392" stroke-miterlimit="10" stroke-linejoin="round"/>
<path d="M45.0162 565.477H38.7227" stroke="#65BAF7" stroke-width="0.997392" stroke-miterlimit="10" stroke-linejoin="round"/>
<path d="M440 574H1.72853e-05" stroke="#65BAF7" stroke-width="1.99478" stroke-miterlimit="10" stroke-linejoin="round"/>
<path d="M324.329 13.1116C324.726 13.1116 325.124 13.1914 325.442 13.2711C325.442 8.64834 329.178 4.90234 333.789 4.90234C337.923 4.90234 341.421 7.93102 342.057 11.9958C342.932 11.3582 343.965 10.9597 345.158 10.9597C348.099 10.9597 350.484 13.3508 350.484 16.2997C350.484 19.2487 348.099 21.6398 345.158 21.6398C343.011 21.6398 341.183 20.3645 340.308 18.5314C338.798 20.4442 336.413 21.6398 333.789 21.6398C331.563 21.6398 329.576 20.763 328.065 19.3284C327.35 20.6833 325.919 21.6398 324.329 21.6398C322.023 21.6398 320.115 19.7269 320.115 17.4156C320.115 15.0245 322.023 13.1116 324.329 13.1116Z" stroke="#65BAF7" stroke-width="1.99478" stroke-miterlimit="10" stroke-linejoin="round"/>
<path d="M350.406 14.707C349.929 17.1778 347.783 18.9312 345.159 18.9312C343.013 18.9312 341.184 17.656 340.31 15.8229C338.799 17.7357 336.414 18.9312 333.791 18.9312C331.565 18.9312 329.577 18.0545 328.067 16.6199C327.351 17.9748 325.92 18.9312 324.33 18.9312C322.422 18.9312 320.832 17.7357 320.276 15.9823" stroke="#65BAF7" stroke-width="0.997392" stroke-miterlimit="10" stroke-linejoin="round"/>
<path d="M333.949 1C332.995 1 332.121 1.07975 331.246 1.319" stroke="#65BAF7" stroke-width="0.997392" stroke-miterlimit="10" stroke-linejoin="round"/>
<path d="M342.852 4.74667C341.5 3.31204 339.831 2.27591 337.923 1.55859" stroke="#65BAF7" stroke-width="0.997392" stroke-miterlimit="10" stroke-linejoin="round"/>
<path d="M319.004 22.1211C320.276 23.5557 322.105 24.4325 324.172 24.4325" stroke="#65BAF7" stroke-width="0.997392" stroke-miterlimit="10" stroke-linejoin="round"/>
<path d="M20.1623 109.205C20.3148 106.53 22.5256 104.543 25.1939 104.62C26.0325 102.48 27.9384 100.874 30.1492 100.339C30.4542 97.8173 32.7412 95.9066 35.257 96.1359C37.6203 96.2887 39.45 98.0466 39.7549 100.263C41.4321 100.492 42.8806 101.409 43.9479 102.556C44.5578 102.403 45.2439 102.25 46.0063 102.327C49.2844 102.556 51.8002 105.384 51.5715 108.67C51.3428 111.957 48.5221 114.479 45.2439 114.25C44.1004 114.173 43.1093 113.791 42.2707 113.18C41.1272 113.867 39.6787 114.25 38.2302 114.173C37.0867 114.097 36.0956 113.791 35.1808 113.256C34.0372 113.944 32.665 114.25 31.2165 114.173C30.073 114.097 29.0057 113.715 28.0908 113.18C27.176 113.944 25.9562 114.402 24.6602 114.326C21.992 114.173 19.9336 111.88 20.1623 109.205Z" stroke="#65BAF7" stroke-width="1.99478" stroke-miterlimit="10" stroke-linejoin="round"/>
<path d="M51.418 106.914C50.7318 109.666 48.1398 111.653 45.2429 111.423C44.0993 111.347 43.1083 110.965 42.2697 110.353C41.1261 111.041 39.6776 111.423 38.2292 111.347C37.0856 111.271 36.0946 110.965 35.1797 110.43C34.0362 111.118 32.6639 111.423 31.2154 111.347C30.0719 111.271 29.0046 110.888 28.0898 110.353C27.175 111.118 25.9552 111.576 24.6592 111.5C22.677 111.347 20.9999 110.048 20.39 108.213" stroke="#65BAF7" stroke-width="0.997392" stroke-miterlimit="10" stroke-linejoin="round"/>
<path d="M21.5326 116.387C22.4474 116.769 23.4385 116.999 24.582 116.999" stroke="#65BAF7" stroke-width="0.997392" stroke-miterlimit="10" stroke-linecap="round" stroke-linejoin="round"/>
<path d="M17.1857 109.664C17.1857 111.728 18.0243 113.562 19.3203 114.861" stroke="#65BAF7" stroke-width="0.997392" stroke-miterlimit="10" stroke-linecap="round" stroke-linejoin="round"/>
<path d="M50.2734 100.418C48.9774 99.73 47.529 99.3477 46.0042 99.3477" stroke="#65BAF7" stroke-width="0.997392" stroke-miterlimit="10" stroke-linecap="round" stroke-linejoin="round"/>
<path d="M55 108.364C55 105.689 53.8565 103.32 52.0268 101.715" stroke="#65BAF7" stroke-width="0.997392" stroke-miterlimit="10" stroke-linecap="round" stroke-linejoin="round"/>
<path d="M374.609 92.3365C376.956 100.041 386.519 104.747 388.455 104.158C390.391 103.57 395.495 93.6893 393.324 86.5726C391.74 81.3968 387.927 77.3385 380.945 79.4559C374.316 81.5144 373.025 87.1607 374.609 92.3365Z" stroke="#65BAF7" stroke-width="1.99478" stroke-miterlimit="10" stroke-linejoin="round"/>
<path d="M377.601 91.3976C379.772 98.5731 387.281 104.513 388.396 104.161C389.686 103.749 392.267 94.3384 390.214 87.5158C388.63 82.34 385.404 78.1053 380.886 79.5169C376.076 80.9872 376.017 86.2218 377.601 91.3976Z" stroke="#65BAF7" stroke-width="1.99478" stroke-miterlimit="10" stroke-linejoin="round"/>
<path d="M380.769 90.4561C382.822 97.2199 388.395 104.16 388.395 104.16C388.395 104.16 389.099 95.1613 387.046 88.5152C385.462 83.3394 382.587 78.987 380.827 79.5164C379.126 80.0457 379.185 85.2803 380.769 90.4561Z" stroke="#65BAF7" stroke-width="1.99478" stroke-miterlimit="10" stroke-linejoin="round"/>
<path d="M388.453 104.156L391.328 107.156" stroke="#65BAF7" stroke-width="1.99478" stroke-miterlimit="10" stroke-linejoin="round"/>
<path d="M388.453 104.156L387.514 108.332" stroke="#65BAF7" stroke-width="1.99478" stroke-miterlimit="10" stroke-linejoin="round"/>
<path d="M391.329 107.146L392.137 109.789L388.323 110.961L387.514 108.318L391.329 107.146Z" stroke="#65BAF7" stroke-width="1.99478" stroke-miterlimit="10" stroke-linejoin="round"/>
<path d="M376.017 91.9225C378.188 99.098 386.988 104.627 388.396 104.215C390.038 103.686 393.852 93.8634 391.798 87.0996C390.214 81.9239 386.518 77.8068 380.828 79.5713C374.902 81.3357 374.433 86.7467 376.017 91.9225Z" stroke="#65BAF7" stroke-width="0.997392" stroke-miterlimit="10" stroke-linejoin="round"/>
<path d="M379.477 90.8676C381.531 97.6314 388.453 104.219 388.453 104.219C388.453 104.219 390.448 94.8083 388.453 88.1621C386.869 82.9863 383.408 78.8104 380.944 79.575C378.421 80.2808 377.893 85.6919 379.477 90.8676Z" stroke="#65BAF7" stroke-width="0.997392" stroke-miterlimit="10" stroke-linejoin="round"/>
<path d="M382.942 89.7505C384.996 96.5143 388.398 104.16 388.398 104.16C388.398 104.16 386.932 95.8085 384.878 89.1623C383.294 83.9866 381.417 79.3401 380.83 79.5166C380.361 79.693 381.358 84.6335 382.942 89.7505Z" stroke="#65BAF7" stroke-width="0.997392" stroke-miterlimit="10" stroke-linejoin="round"/>
<path d="M66.2623 45.034C66.4969 49.151 69.9583 52.3271 74.0649 52.0918C78.1716 51.8566 81.3396 48.3864 81.1049 44.2694C80.8703 40.1523 77.4089 36.9762 73.3023 37.2115C69.1956 37.3879 66.0276 40.9169 66.2623 45.034Z" stroke="#65BAF7" stroke-width="1.99478" stroke-miterlimit="10" stroke-linejoin="round"/>
<path d="M73.1875 34.7424L73.0109 31.5664" stroke="#65BAF7" stroke-width="0.997392" stroke-miterlimit="10" stroke-linejoin="round"/>
<path d="M74.418 57.7346L74.2414 54.5586" stroke="#65BAF7" stroke-width="0.997392" stroke-miterlimit="10" stroke-linejoin="round"/>
<path d="M78.174 35.7997L79.6406 32.9766" stroke="#65BAF7" stroke-width="0.997392" stroke-miterlimit="10" stroke-linejoin="round"/>
<path d="M67.7873 56.3271L69.1953 53.5039" stroke="#65BAF7" stroke-width="0.997392" stroke-miterlimit="10" stroke-linejoin="round"/>
<path d="M81.985 39.2684L84.625 37.5039" stroke="#65BAF7" stroke-width="0.997392" stroke-miterlimit="10" stroke-linejoin="round"/>
<path d="M62.7427 51.7996L65.4414 50.0352" stroke="#65BAF7" stroke-width="0.997392" stroke-miterlimit="10" stroke-linejoin="round"/>
<path d="M83.5703 44.1531L86.7383 43.9766" stroke="#65BAF7" stroke-width="0.997392" stroke-miterlimit="10" stroke-linejoin="round"/>
<path d="M60.6914 45.3289L63.8594 45.1523" stroke="#65BAF7" stroke-width="0.997392" stroke-miterlimit="10" stroke-linejoin="round"/>
<path d="M82.516 49.1523L85.332 50.5648" stroke="#65BAF7" stroke-width="0.997392" stroke-miterlimit="10" stroke-linejoin="round"/>
<path d="M62.0981 38.7422L64.9141 40.1546" stroke="#65BAF7" stroke-width="0.997392" stroke-miterlimit="10" stroke-linejoin="round"/>
<path d="M79.1112 52.9766L80.8125 55.6233" stroke="#65BAF7" stroke-width="0.997392" stroke-miterlimit="10" stroke-linejoin="round"/>
<path d="M66.6151 33.6875L68.3164 36.3342" stroke="#65BAF7" stroke-width="0.997392" stroke-miterlimit="10" stroke-linejoin="round"/>
</g>
</svg>
