<svg xmlns="http://www.w3.org/2000/svg" width="20" height="20" viewBox="0 0 20 20" fill="none">
    <path d="M17.5288 7.49506L19 5.8331H15.7376C14.1043 4.67467 12.1318 4 9.99863 4C7.86814 4 5.90117 4.67613 4.27061 5.8331H1L2.47117 7.49506C1.56941 8.34936 1.0041 9.57993 1.0041 10.9463C1.0041 13.5248 3.01744 15.6153 5.50072 15.6153C6.68038 15.6153 7.75513 15.1429 8.55747 14.3706L9.99867 16L11.4399 14.372C12.2422 15.1443 13.3156 15.6153 14.4952 15.6153C16.9785 15.6153 18.9946 13.5248 18.9946 10.9463C18.9959 9.57851 18.4306 8.34797 17.5288 7.49506ZM5.50205 14.1061C3.82109 14.1061 2.45893 12.6917 2.45893 10.9463C2.45893 9.20085 3.82112 7.78643 5.50205 7.78643C7.18298 7.78643 8.54517 9.20085 8.54517 10.9463C8.54517 12.6917 7.18298 14.1061 5.50205 14.1061ZM10 10.8543C10 8.7751 8.54383 6.99012 6.62177 6.22773C7.66111 5.77651 8.80127 5.52616 9.99863 5.52616C11.196 5.52616 12.3375 5.77651 13.3769 6.22773C11.4562 6.99154 10 8.77514 10 10.8543ZM14.4966 14.1061C12.8157 14.1061 11.4535 12.6917 11.4535 10.9463C11.4535 9.20085 12.8157 7.78643 14.4966 7.78643C16.1776 7.78643 17.5397 9.20085 17.5397 10.9463C17.5397 12.6917 16.1775 14.1061 14.4966 14.1061ZM14.4966 9.28853C13.6153 9.28853 12.9015 10.0297 12.9015 10.9449C12.9015 11.86 13.6153 12.6011 14.4966 12.6011C15.3779 12.6011 16.0917 11.86 16.0917 10.9449C16.0917 10.0311 15.3779 9.28853 14.4966 9.28853ZM7.09717 10.9463C7.09717 11.8614 6.38337 12.6026 5.50205 12.6026C4.62073 12.6026 3.90693 11.8614 3.90693 10.9463C3.90693 10.0311 4.62073 9.28995 5.50205 9.28995C6.38337 9.28853 7.09717 10.0311 7.09717 10.9463Z" fill="#726E83"/>
  </svg>