<svg width="28" height="28" viewBox="0 0 28 28" fill="none" xmlns="http://www.w3.org/2000/svg">
<g clip-path="url(#clip0_1673_6329)">
<path d="M27.4405 14.0005C27.4405 21.4113 21.4113 27.4405 14.0005 27.4405C6.58979 27.4405 0.560547 21.4113 0.560547 14.0005C0.560547 13.5366 0.936307 13.1605 1.40055 13.1605C1.86479 13.1605 2.24055 13.5366 2.24055 14.0005C2.24055 20.4851 7.51603 25.7605 14.0005 25.7605C20.4851 25.7605 25.7605 20.4851 25.7605 14.0005C25.7605 7.51603 20.4851 2.24055 14.0005 2.24055C10.8755 2.24055 7.97327 3.45547 5.79039 5.60055H8.96055C9.42479 5.60055 9.80055 5.97659 9.80055 6.44055C9.80055 6.90451 9.42479 7.28055 8.96055 7.28055H3.92055C3.45631 7.28055 3.08055 6.90451 3.08055 6.44055V1.40055C3.08055 0.936587 3.45631 0.560547 3.92055 0.560547C4.38479 0.560547 4.76055 0.936587 4.76055 1.40055V4.26579C7.23883 1.90035 10.4952 0.560547 14.0005 0.560547C21.4113 0.560547 27.4405 6.58979 27.4405 14.0005Z" fill="#3FA9F5"/>
<path d="M14.7 13.206H13.02C12.5566 13.206 12.18 12.8291 12.18 12.366C12.18 11.9029 12.5566 11.526 13.02 11.526H16.38C16.8442 11.526 17.22 11.15 17.22 10.686C17.22 10.2221 16.8442 9.84602 16.38 9.84602H14.7V9.00602C14.7 8.54206 14.3242 8.16602 13.86 8.16602C13.3958 8.16602 13.02 8.54206 13.02 9.00602V9.84602C11.6304 9.84602 10.5 10.9764 10.5 12.366C10.5 13.7557 11.6304 14.886 13.02 14.886H14.7C15.1634 14.886 15.54 15.2629 15.54 15.726C15.54 16.1891 15.1634 16.566 14.7 16.566H11.34C10.8758 16.566 10.5 16.9421 10.5 17.406C10.5 17.87 10.8758 18.246 11.34 18.246H13.02V19.086C13.02 19.55 13.3958 19.926 13.86 19.926C14.3242 19.926 14.7 19.55 14.7 19.086V18.246C16.0896 18.246 17.22 17.1157 17.22 15.726C17.22 14.3364 16.0896 13.206 14.7 13.206Z" fill="#FFBB0B"/>
</g>
<defs>
<clipPath id="clip0_1673_6329">
<rect width="28" height="28" fill="white"/>
</clipPath>
</defs>
</svg>
