<svg width="48" height="48" viewBox="0 0 48 48" fill="none" xmlns="http://www.w3.org/2000/svg">
    <path d="M4.10873 17.6282C4.9839 20.7906 7.49495 23.2882 10.6625 24.1465L17.988 26.127C18.4924 26.2634 19.0126 25.965 19.1491 25.4603C19.2856 24.9555 18.987 24.4357 18.4823 24.2993L11.1573 22.3189C8.63285 21.6348 6.63124 19.644 5.93368 17.1233L4.06916 10.3859L7.08151 10.8445L10.7583 16.8515C10.8852 17.0586 11.0868 17.2092 11.3214 17.2718L19.8276 19.5439C20.1452 19.6288 20.4828 19.5432 20.7215 19.3181C20.9601 19.0931 21.0653 18.7606 20.9994 18.4392L18.7528 7.47739L22.4897 8.3501L31.3416 22.3712C31.4687 22.5725 31.6671 22.7186 31.8969 22.7802L43.1848 25.8069C44.4193 26.1954 45.171 27.5447 44.8621 28.823C44.7039 29.4766 44.2983 30.0253 43.7196 30.3678C43.141 30.7104 42.4648 30.8021 41.8155 30.6262L26.6767 26.5305C26.1718 26.3936 25.6521 26.6924 25.5155 27.1972C25.379 27.7019 25.6775 28.2217 26.1822 28.3582L41.3207 32.4539C41.7013 32.5571 42.0873 32.6081 42.4706 32.6081C43.2416 32.6081 44.0013 32.4015 44.6842 31.9972C45.7066 31.392 46.4233 30.4228 46.7025 29.268C47.2437 27.0298 45.9085 24.6631 43.7262 23.9923C43.7154 23.9889 43.7044 23.9858 43.6932 23.9829L32.745 21.0472L23.8835 7.01092C23.7508 6.80056 23.5405 6.65097 23.2982 6.59445L17.7439 5.29731C17.4295 5.22385 17.0996 5.31568 16.8683 5.54072C16.637 5.76576 16.5363 6.09315 16.6011 6.40936L18.8373 17.3195L12.1759 15.5402L8.46679 9.48051C8.32108 9.2424 8.07777 9.08079 7.80179 9.03876L2.90949 8.29405C2.59195 8.24605 2.27214 8.36146 2.05903 8.60155C1.84591 8.84155 1.76904 9.1732 1.85462 9.4825L4.10873 17.6282Z" fill="#3FA9F5"/>
    <path d="M21.4198 26.0651C21.2834 26.5693 21.5815 27.0886 22.0856 27.2249C22.5898 27.3613 23.1091 27.0632 23.2454 26.559C23.3818 26.0549 23.0837 25.5356 22.5795 25.3993C22.0755 25.2629 21.5562 25.561 21.4198 26.0651Z" fill="#3FA9F5"/>
    <path d="M47.0533 40.834H0.946746C0.423953 40.834 0 41.2578 0 41.7807C0 42.3036 0.423953 42.7275 0.946746 42.7275H47.0533C47.576 42.7275 48 42.3036 48 41.7807C48 41.2578 47.576 40.834 47.0533 40.834Z" fill="#FFBB0B"/>
</svg>
