<svg width="48" height="48" viewBox="0 0 48 48" fill="none" xmlns="http://www.w3.org/2000/svg">
    <g clip-path="url(#clip0_4946_6745)">
        <path d="M8.10108 32.3042C10.9561 33.9215 14.4977 33.912 17.3444 32.2792L23.9248 28.4997C24.3778 28.2395 24.5347 27.6606 24.2743 27.2072C24.014 26.7537 23.4352 26.5973 22.9819 26.8577L16.4019 30.637C14.1332 31.9383 11.3102 31.9459 9.03449 30.6568L2.952 27.2111L5.40634 25.4053L12.2538 27.0531C12.49 27.1098 12.739 27.0737 12.9492 26.9521L20.5707 22.5439C20.8552 22.3794 21.0334 22.0801 21.043 21.7522C21.0527 21.4243 20.8919 21.1148 20.6181 20.9341L11.2783 14.7716L14.5378 12.7463L30.7114 16.4015C30.9437 16.4539 31.1872 16.417 31.3933 16.298L41.5153 10.4565C42.6628 9.85829 44.1485 10.2808 44.8339 11.4032C45.1843 11.9772 45.2854 12.652 45.1185 13.3034C44.9516 13.9548 44.5382 14.4977 43.9548 14.8324L30.3539 22.6411C29.9 22.9013 29.7439 23.4801 30.0042 23.9336C30.2646 24.387 30.8432 24.5436 31.2967 24.2832L44.8972 16.4747C45.2394 16.2785 45.5484 16.0417 45.8194 15.7707C46.3646 15.2255 46.7557 14.5422 46.9527 13.7735C47.2476 12.6226 47.0692 11.4304 46.45 10.4164C45.25 8.45111 42.6324 7.72174 40.615 8.79052C40.6049 8.79581 40.5949 8.80137 40.5849 8.80719L30.7676 14.4729L14.5764 10.8138C14.3338 10.7589 14.0793 10.8018 13.8681 10.9332L9.02331 13.9435C8.74911 14.1138 8.58074 14.412 8.57632 14.7347C8.5719 15.0574 8.73217 15.3601 9.00162 15.5378L18.2974 21.6713L12.3289 25.1234L5.4214 23.4613C5.15001 23.396 4.86368 23.4538 4.63881 23.6192L0.652841 26.552C0.394367 26.7426 0.249832 27.0503 0.268911 27.3708C0.287924 27.6912 0.468073 27.98 0.7473 28.1382L8.10108 32.3042Z" fill="#3FA9F5"/>
        <path d="M26.3067 26.0294C26.5667 26.4824 27.1447 26.6388 27.5976 26.3787C28.0505 26.1187 28.2069 25.5407 27.9468 25.0878C27.6868 24.6348 27.1088 24.4784 26.6559 24.7385C26.203 24.9985 26.0466 25.5765 26.3067 26.0294Z" fill="#3FA9F5"/>
        <path d="M47.0533 40.834H0.946746C0.423953 40.834 0 41.2578 0 41.7807C0 42.3036 0.423953 42.7275 0.946746 42.7275H47.0533C47.576 42.7275 48 42.3036 48 41.7807C48 41.2578 47.576 40.834 47.0533 40.834Z" fill="#FFBB0B"/>
    </g>
    <defs>
        <clipPath id="clip0_4946_6745">
            <rect width="48" height="48" fill="white"/>
        </clipPath>
    </defs>
</svg>
