<svg xmlns="http://www.w3.org/2000/svg" width="20" height="20" viewBox="0 0 20 20" fill="none">
    <path d="M16.9968 5.23875L18.1 4.01761C18.4194 3.68689 18.5065 3.43249 18.5355 3.30528C17.6645 3.76321 16.8516 3.91585 16.329 3.91585H16.1258L16.0097 3.81409C15.3129 3.27984 14.4419 3 13.5129 3C11.4806 3 9.88387 4.47554 9.88387 6.18004C9.88387 6.2818 9.88387 6.43444 9.9129 6.5362L10 7.04501L9.39032 7.01957C5.67419 6.91781 2.62581 4.11937 2.13226 3.63601C1.31935 4.90802 1.78387 6.12916 2.27742 6.89237L3.26452 8.31703L1.69677 7.55382C1.72581 8.62231 2.19032 9.46184 3.09032 10.0724L3.87419 10.5812L3.09032 10.8611C3.58387 12.1585 4.6871 12.6928 5.5 12.8963L6.57419 13.1507L5.55806 13.7613C3.93226 14.7789 1.9 14.7025 1 14.6262C2.82903 15.7456 5.00645 16 6.51613 16C7.64839 16 8.49032 15.8982 8.69355 15.8219C16.8226 14.1429 17.2 7.78278 17.2 6.51076V6.33268L17.3742 6.23092C18.3613 5.41683 18.7677 4.98434 19 4.72994C18.9129 4.75538 18.7968 4.80626 18.6806 4.8317L16.9968 5.23875Z" fill="#726E83"/>
  </svg>