<svg width="18" height="18" viewBox="0 0 18 18" fill="none" xmlns="http://www.w3.org/2000/svg">
<g id="whatsapp (6) 1" clip-path="url(#clip0_2905_5213)">
<path id="Vector" d="M0.417182 17.9995C0.316107 17.9995 0.21778 17.9595 0.144858 17.8857C0.0487276 17.7885 0.0116487 17.6473 0.0477663 17.5154L1.21795 13.2422C0.489417 11.9248 0.105307 10.4345 0.105856 8.92172C0.107916 4.00191 4.11161 -0.000549316 9.03101 -0.000549316C11.4171 0.000411989 13.6591 0.929855 15.3443 2.61626C17.0292 4.3028 17.9567 6.54469 17.956 8.92886C17.9538 13.8488 13.9501 17.8515 9.03101 17.8515C9.03101 17.8515 9.0273 17.8515 9.02717 17.8515C7.59029 17.851 6.16578 17.5008 4.89741 16.8375L0.514273 17.987C0.482138 17.9953 0.449454 17.9995 0.417182 17.9995Z" fill="#E5E5E5"/>
<path id="Vector_2" d="M0.41748 17.6165L1.62927 13.1913C0.88179 11.8961 0.488617 10.427 0.489166 8.92188C0.491089 4.21327 4.32285 0.382477 9.03131 0.382477C11.3162 0.383438 13.4609 1.27278 15.0737 2.88695C16.6863 4.50111 17.5741 6.64674 17.5733 8.92874C17.5713 13.6372 13.739 17.4686 9.03131 17.4686C9.03104 17.4686 9.03145 17.4686 9.03131 17.4686H9.02761C7.59801 17.468 6.19341 17.1094 4.94577 16.429L0.41748 17.6165ZM5.15547 14.8831L5.41489 15.0367C6.50473 15.6835 7.75429 16.0256 9.02857 16.0263H9.03131C12.9444 16.0263 16.1293 12.8419 16.131 8.92819C16.1316 7.03154 15.3939 5.24805 14.0534 3.90648C12.7128 2.56491 10.9304 1.82567 9.03392 1.82484C5.11771 1.82484 1.93291 5.00882 1.9314 8.92243C1.93085 10.2636 2.30603 11.5696 3.01685 12.6998L3.18576 12.9684L2.46835 15.5876L5.15547 14.8831Z" fill="white"/>
<path id="Vector_3" d="M0.714844 17.3186L1.88475 13.0464C1.16295 11.7962 0.783508 10.3777 0.78392 8.92488C0.785706 4.37929 4.48494 0.681152 9.03012 0.681152C11.2362 0.682114 13.3067 1.5407 14.8633 3.09897C16.4203 4.65724 17.2773 6.72858 17.2765 8.93134C17.2745 13.4771 13.5752 17.1756 9.03053 17.1756C9.03012 17.1756 9.03067 17.1756 9.03053 17.1756H9.02682C7.6468 17.1751 6.29068 16.8287 5.0863 16.1723L0.714844 17.3186Z" fill="#64B161"/>
<g id="Group">
<path id="Vector_4" d="M0.41748 17.6165L1.62927 13.1913C0.88179 11.8961 0.488617 10.427 0.489166 8.92188C0.491089 4.21327 4.32285 0.382477 9.03131 0.382477C11.3162 0.383438 13.4609 1.27278 15.0737 2.88695C16.6863 4.50111 17.5741 6.64674 17.5733 8.92874C17.5713 13.6372 13.739 17.4686 9.03131 17.4686C9.03104 17.4686 9.03145 17.4686 9.03131 17.4686H9.02761C7.59801 17.468 6.19341 17.1094 4.94577 16.429L0.41748 17.6165ZM5.15547 14.8831L5.41489 15.0367C6.50473 15.6835 7.75429 16.0256 9.02857 16.0263H9.03131C12.9444 16.0263 16.1293 12.8419 16.131 8.92819C16.1316 7.03154 15.3939 5.24805 14.0534 3.90648C12.7128 2.56491 10.9304 1.82567 9.03392 1.82484C5.11771 1.82484 1.93291 5.00882 1.9314 8.92243C1.93085 10.2636 2.30603 11.5696 3.01685 12.6998L3.18576 12.9684L2.46835 15.5876L5.15547 14.8831Z" fill="white"/>
<path id="Vector_5" fill-rule="evenodd" clip-rule="evenodd" d="M6.89607 5.35189C6.73622 4.99648 6.56786 4.98934 6.4157 4.98316C6.29128 4.9778 6.14886 4.97808 6.00673 4.97808C5.86446 4.97808 5.63319 5.03163 5.43764 5.24518C5.24194 5.45873 4.69043 5.97508 4.69043 7.02524C4.69043 8.07553 5.45535 9.09026 5.56206 9.23281C5.66876 9.37522 7.03862 11.5991 9.20801 12.4547C11.011 13.1658 11.3778 13.0243 11.7692 12.9888C12.1606 12.9532 13.0319 12.4724 13.2098 11.974C13.3878 11.4757 13.3878 11.0486 13.3343 10.9592C13.2809 10.8703 13.1386 10.8169 12.9252 10.7102C12.7118 10.6035 11.6625 10.087 11.4668 10.0159C11.2711 9.94458 11.1288 9.90915 10.9866 10.1228C10.8441 10.3362 10.4355 10.8169 10.3109 10.9592C10.1863 11.1019 10.0618 11.1197 9.84837 11.0129C9.63496 10.9059 8.94749 10.6807 8.13203 9.95351C7.49757 9.38785 7.06911 8.68912 6.94455 8.47544C6.82013 8.26203 6.94249 8.15656 7.03835 8.03997C7.21097 7.82999 7.5006 7.45247 7.57173 7.3102C7.64287 7.16765 7.6073 7.04309 7.55402 6.93625C7.5006 6.82955 7.08572 5.77403 6.89607 5.35189Z" fill="white"/>
</g>
</g>
<defs>
<clipPath id="clip0_2905_5213">
<rect width="18" height="18" fill="white"/>
</clipPath>
</defs>
</svg>
