<svg xmlns="http://www.w3.org/2000/svg" width="20" height="20" viewBox="0 0 20 20" fill="none">
    <path d="M18.6226 5.03687C18.4194 4.22811 17.8097 3.59908 17.0258 3.3894C15.6323 3 10 3 10 3C10 3 4.36774 3 2.97419 3.3894C2.19032 3.59908 1.58065 4.22811 1.37742 5.03687C1 6.50461 1 9.5 1 9.5C1 9.5 1 12.5253 1.37742 13.9631C1.58065 14.7719 2.19032 15.4009 2.97419 15.6106C4.36774 16 10 16 10 16C10 16 15.6323 16 17.0258 15.6106C17.8097 15.4009 18.4194 14.7719 18.6226 13.9631C19 12.5253 19 9.5 19 9.5C19 9.5 19 6.50461 18.6226 5.03687ZM8.2 12.2857V6.71429L12.8742 9.5L8.2 12.2857Z" fill="#726E83"/>
  </svg>